<svg xmlns="http://www.w3.org/2000/svg" viewBox="0 0 1878 1883.6" enable-background="new 0 0 1878 1883.6"><style type="text/css">.st0{fill:#ACB8BF;} .st1{fill:#FFFEFD;} .st2{fill:#D8D8D8;} .st3{fill:#FFFFFF;} .st4{fill:#959596;} .st5{fill:#898989;} .st6{fill:#EFEFEF;} .st7{fill:#3F2D23;} .st8{opacity:0.37;fill:#FFFFFF;enable-background:new ;} .st9{fill:#F5F5F9;} .st10{fill:#9D6449;} .st11{fill:#6DA429;} .st12{fill:#5F932F;} .st13{fill:#6B9B26;} .st14{fill:#83B042;} .st15{fill:#A9A1A5;} .st16{fill:#702137;} .st17{fill:#7D2636;} .st18{fill:#772436;} .st19{fill:#915740;} .st20{fill:#6D5F5F;} .st21{fill:none;stroke:#000000;stroke-miterlimit:10;} .st22{fill:none;stroke:#000000;stroke-width:0.7;stroke-miterlimit:10;} .st23{fill:#E6E7E8;} .st24{fill:#BCBEC0;} .st25{fill:#F1F2F2;} .st26{fill:#D1D3D4;} .st27{fill:#00B0B0;} .st28{fill:#5C6266;} .st29{fill:#454B4F;} .st30{fill:#EFB35B;} .st31{fill:#FECB65;} .st32{fill:#EF766A;} .st33{fill:#FD8B77;} .st34{fill:#F5F5F5;} .st35{fill:#029E96;} .st36{fill:#2D2D2D;} .st37{fill:#231F20;} .st38{fill:#CECECE;} .st39{fill:#DBDBDB;} .st40{fill:#F4F4F4;} .st41{fill:#E7E7E7;} .st42{fill:#303030;} .st43{fill:#C63E2C;} .st44{fill:#DC4A30;} .st45{fill:#1F3E51;} .st46{fill:#35586D;} .st47{fill:#E5E1DC;} .st48{fill:#FCFCFC;} .st49{fill:none;stroke:#59636C;stroke-miterlimit:10;} .st50{fill:#59636C;} .st51{fill:#7A7B82;} .st52{fill:#424242;} .st53{fill:#6E8386;} .st54{fill:#414141;} .st55{fill:#565656;} .st56{fill:#282324;} .st57{fill:#4C4C4C;} .st58{fill:#E4E4E4;} .st59{fill:#929292;} .st60{fill:#C2C2C2;} .st61{fill:#5D5D5D;} .st62{fill:#A4A5A4;} .st63{fill:#F7F7F7;} .st64{opacity:0.6;enable-background:new ;}</style><path class="st0" d="M0 0h1878v1881.7h-1878v-1881.7z"/><path class="st1" d="M773.1 1041.7v-44.8h7.9l14.4 44.8h-22.3z"/><title>banner</title><path class="st2" d="M611.6 87.4v793.3c0 10.9-8.9 19.7-19.8 19.8h-516c-10.9 0-19.7-8.9-19.8-19.8v-793.3c0-10.9 8.9-19.7 19.8-19.8h516.1c10.9.1 19.7 8.9 19.7 19.8z"/><path class="st3" d="M299.6 441c5.5 8.2 13.2 12.8 23.5 12.2s17.2-6.3 21.6-15.2c1.1.3 2.3.9 3.3 1.1 5.2 1.9 10.1 4.6 14.5 8 2.2 1.4 4.2 3 6.1 4.8 2 1.7 3.6 3.7 4.8 6 1 2 1.4 4.2 1.3 6.4-.2 2.5-.8 4.9-1.8 7.1-.7 1.7-1.4 3.4-2 5.1-.8 2.8-1 5.7-.7 8.5.3 2.5 1 4.8 2 7.1.7 1.8 1.4 3.4 2 5.3.4 1.6.6 3.3.4 5-.2 1.9-.8 3.7-1.8 5.3-1.5 2.3-3.4 4.4-5.5 6.1-8 6.9-17.5 11.9-27.7 14.6-3.6 1.1-7.2 1.8-10.9 2.1-3.1.3-6.3.4-9.4.1-4.7-.2-9.3-1.3-13.6-3.3-5.7-2.6-10.4-6.9-13.5-12.4-1.8-3.2-2.9-6.7-3.3-10.4-.3-3.3.1-6.6 1.1-9.7l2.4-6.4 1-3.3c.3-1.6.2-3.3-.3-4.8-.7-2-1.4-4-2.3-6-.8-2-1.5-4-2-6.1-.5-2.3-.6-4.7-.4-7.1.2-3.7 1.2-7.2 2.8-10.5 1.8-3.9 4.7-7.3 8.2-9.7 0 .3.2.3.2.1zm-39 20.8c.8-.1 1.6-.1 2.4 0 5.8.2 11.4 2.4 15.8 6.3 2.9 2.4 5.2 5.5 6.5 9 1 2.3 1.4 4.9 1.3 7.4 0 .1 0 .3-.2.3h-.1c-3.8.3-7.5-.4-10.9-2-7.4-3.3-12.1-9.1-14.5-16.6-.4-1.2-.6-2.5-.7-3.8.4-.4.4-.5.4-.6z"/><path class="st4" d="M1092.5 234.1v145.9h-331.2v-145.9c0-81.8 74.2-148.2 165.6-148.2s165.6 66.4 165.6 148.2z"/><path class="st5" d="M1091.4 434.7h-332.8c-9.9 0-18-8.1-18-18v-90.2c0-9.9 8.1-18 18-18h332.8c9.9 0 18 8.1 18 18v90.2c0 9.9-8.1 17.9-18 18z"/><path class="st3" d="M1249.8 1640.2c17.2 0 34.5-.3 52 0 13.5.3 27 .9 40.2 5 10.5 3.3 19.5 8.2 25.7 17.6 4.1 6.4 5.8 13.5 6.8 20.9 1.5 13.8 1.6 27.7.4 41.5-.9 8.7-2.1 17.2-7.3 24.7-5.4 8.1-13.5 13.1-22.5 16.3-9.2 3.2-18.7 5-28.4 5.4-31 1.7-62 .7-92.8.9-11.8 0-23.6 0-35.4-.4-12.7-.4-25.2-2.1-37-7-16.2-6.5-24.9-18.6-26.6-36-1.6-15.2-1.6-30.5 0-45.6 1.1-9.4 3.7-18.1 10.2-25.2 6.1-6.8 13.8-10.5 22.3-13.1 9.8-3 20-4.5 30.3-4.5 20.8-.4 41.5-.4 62-.7.1-.1.1.2.1.2z"/><path class="st6" d="M1330.1 1697.2c1.3 1.7 2.8 2.8 5 2.6 2-.1 3.8-1.4 4.5-3.3l.7.3c1.1.5 2.1 1.1 3.1 1.7.5.3.9.7 1.3 1.1l1.1 1.3c.2.4.3.8.3 1.3-.1.5-.2 1.1-.4 1.6l-.4 1.1c-.2.5-.3 1.1-.3 1.7.1.5.2 1.1.4 1.6l.4 1.1c.1.4.1.8 0 1.1-.1.4-.2.8-.4 1.1-.3.5-.7.9-1.1 1.3-1.7 1.5-3.7 2.6-5.8 3.1-.8.3-1.6.4-2.4.4h-2c-1 0-2-.2-2.8-.7-1.1-.6-2.1-1.5-2.8-2.6-.4-.6-.6-1.4-.7-2.1 0-.7.1-1.4.3-2 .3-.4.4-.8.4-1.3l.3-.7v-1.1l-.4-1.3-.4-1.3c-.3-.5-.3-1.1 0-1.6 0-.8.2-1.5.7-2.1.1-.9.6-1.7 1.4-2.3zm-8.2 4.4h.4c1.2 0 2.4.4 3.3 1.3.7.4 1.2 1.2 1.3 2 .2.5.3 1 .3 1.6-.8.1-1.7-.1-2.4-.4-1.5-.7-2.6-2-3.1-3.6.3-.1.5-.4.3-.7-.1-.1-.1-.2-.1-.2z"/><path class="st7" d="M714.6 1482.5c1.8 5.7-4.4 10-5.3 10.4-.1 0-.1.1-.1.1l-71.7 66.3c-1.4 1.3-2.2 3.2-2.3 5.1v133.1c.1 1.9.9 3.8 2.3 5.1l71.7 66.3.1.1c.9.6 7.1 5 5.3 10.4-2 6-8.2 12.2-15.1 4.5-5.8-6.5-49-45.2-62.7-57.6-1-.9-2.6-.8-3.5.2-.4.5-.6 1-.6 1.6v30.9c0 .6-.4 1.1-1 1.2-.3 0-.6-.1-.8-.3l-15.1-12.8c-.2-.2-.3-.5-.3-.9v-231.2c0-.3.1-.6.3-.9l15.1-12.8c.4-.4 1.1-.4 1.5 0 .2.2.3.5.3.8v30.9c0 1.4 1 2.5 2.4 2.5.6 0 1.3-.2 1.7-.7 13.6-12.1 57-51 62.7-57.6 6.8-6.9 13.1-.7 15.1 5.3zM601.1 1706.1c0-12.3 1.4-24.6 4.1-36.7l5.8-27.2c1.8-9.2 1-18.2-.7-27.3-2.3-10.9-4.5-21.6-6.3-32.6-2.5-14.4-3-29.1-1.4-43.6 1.7-15.5 3.7-31.1 5.7-46.6.1-2 .7-2.6 2.7-2.6l14.2-.3c2 0 2.4.3 2.7 2.4.3 2.3 1.7 3.6 3.4 4.8 2.8 1.8 6.3 2.3 9.7 2.8 9.5 1.7 19.3 3.4 28.7 6.5 9.7 3.3 17.8 8.8 22.7 18.1 2.8 5.5 4.5 11.5 5.1 17.6 1.1 9.7.9 19.6-.7 29.3-2.6 14.4-10 25.4-22.2 33.3-9.7 6.3-20.5 10.4-31.4 14.2-2.1.6-4.1 1.5-6 2.6-5.5 3.2-7.3 10.3-4.1 15.8.6 1 1.4 1.9 2.2 2.7 2.6 2.4 5.7 3.7 8.8 5.1 7 2.8 14.2 5.7 21 8.8 9.4 4.5 17.6 10.9 23.3 19.8 4.3 6.9 7.1 14.7 8.2 22.7 1.6 10.2 1.7 20.3-1 30.4-2.3 8.2-5.7 15.6-11.8 21.6-4.2 4-9.2 6.9-14.8 8.5-11 3-22.2 5.5-33.4 7.4-4.4.7-7.5 2.8-8.8 7.1-.2 1.2-1.4 2-2.6 1.8-4.8 0-9.5-.1-14.4-.3-2.6-.1-3.4-1.1-3.6-3.7-1.4-14.4-2.7-28.7-4-43.1-.5-6.2-1-12.7-1.1-19.3zm5.7.2v9.2c.1 5.9.8 11.8 2 17.6 2.4 9.7 8.2 16.3 18.1 18.9 4.3 1 8.6 1.7 12.9 2 8.6.8 17.2-.1 25.4-2.4 15.2-4.5 24.5-14.5 27.2-30.1 1-7 1.1-14.1.1-21-1.6-14.5-7.5-26.4-19.1-35.4-11.4-8.8-24.7-12.8-39-13.9-6.7-.6-11.9 2.3-16.2 7.5-3.6 4.8-6.2 10.2-7.8 15.9-2.9 10.2-4.1 21-3.6 31.7zm.3-144.5c0 7.1.7 14.1 2 21 1 6.3 3.3 12.3 6.5 17.8 4.4 7 10.8 10.5 19.1 10.1 10.2-.7 20.2-3.3 29.6-7.5 13.6-6.5 23-17.1 26.7-32 2.7-11.1 2.9-22.6.7-33.8-2.6-13.5-10.4-22-23.7-25.6-5.6-1.5-11.3-2.4-17.1-2.7-7.1-.6-14.2-1-21.3.1-7.8 1.1-13.9 5.1-17.2 12.5-1.5 3.3-2.6 6.8-3.4 10.4-1.8 8.8-1.9 18.2-1.9 29.7z"/><path class="st8" d="M606.8 1706.3c-.4-10.9 1-21.7 4-32.1 1.6-5.8 4.2-11.2 7.8-15.9 4.1-5.1 9.4-8 16.2-7.5 14.2 1.1 27.4 5.1 39 13.9 11.4 8.8 17.6 21 19.1 35.4.9 7 .8 14.1-.1 21-2.7 15.6-11.9 25.6-27.2 30.3-8.3 2.4-16.9 3.2-25.4 2.4-4.4-.2-8.7-.9-12.9-2-10-2.6-15.6-9.2-18.1-18.9-1.3-5.8-2-11.7-2-17.6-.4-3.1-.5-6.1-.4-9zm.3-144.5c0-11.7.1-20.8 2-30 .8-3.6 1.9-7 3.4-10.4 3.4-7.4 9.4-11.2 17.2-12.5 7.1-1 14.2-.6 21.3-.1 5.8.3 11.5 1.2 17.1 2.7 13.1 3.7 21.2 12.2 23.7 25.6 2.3 11.2 2 22.7-.7 33.8-3.7 15.1-13.1 25.4-26.7 32-9.3 4.3-19.3 6.9-29.6 7.5-8.4.7-14.6-2.8-19.1-10.1-3.4-5.4-5.3-11.4-6.5-17.8-1.4-6.8-2.1-13.7-2.1-20.7z"/><path class="st2" d="M617.5 1768.7s-5-5.3 0-9.7c0 0 3.1 5 0 9.7zm0-266.9s-5-5.3 0-9.7c1.8 3 1.8 6.8 0 9.7z"/><ellipse class="st3" cx="230.7" cy="1178.3" rx="187.2" ry="188.4"/><ellipse class="st9" cx="230.7" cy="1178.3" rx="173.3" ry="174.4"/><ellipse class="st10" cx="230.7" cy="1178.3" rx="170.3" ry="171.5"/><path class="st11" d="M149.4 990.8s34.7 2.8 36.1 26l-13.9 85.7-30.3-38.2s-19-49.8 8.1-73.5zm-109.7 242.5s-.4-24.7 26.6-39.1l48.1 26.9-24.9 33.8c-19.2 1.2-37.7-6.8-49.8-21.6zm10.6-140.7s10.4-3.7 15.4-4.8 20-10.1 45.2 3.7l51.9 33.6 9.1 22.2s-40.1-9.1-48.9-11.1c-8.7-2-64.1 1.3-72.7-43.6z"/><path class="st12" d="M338.1 1273.4s12.4 18.8 35.7 7.8l10-6.3 1-15.6s1.8-17.1-22.2-35l-104.2-35.5 15.1 26.9 64.6 57.7z"/><path class="st13" d="M361.4 1125.6s22.2-3.4 22.2-29l-1.4-11.7-13.8-7.4s-14.8-8.8-41.1 5.3c-26.3 14.2-76.3 79.3-76.3 79.3l30.7-2.1 79.7-34.4z"/><path class="st12" d="M364.9 1195.6s18.3 12.8 36.1-5.8l7-9.4-4.8-14.9s-4.7-16.6-33.6-24.3c-28.9-7.8-109.9 5.1-109.9 5.1l23.9 19.3 81.3 30zm-88.5-151.4s10.8-35.7-9-52l-10-6.3-14.6 5.8s-20.8 12.1-26.6 41.5l-1 102.9 35.8-25 25.4-66.9z"/><path class="st14" d="M314.3 1158s53.5-7.3 79.9 17.8c0 0 14.4 15.1 13.6 28.6 0 0-11.4 27.3-51.9 21-40.5-6.4-88.4-35.7-88.4-35.7l-32.7-12.1 79.5-19.6z"/><path class="st11" d="M144.4 1297.6s-3.3 36.1 14.8 43.1c0 0 31.6 1.1 38.8-29l9.8-90.6-63.4 76.5zm79.1 33.7s15.4 32.8 34.5 29.7c0 0 27.7-15.1 18.6-44.8l-37.8-82.9-15.3 98z"/><path class="st13" d="M89.4 1134.4s-42.7 5.1-45.2 24.2c0 0 6.1 30.9 37.2 31 31 .1 90.4-11.4 90.4-11.4l-82.4-43.8z"/><path class="st14" d="M123.5 1207.7s-42.2 12.2-40.1 53.2v12.2s17.8 5.3 31 2.7c13.2-2.7 43.8-18.6 43.8-18.6l22.9-71.7-57.6 22.2z"/><path class="st12" d="M193.9 1169.2l-37.7-3.3s-42.7-.4-71.4 8.8l-29.4 34.8s19.6 21.8 40.5 13.9c21-7.8 100.2-38 100.2-38l-2.2-16.2zm-100.5-126.1c11.7-3 24-1.6 34.7 4 17.8 9.4 47.6 36.7 61.6 73.4l20 43.1-28.9-12.7s-30.6-11.9-58.1-40.5c-.3.1-46.6-34.5-29.3-67.3z"/><path class="st14" d="M83.5 1126.3s9.7-3.3 13.9-4.4c4.4-1.1 18.2-9.1 41.1 3.3l47.1 30.6 8.2 20.2s-36.5-8.2-44.5-10.1-58.2 1.3-65.8-39.6z"/><path class="st12" d="M259.6 1305.3s.4 22.3 25.9 25.7h11.8l9.2-12.8s10.7-13.4 0-41.5c-10.7-28-68.8-85.9-68.8-85.9l-1.8 30.7 23.7 83.8zm-51.9-79.9s-11.7 16.2-17.9 32-7.8 42.7-47.9 50.2h-10.7l-3-9.2s-12.4-30.6 21.3-54.9l50.5-53.9 13.9 1.4-6.2 34.4z"/><path class="st11" d="M186 1185.7l-29.9 18.6s-19.1 8.2-22 20l-3 16.9s7 7.8 12.4 8.8c5.4 1.1 12.9 4.4 25.3-13.4 12.4-17.9 38.5-42.5 38.5-42.5l-21.3-8.4z"/><path class="st14" d="M203 1226.5s-10.7 25-12.9 46.5c0 0-15.8 42.2 2.1 58.1l10.7 9.7 16.2-7.8s32.3-16.2 16.8-52.2c-15.6-36.1 0-1.8 0-1.8l-3.1-60.6-29.8 8.1z"/><path class="st13" d="M236.7 1195.9s15.4 34 22.9 45.8c7.4 11.9 40.7 52.2 9.7 76.5 0 0-36.3-.3-39.9-61.1l-12.9-58 20.2-3.2z"/><path class="st14" d="M236 1194.6s-.1 11.4 15.2 23.6c15.4 12.1 28.1 39.9 29.1 42.5 1 2.4 15.8 42.2 61.1 39.1 0 0 16.3-31.1-8-58.1l-62.7-41.1-34.7-6zm-69-189.7s9 3 12.9 4.7 35.5 16.2 33.8 63.1c-1.7 46.9 5.8 69.4-3 97.5 0 0-26.2-39.5-40.5-79.5 0 0-22.7-46.6-10.7-72.8l7.5-13z"/><path class="st11" d="M207.7 1194.1c-8.4 9-11.6 21.8-8.4 33.7 0 0 6.3 12.1 17.1 8s11.9-7.4 11.9-13.2l-14.1-31.6-6.5 3.1z"/><path class="st13" d="M207.7 1177.2s-12.9-8.2-20.3 5.8 2.4 18.8 6.3 21c3.8 2.1 11.9-16.1 11.9-16.1l2.1-10.7z"/><path class="st11" d="M212.3 1167.6s-14.1-22.6-33.1-18.6c0 0-7.4 6.3-1.3 18.6 6.1 12.1 29.9 9.7 29.9 9.7l4.5-9.7z"/><path class="st14" d="M254.9 1099.1s14.4-47.1 30.6-58.9 30.6-16.6 45.2-13.2c0 0 25.7 19.1-2.7 55.6l-92.3 86.7-16.6-11.2 35.8-59z"/><path class="st13" d="M209.6 1168.3s4.7-37.2 4.4-50.5c-.1-13.2-4.7-33.6 12.8-43.1 0 0 6.3-4.4 20.8-2.7 0 0 17.8 14.4 10.7 36.5 0 0-2.1 7.8-13.2 23.2l-19.9 55.4-17.2 2.1 1.6-20.9z"/><path class="st11" d="M229.2 1160.2s36.7-15.9 53-24c11.7-5.8 42.2-32.8 68.1-23.9 25.7 8.8 23.2 8.4 23.2 8.4s-4.4 31.6-32.8 37.1l-104.9 22.6-6.6-20.2z"/><path class="st13" d="M232.9 1175.7s20.6 4 30.6 4.8c10 .7 25.3-3 32.3 21 0 0-8.4 18.3-33.8 9.7-25.3-8.8-38.7-19.1-38.7-19.1l9.6-16.4z"/><path class="st14" d="M215 1182.8s6.4 17.6-9.4 16.2c-15.9-1.4 2.3-26.1 9.4-16.2z"/><path class="st12" d="M222.2 1177.6s-4.7-10-14.4-11.4c-9.8-1.4-10.9 8.4-10.9 8.4s4 11.1 25.3 3zm-4.1 3s19.6-2.3 13.6 22c0 0-3 7-13.6 4.8 0 0-9.5-13.9 0-26.8z"/><path class="st14" d="M216.2 1167.2s6.3 15.6 14.4 16.1c0 0 6.3 6.8 7-2.8s-4.4-23.6-18.3-22.3c-.1-.2-6 3.5-3.1 9z"/><path class="st15" d="M112.9 360.7l-2.8 2"/><path class="st16" d="M1587.5 71.9v4h-55.9v-38.4h21.8l34.1 34.4z"/><path class="st17" d="M1531.5 37.5v38.4h-55.9l-.1-3.8 34.5-34.5 21.5-.1z"/><path class="st18" d="M1475.5 75.3h34.8v39h-34.8v-39zm77 .6h34.8v39h-34.8v-39zm262.6 788.5v3.7c-.1 31.5-25.6 57-57.2 57.2h-455.9c-31.5-.1-57-25.6-57.2-57.2v-3.7h570.3z"/><path class="st17" d="M1815.1 260v604.4h-570.1v-604.4c.1-31.5 25.6-57 57.2-57.2h455.8c31.3.1 57.1 26 57.1 57.2z"/><path class="st16" d="M1391.9 664.2h282.6v200.2h-282.6v-200.2zm391.8-190.9h-507.3c-21.9-.1-39.6-17.8-39.7-39.7v-287.3c.1-21.9 17.8-39.6 39.7-39.7h507.3c21.9.1 39.6 17.8 39.7 39.7v287.3c-.3 21.8-17.9 39.7-39.7 39.7z"/><path class="st10" d="M1353.9 106.6v818.6h53.2v-818.6h-53.2zm347.2 0v818.6h-53.3v-818.6h53.3z"/><path class="st19" d="M1407.1 106.6v476.4l-26.6 24.2-26.4-24.2v-476.4h53zm294 0v476.4l-26.6 24.2-26.6-24.2v-476.4h53.2z"/><path class="st20" d="M1409.5 543.4h-58.1c-3.3-.1-6-2.8-6.1-6.1v-52.5c.1-3.3 2.8-6 6.1-6.1h58.1c3.3.1 6 2.8 6.1 6.1v52.5c.1 3.3-2.4 6-5.7 6.1h-.4z"/><path class="st19" d="M1402.8 537.3h-44.6c-3.3-.1-6-2.8-6.1-6.1v-40.1c.1-3.3 2.8-6 6.1-6.1h44.6c3.3.1 6 2.8 6.1 6.1v40.1c0 3.3-2.7 6-6.1 6.1z"/><path class="st20" d="M1703.5 543.4h-58.1c-3.3-.1-6-2.8-6.1-6.1v-52.5c.1-3.3 2.8-6 6.1-6.1h58.1c3.3.1 6 2.8 6.1 6.1v52.5c0 3.3-2.7 6-6.1 6.1z"/><path class="st19" d="M1696.8 537.3h-44.6c-3.3-.1-6-2.8-6.1-6.1v-40.1c.1-3.3 2.8-6 6.1-6.1h44.6c3.3.1 6 2.8 6.1 6.1v40.1c.1 3.3-2.6 6-6.1 6.1z"/><path class="st3" d="M1457.7 721.2h145.7v88.7h-145.7v-88.7z"/><path class="st21" d="M1466 727.8h129.4v75.3h-129.4v-75.3z"/><path class="st22" d="M1486.9 777h87.4m-87.4-20.4h87.4"/><path class="st23" d="M944 1263.1v20.6c.1.9-.6 1.8-1.6 1.8h-17.5v-24.3h17.2c1 0 1.8.9 1.9 1.9z"/><path class="st24" d="M924.9 1261.2v24.3h-17.8c-.9.1-1.8-.6-1.8-1.6v-20.900000000000002c-.1-.9.6-1.8 1.6-1.8h18z"/><path class="st25" d="M928.5 1367.6c0 1.7-1.2 3.2-2.8 3.6v-41.9c2.2-.3 3.9-2.3 3.8-4.5-.1-2.5-2.1-4.5-4.5-4.5h-.3v-34.5h14.3l4.7 39.1-17.9 39.5c1.6.1 2.7 1.5 2.7 3.2z"/><path class="st26" d="M920.5 1324.5c.1 2.1 1.4 3.8 3.4 4.4v41.9c-1.6-.4-2.7-1.8-2.7-3.4 0-1.4.9-2.7 2.1-3.3l-17.6-39.7 4.5-39.1h14.5v34.5c-2.3.3-4.2 2.3-4.2 4.7z"/><path class="st27" d="M936.1 1261.2h-11.4v-290.6c.4.1 2.8 1 4.4 5.7 1.6 5.3 27.4 164.9 7 284.9z"/><path class="st28" d="M772.1 997.1l1.6-23 7.4 23h-9zM795.3 1324.2v25.9h-21.6v-25.9h21.6z"/><path class="st29" d="M773.7 1324.2v25.9h-21.8v-25.9h21.8z"/><path class="st30" d="M773.7 1041.7v282.3h-21.8v-282.3h21.8z"/><path class="st31" d="M795.3 1041.7v282.3h-21.6v-282.3h21.6z"/><path class="st32" d="M754.8 1367.4v-17.2h18.9v20h-17.1c-1-.1-1.8-1.2-1.8-2.8z"/><path class="st33" d="M773.7 1370.1v-20h17.8v17.2c.1 1.3-.8 2.5-2.1 2.7h-15.6v.1z"/><path class="st34" d="M751.9 1041.7l13.8-44.8h8v44.8h-21.8z"/><path class="st35" d="M924.9 970.6v290.6h-12.5s-26.3-81.7 8.1-284.9c0 0 1-4.8 4.4-5.7z"/><path class="st36" d="M1133 1351.1v11.1c0 3.6-2.3 6.7-5.1 6.7h-35v-17.8h40.1z"/><path class="st37" d="M1092.9 1351.1v17.8h-34.8c-2.8 0-5.1-3-5.1-6.7v-11.1h39.9z"/><path class="st36" d="M1133 1067.5v9.8h-40.1v-9.8h40.1z"/><path class="st37" d="M1092.9 1067.5v9.8h-39.8v-9.8h39.8z"/><path class="st25" d="M1092.9 1077.4v5.3h-39.8v-5.3h39.8z"/><path class="st3" d="M1133 1077.4v5.3h-40.1v-5.3h40.1z"/><path class="st36" d="M1133 1082.8v263h-40.1v-263h40.1z"/><path class="st37" d="M1092.9 1082.8v263h-39.8v-263h39.8z"/><path class="st25" d="M1092.9 1345.7v5.3h-39.8v-5.3h39.8z"/><path class="st3" d="M1133 1345.7v5.3h-40.1v-5.3h40.1z"/><path class="st24" d="M1092.9 1016v51.6h-39.8l19.1-51.6h20.7z"/><path class="st26" d="M1133 1067.5h-40.1v-51.6h20.2l19.9 51.6z"/><path class="st38" d="M1092.9 994.4v21.6h-17.6v-21.6h17.6z"/><path class="st39" d="M1110.5 994.4v21.6h-17.6v-21.6h17.6z"/><path class="st36" d="M1107.1 967.4v27h-14.2v-21.9l14.2-5.1z"/><path class="st37" d="M1092.9 972.5v21.9h-14.2v-17.1l14.2-4.8z"/><path class="st3" d="M612.4 1002.5h-3.8c-.4-.5-.9-.9-1.6-1h-21.8c-.7-.1-1.3.4-1.6 1h-75.8c-10.4 0-18.8 8.4-18.8 18.7v23.5c-.7.3-1.1 1-1.1 1.7v10c0 .8.4 1.5 1.1 1.7v14.6c-.7.3-1.1 1-1.1 1.7v7.5c0 .8.4 1.5 1.1 1.7v13.6c-.7.3-1.1 1-1.1 1.7v7.5c0 .8.4 1.5 1.1 1.7v174.4c0 10.4 8.4 18.8 18.7 18.8h104.6c10.4 0 18.8-8.4 18.8-18.7v-261.4c0-10.2-8.3-18.5-18.7-18.7z"/><circle class="st40" cx="559.7" cy="1280.3" r="13.5"/><path class="st41" d="M570.1 1026.4h-20.6c-1.2 0-2.1 1-2.1 2.1 0 1.2 1 2.1 2.1 2.1h20.6c1.2 0 2.1-1 2.1-2.1s-1-2.1-2.1-2.1z"/><path class="st42" d="M500.8 1045.2h120.4v213.5h-120.4v-213.5z"/><path class="st3" d="M70.6 1812.9s-15.6-.6-16.2-16.2v-325s-1.6-22.7 16.2-24h436.7s22.2-1.6 21.2 17.6v327.3s1.7 18.8-15.4 20.3c-17.2 1.6-442.5 0-442.5 0z"/><path class="st42" d="M97.2 1776.3v-292.4h389.7v292.4h-389.7z"/><circle class="st40" cx="507.3" cy="1630.8" r="12.9"/><path class="st43" d="M1335.4 1475.3h4v.2h18.5v94.7h-.1c-12.3 0-22.3-9.9-22.3-22.2v-72.69999999999999h-.1z"/><path class="st44" d="M1375.9 1475.5v-.2h4v72.6c0 12.2-9.9 22.2-22.1 22.3v-94.7h18.1z"/><path class="st45" d="M1357.8 1475.5h-18.5v-6.3h18.5v6.3z"/><path class="st46" d="M1375.9 1475.5h-18.1v-6.3h18.1v6.3z"/><path class="st6" d="M1357.8 1447.8v21.5h15.2v-21.5h-15.2zm5.7 4.1h4.6v2.2h-4.6v-2.2z"/><path class="st47" d="M1342.6 1447.8v21.5h15.2v-21.5h-15.2zm5 4.1h4.6v2.2h-4.6v-2.2z"/><path class="st46" d="M1368.1 1453.9h-4.6v-2.2h4.6v2.2z"/><path class="st45" d="M1352.1 1453.9h-4.6v-2.2h4.6v2.2z"/><path class="st30" d="M1211.2 1475.3h4v.2h18.5v94.7h-.1c-12.3 0-22.3-9.9-22.3-22.2v-72.69999999999999h-.1z"/><path class="st31" d="M1251.9 1475.5v-.2h4v72.6c0 12.2-9.9 22.2-22.1 22.3v-94.7h18.1z"/><path class="st45" d="M1233.8 1475.5h-18.5v-6.3h18.5v6.3z"/><path class="st46" d="M1251.7 1475.5h-18.1v-6.3h18.1v6.3z"/><path class="st6" d="M1233.8 1447.8v21.5h15.2v-21.5h-15.2zm5.6 4.1h4.6v2.2h-4.6v-2.2z"/><path class="st47" d="M1218.6 1447.8v21.5h15.2v-21.5h-15.2zm4.8 6.2v-2.2h4.6v2.2h-4.6z"/><path class="st46" d="M1243.9 1453.9h-4.6v-2.2h4.6v2.2z"/><path class="st45" d="M1228 1453.9h-4.6v-2.2h4.6v2.2z"/><path class="st35" d="M1093.9 1475.3h4v.2h18.5v94.7h-.1c-12.3 0-22.3-9.9-22.3-22.2v-72.69999999999999h-.1z"/><path class="st27" d="M1134.4 1475.5v-.2h4v72.6c0 12.2-9.9 22.2-22.1 22.3v-94.7h18.1z"/><path class="st45" d="M1116.3 1475.5h-18.5v-6.3h18.5v6.3z"/><path class="st46" d="M1134.4 1475.5h-18.1v-6.3h18.1v6.3z"/><path class="st6" d="M1116.2 1447.8v21.5h15.2v-21.5h-15.2zm5.7 4.1h4.6v2.2h-4.6v-2.2z"/><path class="st47" d="M1101.1 1447.8v21.5h15.2v-21.5h-15.2zm5 4.1h4.6v2.2h-4.6v-2.2z"/><path class="st46" d="M1126.6 1453.9h-4.6v-2.2h4.6v2.2z"/><path class="st45" d="M1110.7 1453.9h-4.6v-2.2h4.6v2.2z"/><path class="st48" d="M895.7 1532.6v-61.4c0-3.6 2.9-6.5 6.5-6.5h20.9c3.6 0 6.5 2.9 6.5 6.5v61.4c0 3.6-2.9 6.5-6.5 6.5h-20.9c-3.6 0-6.5-2.9-6.5-6.5z"/><circle class="st3" cx="916" cy="1656.6" r="128.9"/><circle class="st19" cx="916" cy="1656.6" r="100.4"/><path class="st10" d="M816.3 1669.3c-.6-4.2-.9-8.4-.9-12.7 0-55.5 45-100.4 100.5-100.4 55.4 0 100.4 45 100.4 100.4 0 4.2-.3 8.5-.9 12.7-6.9-55-57.1-94-112.1-87.1-45.4 5.7-81.2 41.6-87 87.1z"/><path class="st44" d="M1528.8 1791.3v53.7l-9.2-8.5-9.4 8.5v-53.7h18.6z"/><path class="st48" d="M1798.5 1795.2h-305c-4.5 0-8.1-3.6-8.1-8.1v-408.5c0-4.5 3.6-8.1 8.1-8.1h305c4.5 0 8.1 3.6 8.1 8.1v408.6c-.1 4.4-3.7 8-8.1 8z"/><path class="st27" d="M1793.8 1791.3h-305c-4.5 0-8.1-3.6-8.1-8.1v-408.5c0-4.5 3.6-8.1 8.1-8.1h305c4.5 0 8.1 3.6 8.1 8.1v408.6c0 4.4-3.6 8-8 8h-.1z"/><path class="st35" d="M1504.8 1366.7h28.4v424.7h-28.4v-424.7z"/><path class="st31" d="M1285.6 1043.3c-6.6 0-12-4.8-12-10.9v-.3h-26.4v44.9h567.4v-45h-516.9v.3c0 6-5.3 11-12.1 11z"/><path class="st30" d="M1794.9 1001.3h-5.7v-14.3h-19.2v28.5h-5.7v-28.5h-18.9v14.3h-5.7v-14.3h-19.3v28.5h-5.7v-28.5h-17.7v14.3h-5.7v-14.3h-19.3v28.5h-5.7v-28.5h-18.9v14.3h-5.7v-14.3h-19.3v28.5h-5.7v-28.5h-18.9v14.3h-5.7v-14.3h-19.3v28.5h-5.7v-28.5h-18.9v14.3h-5.7v-14.3h-19.3v28.5h-5.7v-28.5h-18.8v14.3h-5.7v-14.3h-19.3v28.5h-5.7v-28.5h-19.1v14.3h-5.7v-14.3h-19.3v28.5h-5.7v-28.5h-18.8v14.3h-5.7v-14.3h-19.3v28.5h-5.7v-28.5h-18.9v14.3h-5.7v-14.3h-19.3v28.5h-5.7v-28.5h-71.9v45h26.2c.2-5.8 5.5-10.5 12-10.5s11.7 4.7 12 10.5h517.3v-45h-20l.2 14.3z"/><path class="st49" d="M1789.3 1001.3v-14.3h5.7v14.3h-5.7zm-25.2 14.1v-28.5h5.7v28.5h-5.7zm-24.4-14.1v-14.3h5.7v14.3h-5.7zm-25.2 14.1v-28.5h5.7v28.5h-5.7zm-23.2-14.1v-14.3h5.7v14.3h-5.7zm-24.9 14.1v-28.5h5.7v28.5h-5.7zm-24.6-14.1v-14.3h5.7v14.3h-5.7zm-25.2 14.1v-28.5h5.7v28.5h-5.7zm-24.4-14.1v-14.3h5.7v14.3h-5.7zm-25 14.1v-28.5h5.7v28.5h-5.7zm-24.6-14.1v-14.3h5.7v14.3h-5.7zm-25 14.1v-28.5h5.7v28.5h-5.7zm-24.4-14.1v-14.3h5.7v14.3h-5.7zm-25.2 14.1v-28.5h5.7v28.5h-5.7zm-24.6-14.1v-14.3h5.7v14.3h-5.7zm-24.9 14.1v-28.5h5.7v28.5h-5.7zm-24.5-14.1v-14.3h5.7v14.3h-5.7zm-24.9 14.1v-28.5h5.7v28.5h-5.7zm-24.7-14.1v-14.3h5.7v14.3h-5.7zm-24.9 14.1v-28.5h5.7v28.5h-5.7z"/><path class="st50" d="M1319.5 1015.4v-28.5h5.7v28.5h-5.7zm24.9-14.1v-14.3h5.7v14.3h-5.7zm24.7 14.1v-28.5h5.7v28.5h-5.7zm24.9-14.1v-14.3h5.7v14.3h-5.7zm24.5 14.1v-28.5h5.7v28.5h-5.7zm24.9-14.1v-14.3h5.7v14.3h-5.7zm24.6 14.1v-28.5h5.7v28.5h-5.7zm25.2-14.1v-14.3h5.7v14.3h-5.7zm24.4 14.1v-28.5h5.7v28.5h-5.7zm25-14.1v-14.3h5.7v14.3h-5.7zm24.6 14.1v-28.5h5.7v28.5h-5.7zm25-14.1v-14.3h5.7v14.3h-5.7zm24.4 14.1v-28.5h5.7v28.5h-5.7zm25.2-14.1v-14.3h5.7v14.3h-5.7zm24.6 14.1v-28.5h5.7v28.5h-5.7zm24.9-14.1v-14.3h5.7v14.3h-5.7zm23.2 14.1v-28.5h5.7v28.5h-5.7zm25.2-14.1v-14.3h5.7v14.3h-5.7zm24.4 14.1v-28.5h5.7v28.5h-5.7zm25.2-14.1v-14.3h5.7v14.3h-5.7z"/><path class="st51" d="M703.9 620.9v87.5h-16v-87.5h16zm18.6 132.9v41.6h-12.9v-41.6h12.9z"/><path class="st52" d="M898.5 577.9l-15.5 8.5v-28.9s-7.4-27.3-37.5-25.4l-79.3-13.3-20.5-.8s-18.9 4-24 26.1l-1.4 56.9s-19.4 8.1-20.3 23.3v83s.8 22.5 26.8 24.8l137.8 76.8-.5-30.3 16-37.2 18.5 10.1v-173.6z"/><path d="M1019.5 578.2l-1.9 176.4-25 4v-185.2l26.9 4.8z"/><path class="st31" d="M1009.2 576.3v179.8l-5.1.9v-182l5.1 1.3z"/><path class="st52" d="M1138.3 558.5v3.7l-16.9 11.9 38.2 8.7s11.9 2 14.6 13.8c0 0 6.5 71.5 0 128.3 0 0-.5 11.6-10.7 16.3-10.1 4.7-45.3 12.3-45.3 12.3l20.8 16.3-.8 4.5-65.6-4.2-20.2-15.8v-176.1l20.6-16.8 64.8-3.9"/><path class="st44" d="M1073.2 561.4v208.7l2.9.2v-208.9h-2.9z"/><path class="st52" d="M1046.3 578.2v176.4h-29.3v-176.4h29.3z"/><path d="M1052.7 578.2v176.4h-7.9v-176.4h7.9z"/><path class="st53" d="M1043.5 578.2v3.1h-25.4v-3.1h25.4zm0 7.4v3.1h-25.4v-3.1h25.4zm0 6.9v3.1h-25.4v-3.1h25.4zm0 7.4v3.1h-25.4v-3.1h25.4zm0 7.9v3.1h-25.4v-3.1h25.4zm0 7.5v3.1h-25.4v-3.1h25.4zm0 6.8v3.1h-25.4v-3.1h25.4zm0 7.4v3.1h-25.4v-3.1h25.4zm0 7.7v3.1h-25.4v-3.1h25.4zm0 7.4v3.1h-25.4v-3.1h25.4zm0 7v3.1h-25.4v-3.1h25.4zm0 7.4v3.1h-25.4v-3.1h25.4zm0 7.2v3.1h-25.4v-3.1h25.4zm0 7.4v3.1h-25.4v-3.1h25.4zm0 6.8v3.1h-25.4v-3.1h25.4zm0 7.5v3.1h-25.4v-3.1h25.4zm0 7.1v3.1h-25.4v-3.1h25.4zm0 7.5v3.1h-25.4v-3.1h25.4zm0 6.8v3.1h-25.4v-3.1h25.4zm0 7.4v3.1h-25.4v-3.1h25.4zm0 6.7v3.1h-25.4v-3.1h25.4zm0 7.5v3.1h-25.4v-3.1h25.4zm0 6.8v3.1h-25.4v-3.1h25.4zm0 7.4v3.1h-25.4v-3.1h25.4zm0 6.9v2.6h-25.4v-2.6h25.4z"/><path class="st54" d="M906.8 748.9v-166.8c0-8.6 7-15.5 15.5-15.5h58c8.6 0 15.5 7 15.5 15.5v166.8c0 8.6-7 15.5-15.5 15.5h-58c-8.5-.1-15.4-7-15.5-15.5z"/><path d="M906.8 577.9v173.6h-8.4v-173.6h8.4z"/><path class="st55" d="M982.1 566.6v5.7h-48.1v-5.7h48.1zm0 12.7v5.7h-48.1v-5.7h48.1zm0 13.2v5.7h-48.1v-5.7h48.1zm0 12.5v5.7h-48.1v-5.7h48.1zm0 12.6v5.7h-48.1v-5.7h48.1zm0 12.6v5.7h-48.1v-5.7h48.1zm0 13.2v5.7h-48.1v-5.7h48.1zm0 12.7v5.7h-48.1v-5.7h48.1zm0 12.2v5.7h-48.1v-5.7h48.1zm0 12.6v5.7h-48.1v-5.7h48.1zm0 13.2v5.7h-48.1v-5.7h48.1zm0 12.7v5.7h-48.1v-5.7h48.1zm0 13.4v5.7h-48.1v-5.7h48.1zm0 12.7v5.7h-48.1v-5.7h48.1zm0 13.2v5.7h-48.1v-5.7h48.1zm0 12.5v5.7h-48.1v-5.7h48.1z"/><path class="st53" d="M925.3 578.2v37.1h-9.6v-37.1h9.6zm0 139v37.1h-9.6v-37.1h9.6zm0-70.3v37.1h-9.6v-37.1h9.6z"/><path class="st56" d="M823.7 518.3s21.3 1.9 24.8 23.3v56.6s31.3-4.8 37.5 25.1v78.3s3.4 26.7-29.2 31.2h-23.7s-16.8 9.5-2.3 46.4c0 0 14 18.9 46.2 30.3s16.6 50.7-3.9 62.1c0 0-60.8 50-136.4 14.7 0 0-24.2-14.7-8.4-35.5l.2-37.9s-7 2.3-8.4-6.5v-65.2l2.9-5.4v-35.8h93.1s45.6-14.1 60.7-38.9c0 0-21.1-30.9-56-37.2h-96.2s1.6-16.3 20.8-23.1v-58.8s3.1-23 25.4-23.6c22.3-.7 52.9-.1 52.9-.1z"/><path d="M836.4 569.7c0-22.9-18.5-41.4-41.4-41.4s-41.4 18.5-41.4 41.4 18.5 41.4 41.4 41.4 41.4-18.5 41.4-41.4zm-78.5 0c0-20.5 16.6-37.1 37.1-37.1s37.1 16.6 37.1 37.1-16.6 37.1-37.1 37.1c-20.5-.1-37.1-16.7-37.1-37.1z"/><path class="st57" d="M799.2 595.1v8.2h-6.2v-8.2h6.2z"/><circle class="st57" cx="793.6" cy="570.4" r="14.1"/><path class="st58" d="M729.4 666.5c-2.1 0-4-1.3-4.8-3.3h-17.4v-3.9h17.2c.9-2.7 3.9-4.1 6.5-3.1 2 .7 3.4 2.7 3.4 4.8 0 2.8-2.1 5.5-4.9 5.5zm-22.2-32.1v17.5h35.4v18.9h-35.4v17.7h43.4v-54.1h-43.4zm35.5 75.8v15.7h-6.8v-15.7h6.8z"/><path class="st59" d="M796.1 755.4v112.2h-45.3v-112.2h45.3z"/><path class="st60" d="M744.6 866.6v8.5h-8.6v-8.5h8.6zm67.5-102.2v22.6h-9.6v-22.7h9.6zm0 29.3v23.6h-9.6v-23.6h9.6zm0 29.9v23h-9.6v-23h9.6z"/><path d="M834.2 811.5v15.8h-7.4v-15.8h7.4zm0 23.6v16.9h-6.5v-16.9h6.5zm0 24.7v18.2h-6.5v-18.2h6.5z"/><circle cx="865.4" cy="838.2" r="15.7"/><circle class="st60" cx="739.6" cy="849.2" r="4.7"/><circle class="st60" cx="806.3" cy="866.8" r="5"/><path class="st3" d="M1244 1250.9h553.5v50h-553.5zM1388 1204.9v46.1h-144c0-.1 1.3-55.5 144-46.1z"/><path class="st61" d="M1676.5 1182c8.5 4.1 17.4 7 26.7 8.5 48 7.6 74.7-36 74.7-36s32.2 30.9 19.7 96.4h-409.6v-46.1s181.4-57.4 222.7-74.7"/><path class="st3" d="M1676.5 1182c-36.6-17.2-65.7-51.9-65.7-51.9s11.7-19.3 22.6-25.4c-.1.1 44.3 34 43.1 77.3z"/><circle class="st62" cx="1408.8" cy="1221.2" r="10.2"/><circle class="st62" cx="1446.7" cy="1208.9" r="10.2"/><circle class="st62" cx="1484.7" cy="1198.7" r="10.2"/><circle class="st62" cx="1520.8" cy="1186" r="10.2"/><circle class="st62" cx="1555.9" cy="1175.8" r="10.2"/><circle class="st62" cx="1588.4" cy="1160.7" r="10.2"/><path d="M1436.5 1274.2h361v4h-361z"/><path class="st63" d="M1244 1250.9h192.5v50h-192.5z"/><path d="M1244 1250.8h553.5v4h-553.5z"/><path class="st6" d="M1393.3 1200.4l3.6-2.1c1.9-1.1 4.4-.5 5.5 1.5l10.9 18.9c1.1 1.9.5 4.4-1.5 5.5l-3.6 2.1c-1.9 1.1-4.4.5-5.5-1.5l-10.9-18.9c-1.1-2-.5-4.4 1.5-5.5zM1431.4 1188.5l3.6-2.1c1.9-1.1 4.4-.5 5.5 1.5l10.9 18.9c1.1 1.9.5 4.4-1.5 5.5l-3.6 2.1c-1.9 1.1-4.4.5-5.5-1.5l-10.9-18.9c-1-1.9-.4-4.3 1.5-5.5zM1468.3 1176l3.6-2.1c1.9-1.1 4.4-.5 5.5 1.5l12.4 21.6c1.1 1.9.5 4.4-1.5 5.5l-3.6 2.1c-1.9 1.1-4.4.5-5.5-1.5l-12.4-21.6c-1.1-1.9-.5-4.4 1.5-5.5zM1504.3 1162.7l3.6-2.1c1.9-1.1 4.4-.5 5.5 1.5l13.1 22.6c1.1 1.9.5 4.4-1.5 5.5l-3.6 2.1c-1.9 1.1-4.4.5-5.5-1.5l-13.1-22.6c-1.1-1.9-.4-4.4 1.5-5.5zM1538.5 1151.8l3.6-2.1c1.9-1.1 4.4-.5 5.5 1.5l13.1 22.6c1.1 1.9.5 4.4-1.5 5.5l-3.6 2.1c-1.9 1.1-4.4.5-5.5-1.5l-13.1-22.6c-1.1-1.9-.4-4.4 1.5-5.5zM1572.3 1137.7l3.6-2.1c1.9-1.1 4.4-.5 5.5 1.5l13.1 22.6c1.1 1.9.5 4.4-1.5 5.5l-3.6 2.1c-1.9 1.1-4.4.5-5.5-1.5l-13.1-22.6c-1.1-1.9-.5-4.4 1.5-5.5z"/><path class="st29" d="M765.7 996.9l7.5-24.3.4 1.6v22.9l-7.9-.2z"/><path class="st64" d="M-12-12.7h1911.9v1918h-1911.9z"/></svg>