<?xml version="1.0" encoding="utf-8"?>
<!-- Generator: Adobe Illustrator 19.2.1, SVG Export Plug-In . SVG Version: 6.00 Build 0)  -->
<svg version="1.1" id="Layer_1" xmlns="http://www.w3.org/2000/svg" xmlns:xlink="http://www.w3.org/1999/xlink" x="0px" y="0px"
	 viewBox="0 0 1292 1323.6" style="enable-background:new 0 0 1292 1323.6;" xml:space="preserve">
<style type="text/css">
	.st0{fill:#ACB8BF;}
	.st1{fill:#D8D8D8;}
	.st2{fill:#FFFFFF;}
	.st3{fill:#959596;}
	.st4{fill:#898989;}
	.st5{fill:#EFEFEF;}
	.st6{fill:#3F2D23;}
	.st7{opacity:0.37;fill:#FFFFFF;enable-background:new    ;}
	.st8{fill:#F5F5F9;}
	.st9{fill:#9D6449;}
	.st10{fill:#6DA429;}
	.st11{fill:#5F932F;}
	.st12{fill:#6B9B26;}
	.st13{fill:#83B042;}
	.st14{fill:#A9A1A5;}
	.st15{fill:#702137;}
	.st16{fill:#7D2636;}
	.st17{fill:#772436;}
	.st18{fill:#915740;}
	.st19{fill:#6D5F5F;}
	.st20{fill:none;stroke:#000000;stroke-miterlimit:10;}
	.st21{fill:none;stroke:#000000;stroke-width:0.7;stroke-miterlimit:10;}
	.st22{fill:#454B4F;}
	.st23{fill:#5C6266;}
	.st24{fill:#EFB35B;}
	.st25{fill:#FECB65;}
	.st26{fill:#EF766A;}
	.st27{fill:#FD8B77;}
	.st28{fill:#FFFEFD;}
	.st29{fill:#F5F5F5;}
	.st30{fill:#E6E7E8;}
	.st31{fill:#BCBEC0;}
	.st32{fill:#F1F2F2;}
	.st33{fill:#D1D3D4;}
	.st34{fill:#00B0B0;}
	.st35{fill:#029E96;}
	.st36{fill:#2D2D2D;}
	.st37{fill:#231F20;}
	.st38{fill:#CECECE;}
	.st39{fill:#DBDBDB;}
	.st40{fill:#F4F4F4;}
	.st41{fill:#E7E7E7;}
	.st42{fill:#303030;}
	.st43{fill:#C63E2C;}
	.st44{fill:#DC4A30;}
	.st45{fill:#1F3E51;}
	.st46{fill:#35586D;}
	.st47{fill:#E5E1DC;}
	.st48{fill:#FCFCFC;}
	.st49{fill:none;stroke:#59636C;stroke-miterlimit:10;}
	.st50{fill:#59636C;}
	.st51{fill:#7A7B82;}
	.st52{fill:#424242;}
	.st53{fill:#6E8386;}
	.st54{fill:#414141;}
	.st55{fill:#565656;}
	.st56{fill:#282324;}
	.st57{fill:#4C4C4C;}
	.st58{fill:#E4E4E4;}
	.st59{fill:#929292;}
	.st60{fill:#C2C2C2;}
	.st61{opacity:0.6;}
</style>
<path class="st0" d="M0,0h1292v1323.6H0V0z"/>
<g>
	<path class="st1" d="M430.2,61.5v558c0,7.7-6.3,13.9-13.9,13.9h-363c-7.7,0-13.9-6.3-13.9-13.9v-558c0-7.7,6.3-13.9,13.9-13.9h363
		C423.9,47.6,430.2,53.8,430.2,61.5z"/>
	<g>
		<path class="st2" d="M210.7,310.2c3.9,5.8,9.3,9,16.5,8.6s12.1-4.4,15.2-10.7c0.8,0.2,1.6,0.6,2.3,0.8c3.6,1.4,7.1,3.2,10.2,5.6
			c1.5,1,3,2.1,4.3,3.4c1.4,1.3,2.6,2.6,3.4,4.2c0.7,1.4,1,3,0.9,4.5c-0.1,1.7-0.6,3.4-1.3,5c-0.5,1.2-1,2.3-1.4,3.6
			c-0.6,2-0.7,3.9-0.5,6c0.2,1.7,0.7,3.4,1.4,5c0.5,1.3,1,2.4,1.4,3.7c0.2,1.2,0.5,2.3,0.3,3.5c-0.1,1.4-0.6,2.6-1.3,3.7
			c-1,1.6-2.4,3-3.9,4.3c-5.8,4.9-12.2,8.3-19.5,10.3c-2.6,0.7-5.1,1.3-7.7,1.5c-2.2,0.2-4.4,0.3-6.6,0.1c-3.4-0.2-6.6-0.9-9.6-2.3
			c-4.1-1.9-7.3-4.8-9.5-8.7c-1.3-2.3-2.1-4.8-2.3-7.3c-0.2-2.3,0-4.6,0.8-6.8l1.7-4.5l0.7-2.3c0.3-1.2,0.1-2.2-0.2-3.4
			c-0.5-1.4-1-2.8-1.6-4.2s-1-2.8-1.4-4.3c-0.3-1.6-0.5-3.2-0.3-5c0.2-2.6,0.8-5.1,2-7.4c1.4-2.8,3.2-5.1,5.8-6.8
			C210.6,310.3,210.7,310.3,210.7,310.2L210.7,310.2z M183.3,324.8c0.6,0,1.2-0.1,1.7,0c4.3,0.1,7.9,1.7,11.1,4.4
			c2.1,1.7,3.6,3.8,4.6,6.3c0.7,1.7,1,3.5,0.9,5.2c0,0.2-0.1,0.2-0.2,0.2c-2.7,0.2-5.2-0.2-7.7-1.4c-5.2-2.3-8.5-6.4-10.2-11.7
			c-0.2-0.8-0.5-1.7-0.5-2.7C183.3,325,183.3,324.9,183.3,324.8L183.3,324.8z"/>
	</g>
</g>
<g>
	<path class="st3" d="M738.9,146.5v97.3h-221v-97.3c0-54.6,49.5-98.9,110.5-98.9S738.9,91.9,738.9,146.5z"/>
	<path class="st4" d="M738.2,280.3H516.1c-6.6,0-12-5.4-12-12v-60.2c0-6.6,5.4-12,12-12h222.1c6.6,0,12,5.4,12,12v60.2
		C750.2,274.9,744.8,280.3,738.2,280.3z"/>
</g>
<g>
	<path class="st2" d="M1140.5,747.8c12.1,0,24.3-0.2,36.6,0c9.5,0.2,19,0.6,28.3,3.5c7.4,2.3,13.7,5.8,18.1,12.4
		c2.9,4.5,4.1,9.5,4.8,14.7c1.1,9.7,1.1,19.5,0.3,29.2c-0.6,6.1-1.5,12.1-5.1,17.4c-3.8,5.7-9.5,9.2-15.8,11.5
		c-6.5,2.3-13.1,3.5-20,3.8c-21.8,1.2-43.6,0.5-65.3,0.6c-8.3,0-16.6,0-24.9-0.3c-8.9-0.3-17.7-1.5-26-4.9
		c-11.4-4.6-17.5-13.1-18.7-25.3c-1.1-10.8-1.1-21.5,0-32.1c0.8-6.6,2.6-12.7,7.2-17.7c4.3-4.8,9.7-7.4,15.7-9.2
		c6.9-2.2,14.1-3.1,21.3-3.2c14.6-0.3,29.2-0.3,43.6-0.5C1140.5,747.6,1140.5,747.8,1140.5,747.8L1140.5,747.8z"/>
	<g>
		<path class="st5" d="M1197,787.9c0.9,1.2,2,2,3.5,1.8c1.5-0.2,2.6-0.9,3.2-2.3l0.5,0.2c0.8,0.3,1.5,0.8,2.2,1.2
			c0.3,0.2,0.6,0.5,0.9,0.8l0.8,0.9c0.2,0.3,0.2,0.6,0.2,0.9c0,0.3-0.2,0.8-0.3,1.1l-0.3,0.8c-0.2,0.5-0.2,0.8-0.2,1.2
			c0,0.3,0.2,0.8,0.3,1.1l0.3,0.8c0,0.3,0.2,0.5,0,0.8c0,0.3-0.2,0.6-0.3,0.8c-0.2,0.3-0.5,0.6-0.8,0.9c-1.2,1.1-2.6,1.8-4.1,2.2
			c-0.6,0.2-1.1,0.3-1.7,0.3h-1.4c-0.8,0-1.4-0.2-2-0.5c-0.9-0.5-1.5-1.1-2-1.8c-0.3-0.5-0.5-1.1-0.5-1.5c0-0.5,0-0.9,0.2-1.4
			c0.2-0.3,0.3-0.6,0.3-0.9l0.2-0.5v-0.8l-0.3-0.9l-0.3-0.9c-0.2-0.3-0.2-0.8,0-1.1c0-0.6,0.2-1.1,0.5-1.5
			C1196.1,788.8,1196.5,788.3,1197,787.9L1197,787.9z M1191.2,791h0.3c0.9,0,1.7,0.3,2.3,0.9c0.5,0.3,0.8,0.8,0.9,1.4
			c0.2,0.3,0.2,0.8,0.2,1.1c-0.6,0-1.1,0-1.7-0.3c-1.1-0.5-1.8-1.4-2.2-2.5C1191.3,791.4,1191.3,791.3,1191.2,791L1191.2,791z"/>
	</g>
</g>
<g>
	<path class="st6" d="M557.7,1043.9c1.3,4-3.1,7-3.7,7.3c0,0-0.1,0-0.1,0.1l-50.4,46.6c-1,1-1.6,2.2-1.6,3.6v93.6
		c0,1.3,0.6,2.6,1.6,3.6l50.4,46.6l0.1,0.1c0.6,0.4,5,3.5,3.7,7.3c-1.4,4.2-5.8,8.6-10.6,3.2c-4.1-4.6-34.5-31.8-44.1-40.5
		c-1.1-1-2.9-0.2-2.9,1.3v21.7c0,0.7-0.8,1.1-1.3,0.6l-10.6-9c-0.2-0.1-0.2-0.4-0.2-0.6v-162.6c0-0.2,0.1-0.5,0.2-0.6l10.6-9
		c0.5-0.5,1.3-0.1,1.3,0.6v21.7c0,1.6,1.8,2.3,2.9,1.3c9.6-8.5,40.1-35.9,44.1-40.5C551.9,1035.3,556.3,1039.7,557.7,1043.9
		L557.7,1043.9z"/>
	<g>
		<path class="st6" d="M477.9,1201.2c0.1-10.3,1.2-18.1,2.9-25.8l4.1-19.1c1.3-6.5,0.7-12.8-0.5-19.2c-1.6-7.7-3.2-15.2-4.4-22.9
			c-1.7-10.2-2.2-20.4-1-30.7c1.2-10.9,2.6-21.9,4-32.8c0.1-1.4,0.5-1.8,1.9-1.8l10-0.2c1.4,0,1.7,0.2,1.9,1.7
			c0.2,1.6,1.2,2.5,2.4,3.4c2,1.3,4.4,1.6,6.8,2c6.7,1.2,13.6,2.4,20.2,4.6c6.8,2.3,12.5,6.2,16,12.7c2,3.8,3.1,8,3.6,12.4
			c0.7,6.8,0.7,13.8-0.5,20.6c-1.8,10.1-7,17.9-15.6,23.4c-6.8,4.4-14.4,7.3-22.1,10c-1.4,0.5-2.9,1-4.2,1.8
			c-4.7,2.8-5.4,9.4-1.3,13c1.8,1.7,4,2.6,6.2,3.6c4.9,2,10,4,14.8,6.2c6.6,3.2,12.4,7.7,16.4,13.9c3.1,4.9,4.9,10.2,5.8,16
			c1.1,7.2,1.2,14.3-0.7,21.4c-1.6,5.8-4,11-8.3,15.2c-2.9,2.9-6.5,4.8-10.4,6c-7.7,2.2-15.6,3.8-23.5,5.2c-3.1,0.5-5.3,2-6.2,5
			c-0.2,1-1,1.3-1.8,1.3c-3.4,0-6.7-0.1-10.1-0.2c-1.8-0.1-2.4-0.8-2.5-2.6c-1-10.1-1.9-20.2-2.8-30.3
			C478.1,1209.6,478,1204.1,477.9,1201.2L477.9,1201.2z M481.9,1201.3v6.5c0.1,4.2,0.5,8.3,1.4,12.4c1.7,6.8,5.8,11.5,12.7,13.3
			c3,0.7,6.1,1.2,9.1,1.4c6,0.5,12.1,0,17.9-1.7c10.7-3.2,17.2-10.2,19.1-21.2c0.8-4.9,0.7-9.8,0.1-14.8
			c-1.1-10.2-5.3-18.6-13.4-24.9c-8-6.2-17.4-9-27.4-9.8c-4.7-0.4-8.4,1.6-11.4,5.3c-2.6,3.4-4.3,7.2-5.5,11.2
			C482.4,1186.1,481.6,1193.6,481.9,1201.3L481.9,1201.3z M482.1,1099.7c0,4,0.4,9.4,1.4,14.8c0.8,4.4,2.2,8.6,4.6,12.5
			c3.1,4.9,7.6,7.4,13.4,7.1c7.2-0.6,14.2-2.2,20.8-5.3c9.6-4.6,16.2-12,18.8-22.5c1.9-7.9,2-15.8,0.5-23.8
			c-1.8-9.5-7.3-15.5-16.7-18c-4-1.1-7.9-1.7-12-1.9c-5-0.4-10-0.7-15,0.1c-5.5,0.8-9.8,3.6-12.1,8.8c-1.1,2.3-1.8,4.8-2.4,7.3
			C482.2,1085,482.1,1091.6,482.1,1099.7L482.1,1099.7z"/>
		<path class="st7" d="M481.9,1201.3c-0.2-7.7,0.6-15.2,2.8-22.6c1.2-4.1,2.9-7.9,5.5-11.2c2.9-3.6,6.6-5.6,11.4-5.3
			c10,0.8,19.3,3.6,27.4,9.8c8,6.2,12.4,14.8,13.4,24.9c0.5,4.9,0.7,9.8-0.1,14.8c-1.9,11-8.4,18-19.1,21.3
			c-5.9,1.8-11.9,2.2-17.9,1.7c-3.1-0.2-6.1-0.6-9.1-1.4c-7-1.8-11-6.5-12.7-13.3c-1-4.1-1.3-8.2-1.4-12.4
			C481.8,1205.6,481.9,1203.5,481.9,1201.3L481.9,1201.3z M482.1,1099.7c0-8.2,0.1-14.6,1.4-21.1c0.6-2.5,1.3-5,2.4-7.3
			c2.4-5.2,6.6-7.9,12.1-8.8c5-0.7,10-0.4,15-0.1c4.1,0.2,8,0.8,12,1.9c9.2,2.6,14.9,8.6,16.7,18c1.6,7.9,1.4,16-0.5,23.8
			c-2.6,10.6-9.2,17.9-18.8,22.5c-6.5,3.1-13.6,4.8-20.8,5.3c-5.9,0.5-10.3-2-13.4-7.1c-2.4-3.8-3.7-8-4.6-12.5
			C482.5,1109.1,482.1,1103.6,482.1,1099.7z"/>
	</g>
	<path class="st1" d="M489.4,1245.2c0,0-3.5-3.7,0-6.8C489.4,1238.4,491.6,1241.9,489.4,1245.2z M489.4,1057.5c0,0-3.5-3.7,0-6.8
		C489.4,1050.6,491.6,1054,489.4,1057.5z"/>
</g>
<g>
	<ellipse class="st2" cx="162.3" cy="828.8" rx="131.7" ry="132.5"/>
	<ellipse class="st8" cx="162.3" cy="828.8" rx="121.9" ry="122.7"/>
	<ellipse class="st9" cx="162.3" cy="828.8" rx="119.8" ry="120.6"/>
	<path class="st10" d="M105.1,696.9c0,0,24.4,2,25.4,18.3l-9.8,60.3l-21.3-26.9C99.4,748.6,86,713.6,105.1,696.9L105.1,696.9z
		 M27.9,867.5c0,0-0.3-17.4,18.7-27.5c19-10.1,33.8,18.9,33.8,18.9l-17.5,23.8C62.9,882.6,42.7,885.3,27.9,867.5z M35.4,768.5
		c0,0,7.3-2.6,10.8-3.4c3.5-0.8,14.1-7.1,31.8,2.6c17.7,9.7,36.5,23.6,36.5,23.6l6.4,15.6c0,0-28.2-6.4-34.4-7.8
		C80.4,797.8,41.4,800.1,35.4,768.5L35.4,768.5z"/>
	<path class="st11" d="M237.8,895.7c0,0,8.7,13.2,25.1,5.5l7-4.4l0.7-11c0,0,1.3-12-15.6-24.6l-73.3-25l10.6,18.9L237.8,895.7
		L237.8,895.7z"/>
	<path class="st12" d="M254.2,791.7c0,0,15.6-2.4,15.6-20.4l-1-8.2l-9.7-5.2c0,0-10.4-6.2-28.9,3.7c-18.5,10-53.7,55.8-53.7,55.8
		l21.6-1.5L254.2,791.7z"/>
	<path class="st11" d="M256.7,841c0,0,12.9,9,25.4-4.1l4.9-6.6l-3.4-10.5c0,0-3.3-11.7-23.6-17.1c-20.3-5.5-77.3,3.6-77.3,3.6
		l16.8,13.6L256.7,841z M194.4,734.5c0,0,7.6-25.1-6.3-36.6l-7-4.4l-10.3,4.1c0,0-14.6,8.5-18.7,29.2l-0.7,72.4l25.2-17.6
		L194.4,734.5L194.4,734.5z"/>
	<path class="st13" d="M221.1,814.5c0,0,37.6-5.1,56.2,12.5c0,0,10.1,10.6,9.6,20.1c0,0-8,19.2-36.5,14.8
		c-28.5-4.5-62.2-25.1-62.2-25.1l-23-8.5L221.1,814.5L221.1,814.5z"/>
	<path class="st10" d="M101.6,912.7c0,0-2.3,25.4,10.4,30.3c0,0,22.2,0.8,27.3-20.4c5.1-21.2,6.9-63.7,6.9-63.7L101.6,912.7
		L101.6,912.7z M157.2,936.4c0,0,10.8,23.1,24.3,20.9c0,0,19.5-10.6,13.1-31.5L168,867.5L157.2,936.4L157.2,936.4z"/>
	<path class="st12" d="M62.9,797.9c0,0-30,3.6-31.8,17c0,0,4.3,21.7,26.2,21.8c21.8,0.1,63.6-8,63.6-8L62.9,797.9L62.9,797.9z"/>
	<path class="st13" d="M86.9,849.5c0,0-29.7,8.6-28.2,37.4v8.6c0,0,12.5,3.7,21.8,1.9c9.3-1.9,30.8-13.1,30.8-13.1l16.1-50.4
		L86.9,849.5L86.9,849.5z"/>
	<path class="st11" d="M136.4,822.4l-26.5-2.3c0,0-30-0.3-50.2,6.2S39,850.8,39,850.8s13.8,15.3,28.5,9.8
		c14.8-5.5,70.5-26.7,70.5-26.7L136.4,822.4z M65.7,733.7c0,0,11.9-3.8,24.4,2.8c12.5,6.6,33.5,25.8,43.3,51.6l14.1,30.3l-20.3-8.9
		c0,0-21.5-8.4-40.9-28.5C86.1,781.1,53.5,756.8,65.7,733.7z"/>
	<path class="st13" d="M58.7,792.2c0,0,6.8-2.3,9.8-3.1c3.1-0.8,12.8-6.4,28.9,2.3l33.1,21.5l5.8,14.2c0,0-25.7-5.8-31.3-7.1
		S64.1,821,58.7,792.2z"/>
	<path class="st11" d="M182.6,918.1c0,0,0.3,15.7,18.2,18.1h8.3l6.5-9c0,0,7.5-9.4,0-29.2c-7.5-19.7-48.4-60.4-48.4-60.4l-1.3,21.6
		L182.6,918.1L182.6,918.1z M146.1,861.9c0,0-8.2,11.4-12.6,22.5c-4.4,11.1-5.5,30-33.7,35.3h-7.5l-2.1-6.5c0,0-8.7-21.5,15-38.6
		s35.5-37.9,35.5-37.9l9.8,1L146.1,861.9L146.1,861.9z"/>
	<path class="st10" d="M130.8,834l-21,13.1c0,0-13.4,5.8-15.5,14.1s-2.1,11.9-2.1,11.9s4.9,5.5,8.7,6.2c3.8,0.8,9.1,3.1,17.8-9.4
		c8.7-12.6,27.1-29.9,27.1-29.9L130.8,834L130.8,834z"/>
	<path class="st13" d="M142.8,862.7c0,0-7.5,17.6-9.1,32.7c0,0-11.1,29.7,1.5,40.9l7.5,6.8l11.4-5.5c0,0,22.7-11.4,11.8-36.7
		c-11-25.4,0-1.3,0-1.3l-2.2-42.6L142.8,862.7L142.8,862.7z"/>
	<path class="st12" d="M166.5,841.2c0,0,10.8,23.9,16.1,32.2c5.2,8.4,28.6,36.7,6.8,53.8c0,0-25.5-0.2-28.1-43l-9.1-40.8
		L166.5,841.2L166.5,841.2z"/>
	<path class="st13" d="M166,840.3c0,0-0.1,8,10.7,16.6c10.8,8.5,19.8,28.1,20.5,29.9c0.7,1.7,11.1,29.7,43,27.5
		c0,0,11.5-21.9-5.6-40.9s-44.1-28.9-44.1-28.9L166,840.3L166,840.3z M117.5,706.8c0,0,6.3,2.1,9.1,3.3c2.8,1.2,25,11.4,23.8,44.4
		s4.1,48.8-2.1,68.6c0,0-18.4-27.8-28.5-55.9c0,0-16-32.8-7.5-51.2L117.5,706.8z"/>
	<path class="st10" d="M146.1,839.9c0,0-9.7,9.3-5.9,23.7c0,0,4.4,8.5,12,5.6c7.6-2.9,8.4-5.2,8.4-9.3l-9.9-22.2L146.1,839.9
		L146.1,839.9z"/>
	<path class="st12" d="M146.1,828c0,0-9.1-5.8-14.3,4.1c-5.2,9.9,1.7,13.2,4.4,14.8c2.7,1.5,8.4-11.3,8.4-11.3L146.1,828z"/>
	<path class="st10" d="M149.3,821.3c0,0-9.9-15.9-23.3-13.1c0,0-5.2,4.4-0.9,13.1c4.3,8.5,21,6.8,21,6.8L149.3,821.3z"/>
	<path class="st13" d="M179.3,773.1c0,0,10.1-33.1,21.5-41.4c11.4-8.3,21.5-11.7,31.8-9.3c0,0,18.1,13.4-1.9,39.1s-64.9,61-64.9,61
		l-11.7-7.9L179.3,773.1L179.3,773.1z"/>
	<path class="st12" d="M147.4,821.8c0,0,3.3-26.2,3.1-35.5c-0.1-9.3-3.3-23.6,9-30.3c0,0,4.4-3.1,14.6-1.9c0,0,12.5,10.1,7.5,25.7
		c0,0-1.5,5.5-9.3,16.3c-7.8,10.8-14,39-14,39l-12.1,1.5L147.4,821.8L147.4,821.8z"/>
	<path class="st10" d="M161.2,816.1c0,0,25.8-11.2,37.3-16.9c8.2-4.1,29.7-23.1,47.9-16.8c18.1,6.2,16.3,5.9,16.3,5.9
		s-3.1,22.2-23.1,26.1l-73.8,15.9L161.2,816.1z"/>
	<path class="st12" d="M163.8,827c0,0,14.5,2.8,21.5,3.4c7,0.5,17.8-2.1,22.7,14.8c0,0-5.9,12.9-23.8,6.8
		c-17.8-6.2-27.2-13.4-27.2-13.4L163.8,827z"/>
	<path class="st13" d="M151.2,832c0,0,4.5,12.4-6.6,11.4C133.4,842.4,146.2,825,151.2,832z"/>
	<path class="st11" d="M156.3,828.3c0,0-3.3-7-10.1-8c-6.9-1-7.7,5.9-7.7,5.9S141.3,834,156.3,828.3L156.3,828.3z M153.4,830.4
		c0,0,13.8-1.6,9.6,15.5c0,0-2.1,4.9-9.6,3.4C153.4,849.3,146.7,839.5,153.4,830.4L153.4,830.4z"/>
	<path class="st13" d="M152.1,821c0,0,4.4,11,10.1,11.3c0,0,4.4,4.8,4.9-2c0.5-6.8-3.1-16.6-12.9-15.7
		C154.2,814.5,150,817.1,152.1,821L152.1,821z"/>
</g>
<path class="st14" d="M79.4,248.3l-2,1.4"/>
<g>
	<path class="st15" d="M1087.1,50.6v2.8h-39.3v-27h15.3L1087.1,50.6z"/>
	<path class="st16" d="M1047.7,26.4v27h-39.3l-0.1-2.7l24.3-24.3L1047.7,26.4z"/>
	<path class="st17" d="M1008.3,53h24.5v27.4h-24.5V53z M1062.5,53.4h24.5v27.4h-24.5V53.4z M1247.2,608v2.6
		c0,22.1-18.1,40.2-40.2,40.2H886.3c-22.1,0-40.2-18.1-40.2-40.2V608H1247.2z"/>
	<path class="st16" d="M1247.2,182.9V608h-401V182.9c0-22.1,18.1-40.2,40.2-40.2H1207C1229,142.7,1247.2,160.9,1247.2,182.9
		L1247.2,182.9z"/>
	<path class="st15" d="M949.5,467.2h198.8V608H949.5L949.5,467.2z M1225.1,332.9H868.3c-15.3,0-27.9-12.6-27.9-27.9V102.9
		c0-15.3,12.6-27.9,27.9-27.9h356.8c15.3,0,27.9,12.6,27.9,27.9V305C1252.8,320.3,1240.4,332.9,1225.1,332.9z"/>
	<path class="st9" d="M922.8,75v575.8h37.4V75L922.8,75z M1167,75v575.8h-37.5V75L1167,75z"/>
	<path class="st18" d="M960.2,75v335.1l-18.7,17l-18.6-17V75L960.2,75z M1167,75v335.1l-18.7,17l-18.7-17V75L1167,75z"/>
	<path class="st19" d="M961.9,382.2H921c-2.3,0-4.3-2-4.3-4.3V341c0-2.3,2-4.3,4.3-4.3h40.9c2.3,0,4.3,2,4.3,4.3v36.9
		C966.4,380.2,964.4,382.2,961.9,382.2z"/>
	<path class="st18" d="M957.2,377.9h-31.4c-2.3,0-4.3-2-4.3-4.3v-28.2c0-2.3,2-4.3,4.3-4.3h31.4c2.3,0,4.3,2,4.3,4.3v28.2
		C961.5,375.9,959.6,377.9,957.2,377.9L957.2,377.9z"/>
	<path class="st19" d="M1168.7,382.2h-40.9c-2.3,0-4.3-2-4.3-4.3V341c0-2.3,2-4.3,4.3-4.3h40.9c2.3,0,4.3,2,4.3,4.3v36.9
		C1173,380.2,1171.1,382.2,1168.7,382.2z"/>
	<path class="st18" d="M1164,377.9h-31.4c-2.3,0-4.3-2-4.3-4.3v-28.2c0-2.3,2-4.3,4.3-4.3h31.4c2.3,0,4.3,2,4.3,4.3v28.2
		C1168.4,375.9,1166.4,377.9,1164,377.9z"/>
	<path class="st2" d="M995.8,507.3h102.5v62.4H995.8V507.3z"/>
	<path class="st20" d="M1001.6,511.9h91v53h-91V511.9z"/>
	<path class="st21" d="M1016.3,546.5h61.5 M1016.3,532.2h61.5"/>
</g>
<g>
	<path class="st22" d="M530.4,714.5l5.3-17.1l0.3,1.1v16.1L530.4,714.5z"/>
	<path class="st23" d="M536,714.5v-16.1l5.2,16.1H536z"/>
	<g>
		<path class="st23" d="M551.2,944.7v18.2H536v-18.2H551.2z"/>
		<path class="st22" d="M536,944.7v18.2h-15.3v-18.2H536z"/>
		<path class="st24" d="M536,746v198.6h-15.3V746H536z"/>
		<path class="st25" d="M551.2,746v198.6H536V746H551.2z"/>
		<path class="st26" d="M522.7,975.1V963H536v14.1h-12C523.3,977,522.7,976.2,522.7,975.1z"/>
		<path class="st27" d="M536,977v-14.1h12.5V975c0,1.1-0.7,1.9-1.5,1.9h-11V977z"/>
		<path class="st28" d="M536,746v-31.5h5.2l10.1,31.5H536z"/>
		<path class="st29" d="M520.7,746l9.7-31.5h5.6V746H520.7z"/>
		<path class="st30" d="M650.6,903.9v14.5c0,0.8-0.5,1.3-1.3,1.3h-12.1v-17.1h12.1C649.9,902.6,650.6,903.1,650.6,903.9z"/>
		<path class="st31" d="M637.2,902.6v17.1h-12.5c-0.8,0-1.3-0.5-1.3-1.3v-14.5c0-0.8,0.5-1.3,1.3-1.3H637.2z"/>
		<path class="st32" d="M639.7,977.4c0,1.2-0.9,2.3-2,2.5v-29.5c1.6-0.3,2.7-1.5,2.7-3.2c0-1.7-1.5-3.2-3.2-3.2H637v-24.3h10.1
			l3.3,27.5L637.8,975C639,975.3,639.7,976.2,639.7,977.4z"/>
		<path class="st33" d="M634.1,947.1c0,1.5,1.1,2.7,2.4,3.1v29.5c-1.1-0.3-1.9-1.3-1.9-2.4s0.7-1.9,1.5-2.3l-12.4-27.9l3.2-27.5
			h10.2v24.3C635.4,944,634.1,945.5,634.1,947.1z"/>
		<path class="st34" d="M645.1,902.6h-8V698.2c0.3,0.1,2,0.7,3.1,4C641.3,705.9,659.4,818.2,645.1,902.6z"/>
		<path class="st35" d="M637.2,698.2v204.4h-8.8c0,0-18.5-57.5,5.7-200.4C634.1,702.2,634.8,698.8,637.2,698.2z"/>
		<g>
			<path class="st36" d="M767.7,965.8v7.8c0,2.5-1.6,4.7-3.6,4.7h-24.6v-12.5H767.7z"/>
			<path class="st37" d="M739.5,965.8v12.5h-24.5c-2,0-3.6-2.1-3.6-4.7v-7.8H739.5z"/>
			<path class="st36" d="M767.7,766.3v6.9h-28.2v-6.9H767.7z"/>
			<path class="st37" d="M739.5,766.3v6.9h-28v-6.9H739.5z"/>
			<path class="st32" d="M739.5,773.3v3.7h-28v-3.7H739.5z"/>
			<path class="st2" d="M767.7,773.3v3.7h-28.2v-3.7H767.7z"/>
			<path class="st36" d="M767.7,777.1v185h-28.2v-185H767.7z"/>
			<path class="st37" d="M739.5,777.1v185h-28v-185H739.5z"/>
			<path class="st32" d="M739.5,962v3.7h-28V962H739.5z"/>
			<path class="st2" d="M767.7,962v3.7h-28.2V962H767.7z"/>
			<path class="st31" d="M739.5,730.1v36.3h-28l13.4-36.3H739.5z"/>
			<path class="st33" d="M767.7,766.3h-28.2v-36.3h14.2L767.7,766.3z"/>
			<path class="st38" d="M739.5,714.9v15.2h-12.4v-15.2H739.5z"/>
			<path class="st39" d="M751.9,714.9v15.2h-12.4v-15.2H751.9z"/>
			<path class="st36" d="M749.5,695.9v19h-10v-15.4L749.5,695.9z"/>
			<path class="st37" d="M739.5,699.5v15.4h-10v-12L739.5,699.5z"/>
		</g>
	</g>
</g>
<g>
	<path class="st2" d="M964.9,691.3h-2.7c-0.2-0.3-0.7-0.7-1.1-0.7h-15.3c-0.5,0-0.9,0.2-1.1,0.7h-53.3c-7.3,0-13.2,5.9-13.2,13.2
		V721c-0.5,0.2-0.8,0.7-0.8,1.2v7c0,0.6,0.3,1,0.8,1.2v10.3c-0.5,0.2-0.8,0.7-0.8,1.2v5.3c0,0.6,0.3,1,0.8,1.2v9.6
		c-0.5,0.2-0.8,0.7-0.8,1.2v5.3c0,0.6,0.3,1,0.8,1.2v122.7c0,7.3,5.9,13.2,13.2,13.2h73.6c7.3,0,13.2-5.9,13.2-13.2V704.5
		C978,697.3,972.2,691.3,964.9,691.3L964.9,691.3z"/>
	<circle class="st40" cx="927.8" cy="886.7" r="9.5"/>
	<path class="st41" d="M935.1,708.1h-14.5c-0.8,0-1.5,0.7-1.5,1.5s0.7,1.5,1.5,1.5h14.5c0.8,0,1.5-0.7,1.5-1.5
		S935.9,708.1,935.1,708.1z"/>
	<path class="st42" d="M886.4,721.3h84.7v150.2h-84.7V721.3z"/>
</g>
<g>
	<path class="st2" d="M80.9,1275.2c0,0-11-0.4-11.4-11.4v-228.6c0,0-1.1-16,11.4-16.9h307.2c0,0,15.6-1.1,14.9,12.4
		c-0.7,13.5,0,230.2,0,230.2s1.2,13.2-10.8,14.3C380.1,1276.3,80.9,1275.2,80.9,1275.2z"/>
	<path class="st42" d="M99.6,1249.4v-205.7h274.1v205.7H99.6z"/>
	<circle class="st40" cx="388.1" cy="1147.1" r="9.1"/>
</g>
<g>
	<path class="st43" d="M418.9,747h-60.2c-10.3,0-18.5-8.3-18.5-18.5v-0.1h78.5v15.3h0.2V747L418.9,747z"/>
	<path class="st44" d="M418.7,728.4h-78.5c0.1-10.1,8.4-18.3,18.5-18.3h60.2v3.3h-0.2V728.4z"/>
	<path class="st45" d="M423.9,728.4v15.3h-5.2v-15.3H423.9z"/>
	<path class="st46" d="M423.9,713.4v15h-5.2v-15H423.9z"/>
	<path class="st5" d="M441.7,715.8h-17.8v12.6h17.8V715.8z M436.5,723.7v-3.8h1.8v3.8H436.5z"/>
	<path class="st47" d="M441.7,728.4h-17.8V741h17.8V728.4z M436.5,736.9v-3.8h1.8v3.8H436.5z"/>
	<path class="st46" d="M438.4,719.9v3.8h-1.8v-3.8H438.4z"/>
	<path class="st45" d="M438.4,733.1v3.8h-1.8v-3.8H438.4z"/>
</g>
<g>
	<path class="st24" d="M418.9,849.9h-60.2c-10.3,0-18.5-8.3-18.5-18.5v-0.1h78.5v15.3h0.2V849.9L418.9,849.9z"/>
	<path class="st25" d="M418.7,831.2h-78.5c0.1-10.1,8.4-18.3,18.5-18.3h60.2v3.3h-0.2V831.2z"/>
	<path class="st45" d="M423.9,831.2v15.3h-5.2v-15.3H423.9z"/>
	<path class="st46" d="M423.9,816.3v15h-5.2v-15H423.9z"/>
	<path class="st5" d="M441.7,818.6h-17.8v12.6h17.8V818.6z M436.5,826.5v-3.8h1.8v3.8H436.5z"/>
	<path class="st47" d="M441.7,831.2h-17.8v12.6h17.8V831.2z M436.5,839.7V836h1.8v3.8H436.5z"/>
	<path class="st46" d="M438.4,822.8v3.8h-1.8v-3.8H438.4z"/>
	<path class="st45" d="M438.4,836v3.8h-1.8V836H438.4z"/>
</g>
<g>
	<path class="st35" d="M418.9,947.1h-60.2c-10.3,0-18.5-8.3-18.5-18.5v-0.1h78.5v15.3h0.2V947.1L418.9,947.1z"/>
	<path class="st34" d="M418.7,928.5h-78.5c0.1-10.1,8.4-18.3,18.5-18.3h60.2v3.3h-0.2V928.5z"/>
	<path class="st45" d="M423.9,928.5v15.3h-5.2v-15.3H423.9z"/>
	<path class="st46" d="M423.9,913.5v15h-5.2v-15H423.9z"/>
	<path class="st5" d="M441.7,916h-17.8v12.6h17.8V916z M436.5,923.9v-3.8h1.8v3.8H436.5z"/>
	<path class="st47" d="M441.7,928.5h-17.8v12.6h17.8V928.5z M436.5,937v-3.8h1.8v3.8H436.5z"/>
	<path class="st46" d="M438.4,920v3.8h-1.8V920H438.4z"/>
	<path class="st45" d="M438.4,933.2v3.8h-1.8v-3.8H438.4z"/>
</g>
<g>
	<path class="st48" d="M768.3,1125.8h43.2c2.6,0,4.6,2.1,4.6,4.6v14.7c0,2.6-2.1,4.6-4.6,4.6h-43.2c-2.6,0-4.6-2.1-4.6-4.6v-14.7
		C763.7,1127.9,765.8,1125.8,768.3,1125.8z"/>
	<circle class="st2" cx="681.1" cy="1140.1" r="90.7"/>
	<circle class="st18" cx="681.1" cy="1140.1" r="70.6"/>
	<path class="st9" d="M672.2,1070c2.9-0.4,5.9-0.6,8.9-0.6c39,0,70.6,31.6,70.6,70.6s-31.6,70.7-70.6,70.7c-3,0-6-0.2-8.9-0.6
		c34.8-4.4,61.8-34.1,61.8-70.1S707,1074.4,672.2,1070z"/>
</g>
<g>
	<path class="st44" d="M882.3,1250v37.8l-6.5-6l-6.6,6V1250H882.3z"/>
	<path class="st48" d="M1072,1252.7H857.5c-3.1,0-5.7-2.5-5.7-5.7V959.7c0-3.1,2.5-5.7,5.7-5.7H1072c3.1,0,5.7,2.5,5.7,5.7v287.4
		C1077.7,1250.2,1075.1,1252.7,1072,1252.7L1072,1252.7z"/>
	<path class="st34" d="M1068.7,1250H854.2c-3.1,0-5.7-2.5-5.7-5.7V957c0-3.1,2.5-5.7,5.7-5.7h214.5c3.1,0,5.7,2.5,5.7,5.7v287.4
		C1074.4,1247.5,1071.9,1250,1068.7,1250z"/>
	<path class="st35" d="M865.4,951.3h20V1250h-20V951.3z"/>
</g>
<g>
	<path class="st25" d="M1180.3,971.4c0-3.7,3-6.8,6.8-6.8h0.2v-14.9h-27.9v320.4h27.9V978.2h-0.2
		C1183.4,978.2,1180.3,975.2,1180.3,971.4z"/>
	<path class="st24" d="M1206.4,1259v-3.2h8.9v-10.9h-17.7v-3.2h17.7V1231h-8.9v-3.2h8.9v-10.9h-17.7v-3.2h17.7v-10h-8.9v-3.2h8.9
		v-10.9h-17.7v-3.2h17.7v-10.7h-8.9v-3.2h8.9v-10.9h-17.7v-3.2h17.7v-10.7h-8.9v-3.2h8.9v-10.9h-17.7v-3.2h17.7v-10.7h-8.9v-3.2h8.9
		v-10.9h-17.7v-3.2h17.7v-10.6h-8.9v-3.2h8.9v-10.9h-17.7v-3.2h17.7v-10.8h-8.9v-3.2h8.9v-10.9h-17.7v-3.2h17.7v-10.6h-8.9v-3.2h8.9
		v-10.9h-17.7v-3.2h17.7v-10.7h-8.9v-3.2h8.9v-10.9h-17.7v-3.2h17.7v-40.6h-28v14.8c3.6,0.1,6.5,3.1,6.5,6.8s-2.9,6.6-6.5,6.8v292.1
		h28v-11.3L1206.4,1259L1206.4,1259z"/>
	<path class="st49" d="M1206.4,1255.8h8.9v3.2h-8.9V1255.8z M1197.6,1241.6h17.7v3.2h-17.7V1241.6z M1206.4,1227.8h8.9v3.2h-8.9
		V1227.8z M1197.6,1213.6h17.7v3.2h-17.7V1213.6z M1206.4,1200.5h8.9v3.2h-8.9V1200.5z M1197.6,1186.4h17.7v3.2h-17.7V1186.4z
		 M1206.4,1172.5h8.9v3.2h-8.9V1172.5z M1197.6,1158.3h17.7v3.2h-17.7V1158.3z M1206.4,1144.5h8.9v3.2h-8.9V1144.5z M1197.6,1130.4
		h17.7v3.2h-17.7V1130.4z M1206.4,1116.5h8.9v3.2h-8.9V1116.5z M1197.6,1102.4h17.7v3.2h-17.7V1102.4z M1206.4,1088.6h8.9v3.2h-8.9
		V1088.6z M1197.6,1074.4h17.7v3.2h-17.7V1074.4z M1206.4,1060.5h8.9v3.2h-8.9V1060.5z M1197.6,1046.4h17.7v3.2h-17.7V1046.4z
		 M1206.4,1032.6h8.9v3.2h-8.9V1032.6z M1197.6,1018.5h17.7v3.2h-17.7V1018.5z M1206.4,1004.6h8.9v3.2h-8.9V1004.6z M1197.6,990.5
		h17.7v3.2h-17.7V990.5z"/>
	<path class="st50" d="M1197.6,990.5h17.7v3.2h-17.7V990.5z M1206.4,1004.6h8.9v3.2h-8.9V1004.6z M1197.6,1018.5h17.7v3.2h-17.7
		V1018.5z M1206.4,1032.6h8.9v3.2h-8.9V1032.6z M1197.6,1046.4h17.7v3.2h-17.7V1046.4z M1206.4,1060.5h8.9v3.2h-8.9V1060.5z
		 M1197.6,1074.4h17.7v3.2h-17.7V1074.4z M1206.4,1088.6h8.9v3.2h-8.9V1088.6z M1197.6,1102.4h17.7v3.2h-17.7V1102.4z
		 M1206.4,1116.5h8.9v3.2h-8.9V1116.5z M1197.6,1130.4h17.7v3.2h-17.7V1130.4z M1206.4,1144.5h8.9v3.2h-8.9V1144.5z M1197.6,1158.3
		h17.7v3.2h-17.7V1158.3z M1206.4,1172.5h8.9v3.2h-8.9V1172.5z M1197.6,1186.4h17.7v3.2h-17.7V1186.4z M1206.4,1200.5h8.9v3.2h-8.9
		V1200.5z M1197.6,1213.6h17.7v3.2h-17.7V1213.6z M1206.4,1227.8h8.9v3.2h-8.9V1227.8z M1197.6,1241.6h17.7v3.2h-17.7V1241.6z
		 M1206.4,1255.8h8.9v3.2h-8.9V1255.8z"/>
</g>
<g>
	<path class="st51" d="M590.7,627.3h56.4v10.3h-56.4V627.3z M676.4,615.3h26.8v8.3h-26.8V615.3z"/>
	<path class="st52" d="M563,501.9l5.5,10h-18.6c0,0-17.6,4.8-16.4,24.2l-8.6,51.1l-0.5,13.2c0,0,2.6,12.2,16.8,15.5l36.7,0.9
		c0,0,5.2,12.5,15,13.1h53.5c0,0,14.5-0.5,16-17.3l49.5-88.8l-19.5,0.3l-24-10.3l6.5-11.9H563z"/>
	<path d="M563.2,423.9l113.7,1.2l2.6,16.1H560.1L563.2,423.9z"/>
	<path class="st25" d="M562,430.5h115.9l0.6,3.3H561.2L562,430.5z"/>
	<path class="st52" d="M550.5,347.3h2.4l7.7,10.9l5.6-24.6c0,0,1.3-7.7,8.9-9.4c0,0,46.1-4.2,82.7,0c0,0,7.5,0.3,10.5,6.9
		c3,6.5,7.9,29.2,7.9,29.2l10.5-13.4l2.9,0.5l-2.7,42.3l-10.2,13H563.2l-10.8-13.3l-2.5-41.8"/>
	<path class="st44" d="M552.4,389.3h134.5l0.1-1.9H552.4V389.3z"/>
	<path class="st52" d="M563.2,406.6h113.7v18.9H563.2V406.6z"/>
	<path d="M563.2,402.5h113.7v5.1H563.2V402.5z"/>
	<path class="st53" d="M563.2,408.4h2v16.4h-2V408.4z M568,408.4h2v16.4h-2V408.4z M572.4,408.4h2v16.4h-2V408.4z M577.2,408.4h2
		v16.4h-2V408.4z M582.3,408.4h2v16.4h-2V408.4z M587.1,408.4h2v16.4h-2V408.4z M591.5,408.4h2v16.4h-2V408.4z M596.3,408.4h2v16.4
		h-2V408.4z M601.2,408.4h2v16.4h-2V408.4z M606,408.4h2v16.4h-2V408.4z M610.5,408.4h2v16.4h-2V408.4z M615.3,408.4h2v16.4h-2
		V408.4z M619.9,408.4h2v16.4h-2V408.4z M624.7,408.4h2v16.4h-2V408.4z M629.1,408.4h2v16.4h-2V408.4z M633.9,408.4h2v16.4h-2V408.4
		z M638.5,408.4h2v16.4h-2V408.4z M643.3,408.4h2v16.4h-2V408.4z M647.7,408.4h2v16.4h-2V408.4z M652.5,408.4h2v16.4h-2V408.4z
		 M656.8,408.4h2v16.4h-2V408.4z M661.6,408.4h2v16.4h-2V408.4z M666,408.4h2v16.4h-2V408.4z M670.8,408.4h2v16.4h-2V408.4z
		 M675.2,408.4h1.7v16.4h-1.7V408.4z"/>
	<path class="st54" d="M673.2,496.5H565.7c-5.5,0-10-4.5-10-10v-37.4c0-5.5,4.5-10,10-10h107.5c5.5,0,10,4.5,10,10v37.4
		C683.2,492,678.7,496.5,673.2,496.5z"/>
	<path d="M563,496.5h111.9v5.4H563V496.5z"/>
	<path class="st55" d="M555.7,448h3.7v31h-3.7V448z M563.9,448h3.7v31h-3.7V448z M572.4,448h3.7v31h-3.7V448z M580.5,448h3.7v31
		h-3.7V448z M588.6,448h3.7v31h-3.7V448z M596.7,448h3.7v31h-3.7V448z M605.2,448h3.7v31h-3.7V448z M613.4,448h3.7v31h-3.7V448z
		 M621.3,448h3.7v31h-3.7V448z M629.4,448h3.7v31h-3.7V448z M637.9,448h3.7v31h-3.7V448z M646.1,448h3.7v31h-3.7V448z M654.7,448
		h3.7v31h-3.7V448z M662.9,448h3.7v31h-3.7V448z M671.4,448h3.7v31h-3.7V448z M679.5,448h3.7v31h-3.7V448z"/>
	<path class="st53" d="M563.2,484.6h23.9v6.2h-23.9V484.6z M652.8,484.6h23.9v6.2h-23.9V484.6z M607.5,484.6h23.9v6.2h-23.9V484.6z"
		/>
	<path class="st56" d="M524.6,550.1c0,0,1.2-13.7,15-16h36.5c0,0-3.1-20.2,16.2-24.2h50.5c0,0,17.2-2.2,20.1,18.8V544
		c0,0,6.1,10.8,29.9,1.5c0,0,12.2-9,19.5-29.8c7.3-20.8,32.7-10.7,40,2.5c0,0,32.2,39.2,9.5,87.9c0,0-9.5,15.6-22.9,5.4l-24.4-0.1
		c0,0,1.5,4.5-4.2,5.4h-42l-3.5-1.9h-23.1v-60c0,0-9.1-29.4-25.1-39.1c0,0-19.9,13.6-24,36.1v62c0,0-10.5-1-14.9-13.4h-37.9
		c0,0-14.8-2-15.2-16.4C524.2,569.8,524.6,550.1,524.6,550.1L524.6,550.1z"/>
	<path d="M557.7,541.9c-14.8,0-26.7,12-26.7,26.7c0,14.8,11.9,26.7,26.7,26.7c14.7,0,26.7-12,26.7-26.7S572.4,541.9,557.7,541.9z
		 M557.7,592.5c-13.2,0-23.9-10.7-23.9-23.9s10.7-23.9,23.9-23.9s23.9,10.7,23.9,23.9S570.9,592.5,557.7,592.5z"/>
	<path class="st57" d="M574.1,565.9h5.3v4h-5.3V565.9z"/>
	<circle class="st57" cx="558.2" cy="569.5" r="9.1"/>
	<path class="st58" d="M620.1,610.9c0,1.4-0.9,2.6-2.1,3.1v11.2h-2.5v-11.1c-1.3-0.5-2.2-1.7-2.2-3.1c0-1.8,1.5-3.3,3.3-3.3
		S620.1,609.1,620.1,610.9L620.1,610.9z M599.4,625.2h11.3v-22.8h12.2v22.8h11.4v-28h-34.9V625.2z M648.3,602.3h10.1v4.4h-10.1
		V602.3z"/>
	<path class="st59" d="M677.4,567.9h72.3v29.2h-72.3V567.9z"/>
	<path class="st60" d="M749.1,601.1h5.5v5.5h-5.5V601.1z M683.2,557.6h14.6v6.2h-14.6V557.6z M702.1,557.6h15.2v6.2h-15.2V557.6z
		 M721.4,557.6h14.8v6.2h-14.8V557.6z"/>
	<path d="M713.6,543.3h10.2v4.8h-10.2V543.3z M728.8,543.3h10.9v4.2h-10.9V543.3z M744.7,543.3h11.7v4.2h-11.7V543.3z"/>
	<circle cx="730.8" cy="523.2" r="10.1"/>
	<circle class="st60" cx="737.9" cy="604.3" r="3"/>
	<circle class="st60" cx="749.2" cy="561.3" r="3.2"/>
</g>
<rect class="st61" width="1292" height="1323.6"/>
</svg>
