<svg id="Layer_1" data-name="Layer 1" xmlns="http://www.w3.org/2000/svg" viewBox="0 0 1878 1883.62376"><defs><style>.cls-1{fill:#acb8bf;}.cls-2{fill:#d8d8d8;}.cls-3,.cls-8{fill:#fff;}.cls-4{fill:#959596;}.cls-5{fill:#898989;}.cls-6{fill:#efefef;}.cls-7{fill:#3f2d23;}.cls-8{opacity:0.37;}.cls-65,.cls-8{isolation:isolate;}.cls-9{fill:#f5f5f9;}.cls-10{fill:#9d6449;}.cls-11{fill:#6da429;}.cls-12{fill:#5f932f;}.cls-13{fill:#6b9b26;}.cls-14{fill:#83b042;}.cls-15{fill:#a9a1a5;}.cls-16{fill:#702137;}.cls-17{fill:#7d2636;}.cls-18{fill:#772436;}.cls-19{fill:#915740;}.cls-20{fill:#6d5f5f;}.cls-21,.cls-22,.cls-50{fill:none;stroke-miterlimit:10;}.cls-21,.cls-22{stroke:#000;}.cls-22{stroke-width:0.7px;}.cls-23{fill:#e6e7e8;}.cls-24{fill:#bcbec0;}.cls-25{fill:#f1f2f2;}.cls-26{fill:#d1d3d4;}.cls-27{fill:#00b0b0;}.cls-28{fill:#454b4f;}.cls-29{fill:#5c6266;}.cls-30{fill:#efb35b;}.cls-31{fill:#fecb65;}.cls-32{fill:#ef766a;}.cls-33{fill:#fd8b77;}.cls-34{fill:#fffefd;}.cls-35{fill:#f5f5f5;}.cls-36{fill:#029e96;}.cls-37{fill:#2d2d2d;}.cls-38{fill:#231f20;}.cls-39{fill:#cecece;}.cls-40{fill:#dbdbdb;}.cls-41{fill:#f4f4f4;}.cls-42{fill:#e7e7e7;}.cls-43{fill:#303030;}.cls-44{fill:#c63e2c;}.cls-45{fill:#dc4a30;}.cls-46{fill:#1f3e51;}.cls-47{fill:#35586d;}.cls-48{fill:#e5e1dc;}.cls-49{fill:#fcfcfc;}.cls-50{stroke:#59636c;}.cls-51{fill:#59636c;}.cls-52{fill:#7a7b82;}.cls-53{fill:#424242;}.cls-54{fill:#6e8386;}.cls-55{fill:#414141;}.cls-56{fill:#565656;}.cls-57{fill:#282324;}.cls-58{fill:#4c4c4c;}.cls-59{fill:#e4e4e4;}.cls-60{fill:#929292;}.cls-61{fill:#c2c2c2;}.cls-62{fill:#5d5d5d;}.cls-63{fill:#a4a5a4;}.cls-64{fill:#f7f7f7;}.cls-65{opacity:0.6;}</style></defs><title>banner</title><path class="cls-1" d="M0-3.74917H1878V1878H0V-3.74917Z" transform="translate(0 3.74917)"/><path class="cls-2" d="M611.61116,83.68478V876.98793a19.81032,19.81032,0,0,1-19.76149,19.76153H75.77612a19.81032,19.81032,0,0,1-19.7615-19.76153V83.68478a19.81032,19.81032,0,0,1,19.7615-19.7615H591.84967A19.81033,19.81033,0,0,1,611.61116,83.68478Z" transform="translate(0 3.74917)"/><path class="cls-3" d="M299.55013,437.25916c5.54458,8.24579,13.22172,12.79521,23.45789,12.22654s17.20246-6.25543,21.60969-15.2121c1.13736,0.28436,2.27471.853,3.26989,1.13733a57.73091,57.73091,0,0,1,14.50124,7.96147,39.72156,39.72156,0,0,1,6.11325,4.83374,21.28876,21.28876,0,0,1,4.83374,5.97112,12.625,12.625,0,0,1,1.27951,6.39761,21.03768,21.03768,0,0,1-1.84818,7.10845,54.64654,54.64654,0,0,0-1.99036,5.11809,21.53962,21.53962,0,0,0-.71085,8.53014,25.26421,25.26421,0,0,0,1.99036,7.10845c0.71085,1.84818,1.42169,3.412,1.99036,5.26027a14.77789,14.77789,0,0,1,.42649,4.97592,11.12675,11.12675,0,0,1-1.84818,5.26027,28.0706,28.0706,0,0,1-5.54458,6.11325,71.46325,71.46325,0,0,1-27.723,14.64339,59.54982,59.54982,0,0,1-10.947,2.13254,51.73257,51.73257,0,0,1-9.38316.14218A36.98082,36.98082,0,0,1,305.379,523.698,29.24593,29.24593,0,0,1,291.873,511.32923a25.31732,25.31732,0,0,1-3.26989-10.37832,22.37707,22.37707,0,0,1,1.13736-9.66748l2.41687-6.39761,0.99518-3.26987a9.33682,9.33682,0,0,0-.28433-4.83374c-0.71085-1.99036-1.42169-3.98072-2.27471-5.97112a43.88175,43.88175,0,0,1-1.99036-6.11325,23.386,23.386,0,0,1-.42651-7.10845,26.95971,26.95971,0,0,1,2.84338-10.5205,23.70183,23.70183,0,0,1,8.24581-9.66748c0.14222-.00013.28438-0.00013,0.28438-0.14226h0Zm-38.9543,20.75664a13.69484,13.69484,0,0,1,2.41687,0,24.69066,24.69066,0,0,1,15.78077,6.25543,21.56371,21.56371,0,0,1,6.53978,8.95663,16.9468,16.9468,0,0,1,1.27951,7.39281,0.23207,0.23207,0,0,1-.28433.28436,20.91566,20.91566,0,0,1-10.947-1.99036c-7.39278-3.26987-12.08437-9.09881-14.50124-16.63379a15.36385,15.36385,0,0,1-.71085-3.83858c0.42649-.14213.42649-0.28431,0.42649-0.42649h0Z" transform="translate(0 3.74917)"/><path class="cls-4" d="M1092.468,230.391V376.20664H761.27317V230.391c0-81.8246,74.18164-148.21343,165.5974-148.21343S1092.468,148.56641,1092.468,230.391Z" transform="translate(0 3.74917)"/><path class="cls-5" d="M1091.41892,430.90621H758.57558a18.03629,18.03629,0,0,1-17.98343-17.98343V322.70592a18.03629,18.03629,0,0,1,17.98343-17.98343h332.84325a18.03632,18.03632,0,0,1,17.98343,17.98343v90.21686A18.03618,18.03618,0,0,1,1091.41892,430.90621Z" transform="translate(0 3.74917)"/><path class="cls-3" d="M1249.79446,1636.4351c17.20242,0,34.54714-.28436,52.03383,0,13.50606,0.28436,27.01211.853,40.2339,4.97591,10.52054,3.26987,19.47709,8.24579,25.73256,17.629,4.12294,6.39761,5.8289,13.50606,6.82418,20.89886a213.216,213.216,0,0,1,.42658,41.51337c-0.853,8.67228-2.13253,17.20242-7.25059,24.73744-5.40249,8.10365-13.50606,13.07957-22.46277,16.34944a96.84172,96.84172,0,0,1-28.43381,5.40241c-30.99292,1.706-61.98566.71085-92.83644,0.853-11.8001,0-23.6,0-35.40012-.42649-12.65308-.42649-25.16385-2.13254-36.96395-6.96632-16.2073-6.53974-24.87958-18.62411-26.58554-35.96875a222.5443,222.5443,0,0,1,0-45.63622c1.13742-9.38312,3.69636-18.05548,10.2361-25.16394,6.11334-6.8241,13.79033-10.52054,22.32047-13.07957a104.21,104.21,0,0,1,30.28207-4.54943c20.75664-.42649,41.51329-0.42649,61.98566-0.71085-0.14213-.14222-0.14213.14214-0.14213,0.14214h0Z" transform="translate(0 3.74917)"/><path class="cls-6" d="M1330.12,1693.44493c1.27956,1.706,2.84338,2.84338,4.97592,2.559a5.307,5.307,0,0,0,4.54934-3.26987l0.71085,0.28436a21.955,21.955,0,0,1,3.12765,1.706,9.20032,9.20032,0,0,1,1.27956,1.13734l1.13742,1.27956a2.11319,2.11319,0,0,1,.28427,1.27956,6.40328,6.40328,0,0,1-.42658,1.56382l-0.42658,1.13733a3.9026,3.9026,0,0,0-.28427,1.706,6.40324,6.40324,0,0,0,.42658,1.56382l0.42658,1.13733a1.57009,1.57009,0,0,1,0,1.13734,2.71273,2.71273,0,0,1-.42658,1.13733,9.19485,9.19485,0,0,1-1.13742,1.27956,13.7247,13.7247,0,0,1-5.8289,3.12774,7.22021,7.22021,0,0,1-2.4168.42649h-1.9904a6.01077,6.01077,0,0,1-2.84338-.71085,8.33654,8.33654,0,0,1-2.84338-2.559,4.71271,4.71271,0,0,1-.71085-2.13253,4.84006,4.84006,0,0,1,.28427-1.9904,2.29363,2.29363,0,0,0,.42658-1.27956l0.28427-.71085v-1.13733l-0.42658-1.27956-0.42658-1.27956a1.54042,1.54042,0,0,1,0-1.56382,3.4918,3.4918,0,0,1,.71084-2.13254,4.25182,4.25182,0,0,1,1.56417-2.4168h0Zm-8.24587,4.4072h0.42658a4.504,4.504,0,0,1,3.27,1.27956,2.76442,2.76442,0,0,1,1.27956,1.9904,3.06172,3.06172,0,0,1,.28427,1.56382,4.8564,4.8564,0,0,1-2.4168-.42649,5.94625,5.94625,0,0,1-3.12765-3.55423,0.57025,0.57025,0,0,0,.2841-0.85307h0Z" transform="translate(0 3.74917)"/><path class="cls-7" d="M714.56512,1478.73493c1.84818,5.68676-4.40721,9.95183-5.26027,10.37841a0.1392,0.1392,0,0,0-.14213.14213l-71.65318,66.25073a7.12009,7.12009,0,0,0-2.27471,5.11805v133.07017a7.37341,7.37341,0,0,0,2.27471,5.11805l71.65318,66.25073,0.14213,0.14213c0.853,0.56871,7.10845,4.97592,5.26027,10.37841-1.9904,5.971-8.24579,12.2265-15.06988,4.54934-5.8289-6.53974-49.04831-45.20982-62.69655-57.57845a2.48051,2.48051,0,0,0-4.12289,1.84827v30.85061a1.09393,1.09393,0,0,1-1.84818.853l-15.06993-12.79521a0.91423,0.91423,0,0,1-.28436-0.853V1511.2915a1.52417,1.52417,0,0,1,.28436-0.853l15.06993-12.79521a1.09393,1.09393,0,0,1,1.84818.853v30.85061a2.44807,2.44807,0,0,0,4.12289,1.84827c13.64824-12.08437,57.00979-51.03871,62.69655-57.57846,6.8241-7.10828,13.07948-.853,15.06988,5.11822h0Z" transform="translate(0 3.74917)"/><path class="cls-7" d="M601.11421,1702.3667a169.56222,169.56222,0,0,1,4.12289-36.67968l5.82894-27.15425c1.84818-9.241.9952-18.1977-.71085-27.29638-2.27471-10.94695-4.54943-21.60962-6.25543-32.55674a154.85868,154.85868,0,0,1-1.42169-43.64582c1.706-15.49646,3.6964-31.13505,5.68676-46.63151,0.14218-1.9904.71085-2.55911,2.7012-2.55911l14.2169-.28427c1.99036,0,2.41689.28427,2.7012,2.4168,0.28436,2.27467,1.706,3.55422,3.412,4.83378,2.84338,1.84827,6.25543,2.27467,9.66748,2.84338,9.5253,1.706,19.335,3.41209,28.71812,6.53974,9.66748,3.27,17.77113,8.81441,22.747,18.0554a49.56518,49.56518,0,0,1,5.11805,17.629,106.44141,106.44141,0,0,1-.71085,29.28679q-3.83854,21.53856-22.17833,33.26759c-9.66748,6.25547-20.47237,10.37841-31.41936,14.2169a31.47948,31.47948,0,0,0-5.97112,2.55911,11.50985,11.50985,0,0,0-1.84818,18.482c2.559,2.4168,5.68676,3.69636,8.8145,5.118,6.96627,2.84338,14.21686,5.68676,21.041,8.81441,9.38312,4.54934,17.629,10.94694,23.31575,19.76153a58.42458,58.42458,0,0,1,8.24579,22.747c1.56382,10.2361,1.706,20.33024-.9952,30.42421-2.27467,8.24587-5.68676,15.63859-11.8,21.60962a35.164,35.164,0,0,1-14.78561,8.53014,333.23365,333.23365,0,0,1-33.40972,7.39272c-4.40725.71085-7.53494,2.84338-8.8145,7.10845a2.31879,2.31879,0,0,1-2.559,1.84827c-4.83374,0-9.52534-.14213-14.35908-0.28427-2.559-.14214-3.412-1.13742-3.55423-3.69636-1.42169-14.359-2.7012-28.71807-3.98072-43.07728a148.93182,148.93182,0,0,1-1.56382-19.61922h0Zm5.68676,0.14231v9.241a91.75509,91.75509,0,0,0,1.99036,17.629c2.41689,9.66756,8.24579,16.34944,18.05548,18.90855a81.43854,81.43854,0,0,0,12.93739,1.9904,69.94609,69.94609,0,0,0,25.44825-2.4168c15.2121-4.54934,24.45309-14.50117,27.15425-30.13976a74.48488,74.48488,0,0,0,.14213-21.04109c-1.56382-14.50117-7.53494-26.4434-19.05068-35.40012-11.37352-8.81441-24.7374-12.79521-38.9543-13.93263-6.682-.56871-11.94219,2.27467-16.20726,7.535a48.90871,48.90871,0,0,0-7.8193,15.92286A98.0085,98.0085,0,0,0,606.801,1702.509h0Zm0.28436-144.44387a120.80755,120.80755,0,0,0,1.99036,21.04109,50.66151,50.66151,0,0,0,6.53978,17.77113c4.40725,6.96632,10.80485,10.52054,19.05064,10.094a85.613,85.613,0,0,0,29.57114-7.535c13.64819-6.53974,23.0314-17.06028,26.72776-31.988a79.86109,79.86109,0,0,0,.71085-33.8363c-2.559-13.50606-10.37832-22.0362-23.74224-25.59042a77.58132,77.58132,0,0,0-17.06028-2.70125c-7.10845-.56871-14.2169-0.99511-21.32535.14213-7.8193,1.13742-13.93255,5.11805-17.20246,12.51094a52.21191,52.21191,0,0,0-3.412,10.37841c-1.706,8.81458-1.84814,18.19771-1.84814,29.71336h0Z" transform="translate(0 3.74917)"/><path class="cls-8" d="M606.801,1702.509a102.25563,102.25563,0,0,1,3.98072-32.13017,46.27356,46.27356,0,0,1,7.8193-15.92286c4.12289-5.11805,9.38316-7.96143,16.20726-7.535,14.2169,1.13742,27.4386,5.11805,38.95435,13.93263,11.37352,8.81441,17.629,21.04109,19.05068,35.40012a80.24015,80.24015,0,0,1-.14213,21.04108c-2.70125,15.63859-11.94223,25.59043-27.15425,30.28207a67.24785,67.24785,0,0,1-25.44825,2.4168,66.19958,66.19958,0,0,1-12.93739-1.9904c-9.95183-2.55911-15.63859-9.241-18.05548-18.90855a81.73455,81.73455,0,0,1-1.99036-17.629,61.526,61.526,0,0,1-.28444-8.95672h0Zm0.28436-144.44387c0-11.65779.14218-20.75664,1.99036-29.99763a52.21191,52.21191,0,0,1,3.412-10.37841c3.412-7.39272,9.38316-11.23139,17.20246-12.51094,7.10845-.99511,14.2169-0.56871,21.32535-0.14213a77.571,77.571,0,0,1,17.06028,2.70125c13.07957,3.69636,21.18322,12.2265,23.74224,25.59042a77.6338,77.6338,0,0,1-.71085,33.8363c-3.69636,15.06988-13.07957,25.44829-26.72776,31.988a81.81465,81.81465,0,0,1-29.57114,7.535c-8.388.71085-14.64339-2.84338-19.05064-10.094-3.412-5.40249-5.26027-11.37352-6.53978-17.77113A105.89239,105.89239,0,0,1,607.08533,1558.06514Z" transform="translate(0 3.74917)"/><path class="cls-2" d="M617.46365,1764.92107s-4.97592-5.26018,0-9.66756C617.46365,1755.25369,620.59139,1760.2296,617.46365,1764.92107Zm0-266.85119s-4.97592-5.26018,0-9.66756A9.17958,9.17958,0,0,1,617.46365,1498.06989Z" transform="translate(0 3.74917)"/><ellipse class="cls-3" cx="230.74033" cy="1178.29686" rx="187.2366" ry="188.37396"/><ellipse class="cls-9" cx="230.74033" cy="1178.29686" rx="173.30405" ry="174.44141"/><ellipse class="cls-10" cx="230.74033" cy="1178.29686" rx="170.3185" ry="171.45581"/><path class="cls-11" d="M149.41964,987.02679s34.68924,2.84338,36.11093,26.01691l-13.93257,85.7279-30.282-38.2435s-19.05064-49.75916,8.10364-73.50132h0ZM39.66516,1229.56712s-0.42651-24.73744,26.58561-39.09648,48.05312,26.87,48.05312,26.87l-24.87958,33.83621A59.54758,59.54758,0,0,1,39.66516,1229.56712Zm10.66268-140.74734s10.37834-3.69636,15.35425-4.83378,20.04584-10.094,45.20975,3.69636,51.89169,33.55186,51.89169,33.55186l9.09882,22.17833s-40.09167-9.09885-48.90615-11.08917c-8.67231-1.84809-64.11823,1.42178-72.64837-43.5036h0Z" transform="translate(0 3.74917)"/><path class="cls-12" d="M338.07794,1269.6588s12.3687,18.76633,35.68441,7.8193l9.95183-6.25547,0.9952-15.63859s1.84818-17.06028-22.17838-34.97355l-104.2099-35.54226,15.06993,26.87,64.68691,57.72059h0Z" transform="translate(0 3.74917)"/><path class="cls-13" d="M361.39366,1121.803s22.17835-3.41209,22.17835-29.00251l-1.42169-11.65788-13.79041-7.39281s-14.78557-8.8145-41.08684,5.26027c-26.30127,14.2169-76.34476,79.3303-76.34476,79.3303l30.70852-2.13253Z" transform="translate(0 3.74917)"/><path class="cls-12" d="M364.9479,1191.89232s18.3398,12.79521,36.11092-5.8289l6.96627-9.38312-4.83374-14.92775s-4.69156-16.63379-33.5519-24.31087c-28.86032-7.8193-109.89666,5.11805-109.89666,5.11805l23.8844,19.335Zm-88.57133-151.41s10.80485-35.68439-8.95665-52.03383l-9.95183-6.25547-14.64341,5.8289s-20.75669,12.08437-26.5856,41.51337l-0.99518,102.93041,35.82659-25.02171,25.30609-66.96166h0Z" transform="translate(0 3.74917)"/><path class="cls-14" d="M314.33572,1154.21753s53.45556-7.25059,79.899,17.77113c0,0,14.35908,15.06988,13.64824,28.57594,0,0-11.37352,27.29647-51.89169,21.041-40.51817-6.39761-88.42913-35.68439-88.42913-35.68439l-32.69888-12.08437,79.47245-19.61931h0Z" transform="translate(0 3.74917)"/><path class="cls-11" d="M144.44373,1293.82753s-3.26989,36.111,14.78558,43.0772c0,0,31.56152,1.13734,38.81215-29.00252s9.80965-90.56169,9.80965-90.56169l-63.40738,76.487h0Zm79.046,33.69408s15.35426,32.841,34.54708,29.71336c0,0,27.723-15.06988,18.62415-44.78324l-37.817-82.88461-15.35426,97.95449h0Z" transform="translate(0 3.74917)"/><path class="cls-13" d="M89.42432,1130.61751s-42.65071,5.11805-45.20975,24.16873c0,0,6.11327,30.8507,37.24829,30.99283,30.99285,0.14214,90.4195-11.37352,90.4195-11.37352l-82.458-43.788h0Z" transform="translate(0 3.74917)"/><path class="cls-14" d="M123.54488,1203.97669s-42.2242,12.2265-40.09167,53.17125v12.2265s17.77112,5.26027,30.99285,2.70125c13.22172-2.70125,43.78806-18.62411,43.78806-18.62411l22.88921-71.65322-57.57845,22.17833h0Z" transform="translate(0 3.74917)"/><path class="cls-12" d="M193.91854,1165.44892l-37.67479-3.26987s-42.65071-.42649-71.36885,8.8145-29.429,34.83132-29.429,34.83132,19.61932,21.75184,40.51817,13.93255c21.041-7.8193,100.22916-37.95915,100.22916-37.95915ZM93.405,1039.345a48.56921,48.56921,0,0,1,34.68924,3.98072c17.77113,9.38312,47.62662,36.67959,61.55918,73.35918l20.04584,43.0772L180.839,1147.109s-30.56634-11.94223-58.14713-40.51817C122.40753,1106.733,76.06043,1072.186,93.405,1039.345Z" transform="translate(0 3.74917)"/><path class="cls-14" d="M83.45322,1122.51386s9.66749-3.26987,13.93256-4.4072c4.40724-1.13733,18.19764-9.09885,41.08685,3.26987l47.05794,30.56634,8.24581,20.188s-36.53743-8.24579-44.49891-10.094S91.13034,1163.45852,83.45322,1122.51386Z" transform="translate(0 3.74917)"/><path class="cls-12" d="M259.60065,1301.50461s0.42651,22.32055,25.87476,25.73256h11.8l9.241-12.79521s10.66268-13.36392,0-41.51337c-10.66268-28.00732-68.8098-85.87012-68.8098-85.87012l-1.8482,30.70847,23.74222,83.73768h0ZM207.709,1221.60568s-11.65786,16.2073-17.91331,31.988-7.8193,42.65071-47.911,50.18565H131.222l-2.98555-9.241s-12.3687-30.56634,21.32535-54.87721,50.47-53.88209,50.47-53.88209l13.93257,1.42169-6.25545,34.40492h0Z" transform="translate(0 3.74917)"/><path class="cls-11" d="M185.95709,1181.94049l-29.8555,18.62411s-19.05065,8.24579-22.0362,20.0458-2.98555,16.91815-2.98555,16.91815,6.96628,7.8193,12.3687,8.8145c5.40243,1.13734,12.93738,4.4072,25.30608-13.36392,12.3687-17.91326,38.52781-42.50857,38.52781-42.50857l-21.32535-8.53005h0Z" transform="translate(0 3.74917)"/><path class="cls-14" d="M203.01737,1222.743s-10.66268,25.02171-12.93739,46.48929c0,0-15.78076,42.22422,2.13254,58.14717l10.66268,9.66748,16.20726-7.8193s32.27236-16.2073,16.77595-52.17605c-15.63859-36.111,0-1.84818,0-1.84818l-3.12771-60.564-29.71332,8.10357h0Z" transform="translate(0 3.74917)"/><path class="cls-13" d="M236.71143,1192.17668s15.35426,33.97843,22.88922,45.77844c7.39278,11.94223,40.66035,52.176,9.6675,76.48692,0,0-36.2531-.28436-39.9495-61.13268l-12.93739-58.00495,20.33017-3.12774h0Z" transform="translate(0 3.74917)"/><path class="cls-14" d="M236.00058,1190.89712s-0.14218,11.37352,15.21208,23.6c15.35426,12.08437,28.14947,39.94946,29.14465,42.50857,0.99518,2.41689,15.78077,42.22422,61.13268,39.09648,0,0,16.34944-31.13505-7.96147-58.14717s-62.69653-41.08688-62.69653-41.08688l-34.83141-5.971h0Zm-68.952-189.79565s8.95665,2.98551,12.93738,4.69156,35.54227,16.2073,33.83622,63.12308,5.82894,69.37847-2.98556,97.52792c0,0-26.15909-39.523-40.51817-79.47252,0,0-22.747-46.63142-10.66268-72.79056Z" transform="translate(0 3.74917)"/><path class="cls-11" d="M207.709,1190.3285a35.70174,35.70174,0,0,0-8.388,33.69408s6.25543,12.08437,17.06028,7.96143,11.94219-7.39281,11.94219-13.2217l-14.07472-31.56154-6.53978,3.12774h0Z" transform="translate(0 3.74917)"/><path class="cls-13" d="M207.709,1173.41035s-12.93739-8.24579-20.33017,5.82889,2.41687,18.76633,6.25543,21.041c3.83856,2.13254,11.94219-16.06508,11.94219-16.06508Z" transform="translate(0 3.74917)"/><path class="cls-11" d="M212.25836,1163.885s-14.07472-22.60491-33.12539-18.62411c0,0-7.39278,6.25547-1.27952,18.62411,6.11326,12.08437,29.85551,9.66748,29.85551,9.66748Z" transform="translate(0 3.74917)"/><path class="cls-14" d="M254.90907,1095.35952s14.35908-47.05791,30.56634-58.858,30.56634-16.63379,45.20975-13.2217c0,0,25.7326,19.05068-2.7012,55.58805s-92.26769,86.72311-92.26769,86.72311l-16.63377-11.23139,35.82657-59.00006h0Z" transform="translate(0 3.74917)"/><path class="cls-13" d="M209.55713,1164.59585s4.69158-37.2483,4.40725-50.47c-0.14218-13.2217-4.69158-33.55185,12.79521-43.0772,0,0,6.25543-4.4072,20.75669-2.70125,0,0,17.77113,14.359,10.66268,36.53746,0,0-2.13254,7.8193-13.22172,23.17353s-19.90366,55.44592-19.90366,55.44592l-17.20246,2.13253,1.706-21.041h0Z" transform="translate(0 3.74917)"/><path class="cls-11" d="M229.17646,1156.4922s36.67961-15.92295,53.02905-24.0266c11.65786-5.8289,42.2242-32.841,68.099-23.88438,25.7326,8.8145,23.17353,8.388,23.17353,8.388s-4.40725,31.56154-32.84105,37.10608L235.7162,1176.68022Z" transform="translate(0 3.74917)"/><path class="cls-13" d="M232.87287,1171.98866s20.61451,3.98071,30.56634,4.83378c9.95183,0.71085,25.30609-2.98552,32.27236,21.041,0,0-8.388,18.33984-33.83623,9.66748-25.30609-8.8145-38.67-19.05068-38.67-19.05068Z" transform="translate(0 3.74917)"/><path class="cls-14" d="M214.95956,1179.09711s6.39761,17.629-9.38316,16.2073C189.65347,1193.88272,207.85111,1169.14528,214.95956,1179.09711Z" transform="translate(0 3.74917)"/><path class="cls-12" d="M222.21019,1173.83684s-4.69158-9.95183-14.35908-11.37352c-9.80965-1.42169-10.947,8.388-10.947,8.388s3.98074,11.08917,25.30609,2.98551h0Zm-4.12291,2.9856s19.61933-2.27467,13.64824,22.0362c0,0-2.98556,6.96632-13.64823,4.83378,0-.00009-9.52532-13.93263,0-26.87h0Z" transform="translate(0 3.74917)"/><path class="cls-14" d="M216.23909,1163.45852s6.25543,15.63859,14.35908,16.06508c0,0,6.25543,6.82409,6.96627-2.84338s-4.40725-23.6-18.3398-22.32055c0-.14213-5.97112,3.55423-2.98556,9.09885h0Z" transform="translate(0 3.74917)"/><path class="cls-15" d="M112.88221,356.9057l-2.84338,1.99036" transform="translate(0 3.74917)"/><path class="cls-16" d="M1587.51943,68.18835v3.98073h-55.8725V33.78345h21.75193Z" transform="translate(0 3.74917)"/><path class="cls-17" d="M1531.5048,33.78345V72.16909h-55.87241l-0.14214-3.83856,34.54706-34.54707h21.46749Z" transform="translate(0 3.74917)"/><path class="cls-18" d="M1475.49026,71.60041h34.8315v38.95431h-34.83141V71.60041h-0.00009Zm77.05563,0.56868h34.83141V111.1234h-34.83141V72.16909ZM1815.132,860.6385v3.69636a57.33836,57.33836,0,0,1-57.15188,57.152H1302.044a57.33838,57.33838,0,0,1-57.152-57.152V860.6385H1815.132Z" transform="translate(0 3.74917)"/><path class="cls-17" d="M1815.132,256.278V860.6385H1245.03421V256.278a57.33834,57.33834,0,0,1,57.152-57.15194h455.79394c31.27719,0,57.15188,25.87476,57.15188,57.15194h0Z" transform="translate(0 3.74917)"/><path class="cls-16" d="M1391.89489,660.46453H1674.527v200.174H1391.89489v-200.174Zm391.8178-190.933H1276.45362a39.86484,39.86484,0,0,1-39.66519-39.66515V142.54276a39.86478,39.86478,0,0,1,39.66519-39.66516h507.25906a39.86478,39.86478,0,0,1,39.66519,39.66516v287.3236C1823.09361,451.6182,1805.46461,469.5315,1783.71268,469.5315Z" transform="translate(0 3.74917)"/><path class="cls-10" d="M1353.93574,102.8776V921.48682H1407.107V102.8776h-53.17125Zm347.17677,0V921.48682h-53.31338V102.8776h53.31338Z" transform="translate(0 3.74917)"/><path class="cls-19" d="M1407.107,102.8776V579.286l-26.58563,24.16873L1354.078,579.286V102.8776h53.029Zm294.00552,0V579.286L1674.527,603.45474,1647.94144,579.286V102.8776h53.17108Z" transform="translate(0 3.74917)"/><path class="cls-20" d="M1409.52388,539.62086h-58.14717a6.25481,6.25481,0,0,1-6.11325-6.11325V481.0472a6.25481,6.25481,0,0,1,6.11325-6.11325h58.14717a6.25481,6.25481,0,0,1,6.11325,6.11325v52.46036A5.89507,5.89507,0,0,1,1409.52388,539.62086Z" transform="translate(0 3.74917)"/><path class="cls-19" d="M1402.84192,533.50756h-44.64111a6.25481,6.25481,0,0,1-6.11325-6.11325V487.30263a6.25481,6.25481,0,0,1,6.11325-6.11325h44.64111a6.25481,6.25481,0,0,1,6.11325,6.11325v40.09168a6.15876,6.15876,0,0,1-6.11325,6.11325h0Z" transform="translate(0 3.74917)"/><path class="cls-20" d="M1703.52932,539.62086h-58.14717a6.25482,6.25482,0,0,1-6.11334-6.11325V481.0472a6.25482,6.25482,0,0,1,6.11334-6.11325h58.14717a6.25482,6.25482,0,0,1,6.11334,6.11325v52.46036A6.15879,6.15879,0,0,1,1703.52932,539.62086Z" transform="translate(0 3.74917)"/><path class="cls-19" d="M1696.84744,533.50756h-44.64111a6.25482,6.25482,0,0,1-6.11334-6.11325V487.30263a6.25482,6.25482,0,0,1,6.11334-6.11325h44.64111a6.25482,6.25482,0,0,1,6.11334,6.11325v40.09168A6.067,6.067,0,0,1,1696.84744,533.50756Z" transform="translate(0 3.74917)"/><path class="cls-3" d="M1457.71913,717.47427h145.72334v88.71351H1457.71913V717.47427Z" transform="translate(0 3.74917)"/><path class="cls-21" d="M1465.96491,724.01406h129.37381v75.34963H1465.96491V724.01406Z" transform="translate(0 3.74917)"/><path class="cls-22" d="M1486.86378,773.20455h87.434m-87.434-20.33015h87.434" transform="translate(0 3.74917)"/><path class="cls-23" d="M943.95164,1259.31667v20.61451a1.71736,1.71736,0,0,1-1.84818,1.84818H924.901v-24.31087h17.20242A1.87788,1.87788,0,0,1,943.95164,1259.31667Z" transform="translate(0 3.74917)"/><path class="cls-24" d="M924.901,1257.46841v24.31087H907.12991a1.71736,1.71736,0,0,1-1.84818-1.84818v-20.61451a1.71736,1.71736,0,0,1,1.84818-1.84818H924.901Z" transform="translate(0 3.74917)"/><path class="cls-25" d="M928.45527,1363.81091a3.66827,3.66827,0,0,1-2.84338,3.55423v-41.93986a4.47464,4.47464,0,0,0,3.83858-4.54943,4.67779,4.67779,0,0,0-4.54943-4.54943h-0.28436v-34.54705h14.359l4.69156,39.09648-17.91326,39.523A3.36082,3.36082,0,0,1,928.45527,1363.81091Z" transform="translate(0 3.74917)"/><path class="cls-26" d="M920.49375,1320.73362a4.73391,4.73391,0,0,0,3.41209,4.4072v41.93986a3.62921,3.62921,0,0,1-2.70125-3.41209,3.67068,3.67068,0,0,1,2.13254-3.26987l-17.629-39.66519,4.54943-39.09648h14.50126v34.54706A4.62745,4.62745,0,0,0,920.49375,1320.73362Z" transform="translate(0 3.74917)"/><path class="cls-27" d="M936.13234,1257.46841H924.75882V966.875c0.42649,0.14213,2.84338.9952,4.40721,5.68676C930.72994,977.822,956.46258,1137.4778,936.13234,1257.46841Z" transform="translate(0 3.74917)"/><path class="cls-28" d="M765.72714,993.16774l7.53494-24.31087,0.42649,1.56382v22.88918Z" transform="translate(0 3.74917)"/><path class="cls-29" d="M773.68857,993.16774V970.27856l7.39281,22.88918h-7.39281Z" transform="translate(0 3.74917)"/><path class="cls-29" d="M795.29828,1320.44085v25.87478H773.68857v-25.87478h21.60971Z" transform="translate(0 3.74917)"/><path class="cls-28" d="M773.68857,1320.44085v25.87478H751.93673v-25.87478h21.75184Z" transform="translate(0 3.74917)"/><path class="cls-30" d="M773.68857,1037.951v282.34765H751.93673V1037.951h21.75184Z" transform="translate(0 3.74917)"/><path class="cls-31" d="M796.29828,1037.951v282.34765H774.68857V1037.951h21.60971Z" transform="translate(0 3.74917)"/><path class="cls-32" d="M754.78011,1363.66019v-17.20242h18.90846v20.0458H756.62829C755.63309,1366.36143,754.78011,1365.2241,754.78011,1363.66019Z" transform="translate(0 3.74917)"/><path class="cls-33" d="M773.68857,1366.36143v-20.0458H791.4597v17.20242a2.45014,2.45014,0,0,1-2.13254,2.70125H773.68857v0.14213Z" transform="translate(0 3.74917)"/><path class="cls-34" d="M773.68857,1037.951V993.16774h7.39281l14.359,44.78324H773.68857Z" transform="translate(0 3.74917)"/><path class="cls-35" d="M751.93673,1037.951l13.79041-44.78324h7.96143V1037.951H751.93673Z" transform="translate(0 3.74917)"/><path class="cls-36" d="M924.901,966.875v290.59343H912.39018s-26.30127-81.74719,8.10365-284.90676C920.49375,972.56173,921.48895,967.728,924.901,966.875Z" transform="translate(0 3.74917)"/><path class="cls-37" d="M1132.9895,1347.34237v11.08917c0,3.55422-2.27467,6.682-5.11805,6.682h-34.97355v-17.77113h40.0916Z" transform="translate(0 3.74917)"/><path class="cls-38" d="M1092.89782,1347.34237v17.77113h-34.83141c-2.84338,0-5.11805-2.98552-5.11805-6.682v-11.08917h39.94946Z" transform="translate(0 3.74917)"/><path class="cls-37" d="M1132.9895,1063.71516v9.8097h-40.09168v-9.8097h40.09168Z" transform="translate(0 3.74917)"/><path class="cls-38" d="M1092.89782,1063.71516v9.8097h-39.80733v-9.8097h39.80733Z" transform="translate(0 3.74917)"/><path class="cls-25" d="M1092.89782,1073.667v5.26027h-39.80733V1073.667h39.80733Z" transform="translate(0 3.74917)"/><path class="cls-3" d="M1132.9895,1073.667v5.26027h-40.09168V1073.667h40.09168Z" transform="translate(0 3.74917)"/><path class="cls-37" d="M1132.9895,1079.0694v263.0127h-40.09168V1079.0694h40.09168Z" transform="translate(0 3.74917)"/><path class="cls-38" d="M1092.89782,1079.0694v263.0127h-39.80733V1079.0694h39.80733Z" transform="translate(0 3.74917)"/><path class="cls-25" d="M1092.89782,1341.94v5.26027h-39.80733V1341.94h39.80733Z" transform="translate(0 3.74917)"/><path class="cls-3" d="M1132.9895,1341.94v5.26027h-40.09168V1341.94h40.09168Z" transform="translate(0 3.74917)"/><path class="cls-24" d="M1092.89782,1012.25v51.60734h-39.80733l19.05068-51.60734h20.75664Z" transform="translate(0 3.74917)"/><path class="cls-26" d="M1132.9895,1063.71516h-40.09168v-51.60734h20.188Z" transform="translate(0 3.74917)"/><path class="cls-39" d="M1092.89782,990.64034V1012.25h-17.629V990.64034h17.629Z" transform="translate(0 3.74917)"/><path class="cls-40" d="M1110.52681,990.64034V1012.25h-17.629V990.64034h17.629Z" transform="translate(0 3.74917)"/><path class="cls-37" d="M1107.11472,963.62822v27.01211h-14.2169V968.74627Z" transform="translate(0 3.74917)"/><path class="cls-38" d="M1092.89782,968.74627v21.89406h-14.2169V973.58005Z" transform="translate(0 3.74917)"/><path class="cls-3" d="M612.44,998.79755h-3.83858a2.33112,2.33112,0,0,0-1.56382-.9952H585.28576a1.53732,1.53732,0,0,0-1.56382.9952H507.94587a18.74848,18.74848,0,0,0-18.76633,18.76633v23.45789a1.84738,1.84738,0,0,0-1.13733,1.706v9.95183a1.71429,1.71429,0,0,0,1.13733,1.706v14.64339a1.84738,1.84738,0,0,0-1.13733,1.706v7.53494a1.71429,1.71429,0,0,0,1.13733,1.706v13.64819a1.84738,1.84738,0,0,0-1.13733,1.706v7.53494a1.71429,1.71429,0,0,0,1.13733,1.706v174.44141a18.74848,18.74848,0,0,0,18.76633,18.76633H612.58223a18.74848,18.74848,0,0,0,18.76633-18.76633V1017.56388A19.15153,19.15153,0,0,0,612.44,998.79755h0Z" transform="translate(0 3.74917)"/><circle class="cls-41" cx="559.69525" cy="1280.34503" r="13.50606"/><path class="cls-42" d="M570.07357,1022.68193H549.45906a2.13254,2.13254,0,0,0,0,4.26507h20.61451A2.13254,2.13254,0,0,0,570.07357,1022.68193Z" transform="translate(0 3.74917)"/><path class="cls-43" d="M500.83733,1041.44825H621.25451v213.53789H500.83733V1041.44825Z" transform="translate(0 3.74917)"/><path class="cls-3" d="M70.56881,1809.19016s-15.63859-.56871-16.20727-16.2073V1467.9845s-1.56386-22.747,16.20727-24.0266H507.31206s22.17838-1.56382,21.18318,17.629,0,327.273,0,327.273,1.706,18.76624-15.35424,20.33024C495.93853,1810.75416,70.56881,1809.19016,70.56881,1809.19016Z" transform="translate(0 3.74917)"/><path class="cls-43" d="M97.15441,1772.51065V1480.069H486.83972v292.44161H97.15441Z" transform="translate(0 3.74917)"/><circle class="cls-41" cx="507.31206" cy="1630.82084" r="12.93737"/><path class="cls-44" d="M1335.36843,1471.53575h3.98235v0.24137h18.46367v94.732h-0.12065a22.27494,22.27494,0,0,1-22.32537-22.32537v-72.648h0Z" transform="translate(0 3.74917)"/><path class="cls-45" d="M1375.9161,1471.77709v-0.24137h3.98235v72.648a22.38051,22.38051,0,0,1-22.084,22.32537v-94.732h18.10165Z" transform="translate(0 3.74917)"/><path class="cls-46" d="M1357.81445,1471.77712h-18.46367v-6.27525h18.46367v6.27525Z" transform="translate(0 3.74917)"/><path class="cls-47" d="M1375.9161,1471.77712h-18.10165v-6.27525h18.10165v6.27525Z" transform="translate(0 3.74917)"/><path class="cls-6" d="M1357.81452,1444.02122v21.48061h15.20536v-21.48061h-15.20536Zm5.67179,4.10307h4.58574v2.17218h-4.58574v-2.17218Z" transform="translate(0 3.74917)"/><path class="cls-48" d="M1342.60909,1444.02122v21.48061h15.20536v-21.48061h-15.20536Zm4.94775,4.10307h4.58574v2.17218h-4.58574v-2.17218Z" transform="translate(0 3.74917)"/><path class="cls-47" d="M1368.07205,1450.17579h-4.58574v-2.17218h4.58574v2.17218Z" transform="translate(0 3.74917)"/><path class="cls-46" d="M1352.14266,1450.17579h-4.58574v-2.17218h4.58574v2.17218Z" transform="translate(0 3.74917)"/><path class="cls-30" d="M1211.19108,1471.53575h3.98235v0.24137h18.46367v94.732h-0.12065a22.27494,22.27494,0,0,1-22.32537-22.32537v-72.648h0Z" transform="translate(0 3.74917)"/><path class="cls-31" d="M1251.85947,1471.77709v-0.24137h3.98235v72.648a22.38051,22.38051,0,0,1-22.084,22.32537v-94.732h18.10165Z" transform="translate(0 3.74917)"/><path class="cls-46" d="M1233.75782,1471.77712h-18.46367v-6.27525h18.46367v6.27525Z" transform="translate(0 3.74917)"/><path class="cls-47" d="M1251.73882,1471.77712h-18.10165v-6.27525h18.10165v6.27525Z" transform="translate(0 3.74917)"/><path class="cls-6" d="M1233.75789,1444.02122v21.48061h15.20536v-21.48061h-15.20536Zm5.67179,4.10307h4.58574v2.17218h-4.58574v-2.17218Z" transform="translate(0 3.74917)"/><path class="cls-48" d="M1218.55246,1444.02122v21.48061h15.20536v-21.48061h-15.20536Zm4.82711,6.27525v-2.17218h4.58574v2.17218h-4.58574Z" transform="translate(0 3.74917)"/><path class="cls-47" d="M1243.89477,1450.17579H1239.309v-2.17218h4.58574v2.17218Z" transform="translate(0 3.74917)"/><path class="cls-46" d="M1227.96531,1450.17579h-4.58574v-2.17218h4.58574v2.17218Z" transform="translate(0 3.74917)"/><path class="cls-36" d="M1093.89244,1471.53575h3.98235v0.24137h18.46367v94.732h-0.12065a22.27494,22.27494,0,0,1-22.32537-22.32537v-72.648h0Z" transform="translate(0 3.74917)"/><path class="cls-27" d="M1134.44011,1471.77709v-0.24137h3.98235v72.648a22.38051,22.38051,0,0,1-22.084,22.32537v-94.732h18.10165Z" transform="translate(0 3.74917)"/><path class="cls-46" d="M1116.33846,1471.77712h-18.46367v-6.27525h18.46367v6.27525Z" transform="translate(0 3.74917)"/><path class="cls-47" d="M1134.44011,1471.77712h-18.10165v-6.27525h18.10165v6.27525Z" transform="translate(0 3.74917)"/><path class="cls-6" d="M1116.21781,1444.02122v21.48061h15.20536v-21.48061h-15.20536Zm5.67179,4.10307h4.58574v2.17218h-4.58574v-2.17218Z" transform="translate(0 3.74917)"/><path class="cls-48" d="M1101.1331,1444.02122v21.48061h15.20536v-21.48061H1101.1331Zm4.94776,4.10307h4.58574v2.17218h-4.58574v-2.17218Z" transform="translate(0 3.74917)"/><path class="cls-47" d="M1126.59606,1450.17579h-4.58574v-2.17218h4.58574v2.17218Z" transform="translate(0 3.74917)"/><path class="cls-46" d="M1110.66659,1450.17579h-4.58574v-2.17218h4.58574v2.17218Z" transform="translate(0 3.74917)"/><path class="cls-49" d="M895.67,1528.89434v-61.417a6.52228,6.52228,0,0,1,6.53974-6.53974h20.89878a6.52228,6.52228,0,0,1,6.53974,6.53974v61.417a6.52228,6.52228,0,0,1-6.53974,6.53974H902.20969A6.61489,6.61489,0,0,1,895.67,1528.89434Z" transform="translate(0 3.74917)"/><circle class="cls-3" cx="916.00002" cy="1656.61492" r="128.94728"/><circle class="cls-19" cx="916.00002" cy="1656.61492" r="100.3713"/><path class="cls-10" d="M816.33957,1665.51874a93.01789,93.01789,0,0,1-.853-12.65308,100.44239,100.44239,0,0,1,200.88473,0,93.018,93.018,0,0,1-.853,12.65308A100.37226,100.37226,0,0,0,816.33957,1665.51874Z" transform="translate(0 3.74917)"/><path class="cls-45" d="M1528.78163,1787.58054v53.74l-9.241-8.53014-9.38312,8.53014v-53.74h18.62411Z" transform="translate(0 3.74917)"/><path class="cls-49" d="M1798.47628,1791.419H1493.52373a8.09985,8.09985,0,0,1-8.10365-8.10356V1374.86388a8.09987,8.09987,0,0,1,8.10365-8.10365h304.95256a8.09979,8.09979,0,0,1,8.10357,8.10365V1783.4576a8.07065,8.07065,0,0,1-8.10357,7.96143h0Z" transform="translate(0 3.74917)"/><path class="cls-27" d="M1793.78464,1787.58054H1488.83217a8.09985,8.09985,0,0,1-8.10365-8.10357V1371.02529a8.09987,8.09987,0,0,1,8.10365-8.10365h304.95247a8.09979,8.09979,0,0,1,8.10356,8.10365v408.59381A7.98009,7.98009,0,0,1,1793.78464,1787.58054Z" transform="translate(0 3.74917)"/><path class="cls-36" d="M1504.75511,1362.92164h28.4338v424.65889h-28.4338V1362.92164Z" transform="translate(0 3.74917)"/><path class="cls-31" d="M1285.64443,1039.50707c-6.5522,0-12.04181-4.82663-12.04181-10.94043v-0.3217h-26.38583v44.88768h567.3828v-44.88768H1297.68624v0.3217C1297.68624,1034.5196,1292.37367,1039.50707,1285.64443,1039.50707Z" transform="translate(0 3.74917)"/><path class="cls-30" d="M1794.94312,997.51545h-5.66666v-14.319h-19.30239v28.477h-5.66666v-28.477H1745.3591v14.319h-5.66666v-14.319H1720.39v28.477h-5.66666v-28.477H1697.0148v14.319h-5.66666v-14.319h-19.30239v28.477h-5.66666v-28.477H1647.431v14.319h-5.66666v-14.319h-19.30239v28.477h-5.66666v-28.477H1597.8472v14.319h-5.66666v-14.319h-19.30239v28.477h-5.66666v-28.477h-18.94809v14.319h-5.66666v-14.319h-19.30239v28.477h-5.66666v-28.477h-18.77105v14.319H1493.19v-14.319h-19.30239v28.477h-5.66666v-28.477h-19.12535v14.319h-5.66666v-14.319h-19.30239v28.477h-5.66666v-28.477H1399.6888v14.319h-5.66666v-14.319h-19.30239v28.477H1369.053v-28.477h-18.9482v14.319H1344.438v-14.319h-19.30239v28.477h-5.66677v-28.477h-71.89679v45.04853h26.20868c0.177-5.79191,5.48962-10.45769,12.04181-10.45769s11.68762,4.66578,12.04181,10.45769H1815.132V983.19642h-20.01078l-0.17812,14.319h0Z" transform="translate(0 3.74917)"/><path class="cls-50" d="M1789.27646,997.51545v-14.319h5.66666v14.319h-5.66666Zm-25.14631,14.15819v-28.477h5.66666v28.477h-5.66666Zm-24.43771-14.15819v-14.319h5.66666v14.319h-5.66666Zm-25.14631,14.15819v-28.477h5.66666v28.477h-5.66666Zm-23.19819-14.15819v-14.319h5.66666v14.319h-5.66666Zm-24.96905,14.15819v-28.477h5.66666v28.477h-5.66666Zm-24.615-14.15819v-14.319h5.66666v14.319h-5.66666Zm-25.14609,14.15819v-28.477h5.66666v28.477h-5.66666Zm-24.43793-14.15819v-14.319h5.66666v14.319h-5.66666Zm-24.96905,14.15819v-28.477h5.66666v28.477h-5.66666Zm-24.615-14.15819v-14.319h5.66666v14.319h-5.66666Zm-24.96905,14.15819v-28.477h5.66666v28.477h-5.66666Zm-24.43792-14.15819v-14.319h5.66666v14.319h-5.66666Zm-25.1461,14.15819v-28.477h5.66666v28.477h-5.66666Zm-24.615-14.15819v-14.319h5.66666v14.319h-5.66666Zm-24.96905,14.15819v-28.477h5.66666v28.477h-5.66666Zm-24.43792-14.15819v-14.319h5.66666v14.319h-5.66666Zm-24.96905,14.15819v-28.477h5.66677v28.477h-5.66677Zm-24.615-14.15819v-14.319h5.66677v14.319h-5.66677Zm-24.96905,14.15819v-28.477h5.66677v28.477h-5.66677Z" transform="translate(0 3.74917)"/><path class="cls-51" d="M1319.46777,1011.67364v-28.477h5.66677v28.477h-5.66677Zm24.96905-14.15819v-14.319h5.66677v14.319h-5.66677Zm24.615,14.15819v-28.477h5.66677v28.477h-5.66677Zm24.96905-14.15819v-14.319h5.66666v14.319h-5.66666Zm24.43792,14.15819v-28.477h5.66666v28.477h-5.66666Zm24.96905-14.15819v-14.319h5.66666v14.319h-5.66666Zm24.615,14.15819v-28.477h5.66666v28.477h-5.66666Zm25.1461-14.15819v-14.319h5.66666v14.319h-5.66666Zm24.43792,14.15819v-28.477h5.66666v28.477h-5.66666Zm24.96905-14.15819v-14.319h5.66666v14.319h-5.66666Zm24.615,14.15819v-28.477h5.66666v28.477h-5.66666Zm24.96905-14.15819v-14.319h5.66666v14.319h-5.66666Zm24.43793,14.15819v-28.477h5.66666v28.477h-5.66666Zm25.14609-14.15819v-14.319h5.66666v14.319h-5.66666Zm24.615,14.15819v-28.477h5.66666v28.477h-5.66666Zm24.96905-14.15819v-14.319h5.66666v14.319h-5.66666Zm23.19819,14.15819v-28.477h5.66666v28.477h-5.66666Zm25.14631-14.15819v-14.319h5.66666v14.319h-5.66666Zm24.43771,14.15819v-28.477h5.66666v28.477h-5.66666Zm25.14631-14.15819v-14.319h5.66666v14.319h-5.66666Z" transform="translate(0 3.74917)"/><path class="cls-52" d="M703.92281,617.11244v87.49938H687.94334V617.11244h15.97947ZM722.53969,750.068V791.6457H709.663V750.068h12.87666Z" transform="translate(0 3.74917)"/><path class="cls-53" d="M898.46921,574.13845l-15.51407,8.53274V553.81506s-7.44678-27.30472-37.544-25.44311l-79.27685-13.34206-20.47859-.7757s-18.92718,4.03362-24.0468,26.06361l-1.3963,56.93665s-19.39258,8.06733-20.32339,23.2711v83.00026s0.7757,22.4954,26.83932,24.82251L864.49341,805.143l-0.4654-30.25243,15.97947-37.23376,18.46173,10.08414V574.13845Z" transform="translate(0 3.74917)"/><path d="M1019.47893,574.44875l-1.86171,176.395-24.97766,4.03362v-185.238Z" transform="translate(0 3.74917)"/><path class="cls-31" d="M1009.23964,572.587V752.39512l-5.11962.93081v-181.98Z" transform="translate(0 3.74917)"/><path class="cls-53" d="M1138.3167,554.74587v3.72341l-16.91032,11.94585L1159.571,579.103s11.94585,2.01681,14.58321,13.80756c0,0,6.51593,71.51981,0,128.30136,0,0-.4654,11.63555-10.7047,16.28977-10.08414,4.65422-45.3011,12.25615-45.3011,12.25615l20.78884,16.28977-0.7757,4.49912-65.62449-4.18882-20.16829-15.82437V574.44875l20.63369-16.75517,64.84878-3.87852" transform="translate(0 3.74917)"/><path class="cls-45" d="M1073.15762,557.69358V766.35778l2.94766,0.1551V557.69358h-2.94766Z" transform="translate(0 3.74917)"/><path class="cls-53" d="M1046.31825,574.44875v176.395h-29.32158v-176.395h29.32158Z" transform="translate(0 3.74917)"/><path d="M1052.679,574.44875v176.395h-7.91218v-176.395h7.91218Z" transform="translate(0 3.74917)"/><path class="cls-54" d="M1043.52574,574.44875v3.10281h-25.44306v-3.10281h25.44306Zm0,7.44673v3.10281h-25.44306v-3.10281h25.44306Zm0,6.82623v3.10281h-25.44306v-3.10281h25.44306Zm0,7.44673v3.10281h-25.44306v-3.10281h25.44306Zm0,7.91214v3.10281h-25.44306v-3.10281h25.44306Zm0,7.44673v3.10281h-25.44306v-3.10281h25.44306Zm0,6.82623v3.10281h-25.44306v-3.10281h25.44306Zm0,7.44673v3.10281h-25.44306v-3.10281h25.44306Zm0,7.60193V636.505h-25.44306v-3.10281h25.44306Zm0,7.44673v3.10281h-25.44306v-3.10281h25.44306Zm0,6.98133v3.10281h-25.44306v-3.10281h25.44306Zm0,7.44673v3.10281h-25.44306V655.277h25.44306Zm0,7.13653v3.10281h-25.44306v-3.10281h25.44306Zm0,7.44673v3.10281h-25.44306v-3.10281h25.44306Zm0,6.82613v3.10281h-25.44306V676.6864h25.44306Zm0,7.44683V687.236h-25.44306v-3.10281h25.44306Zm0,7.13643v3.10281h-25.44306v-3.10281h25.44306Zm0,7.44673v3.10281h-25.44306v-3.10281h25.44306Zm0,6.82623v3.10281h-25.44306v-3.10281h25.44306Zm0,7.44673v3.10281h-25.44306v-3.10281h25.44306Zm0,6.671v3.10281h-25.44306v-3.10281h25.44306Zm0,7.44673v3.10281h-25.44306v-3.10281h25.44306Zm0,6.82623v3.10281h-25.44306v-3.10281h25.44306Zm0,7.44673v3.10281h-25.44306v-3.10281h25.44306Zm0,6.82623v2.63741h-25.44306v-2.63741h25.44306Z" transform="translate(0 3.74917)"/><path class="cls-55" d="M906.84679,745.10349V578.32727a15.55968,15.55968,0,0,1,15.51407-15.51407h58.0226a15.55968,15.55968,0,0,1,15.51407,15.51407V745.10349a15.55968,15.55968,0,0,1-15.51407,15.51407h-58.0226A15.55968,15.55968,0,0,1,906.84679,745.10349Z" transform="translate(0 3.74917)"/><path d="M906.84679,574.13845V747.7409h-8.37759V574.13845h8.37759Z" transform="translate(0 3.74917)"/><path class="cls-56" d="M982.09,562.8132v5.74022H933.99641V562.8132H982.09Zm0,12.72155V581.275H933.99641v-5.74022H982.09Zm0,13.187v5.74022H933.99641v-5.74022H982.09Zm0,12.56636v5.74022H933.99641v-5.74022H982.09Zm0,12.56636v5.74022H933.99641v-5.74022H982.09Zm0,12.56645v5.74022H933.99641v-5.74022H982.09Zm0,13.187v5.74022H933.99641v-5.74022H982.09Zm0,12.72155v5.74022H933.99641v-5.74022H982.09Zm0,12.25606v5.74022H933.99641v-5.74022H982.09Zm0,12.56645v5.74022H933.99641V677.1519H982.09Zm0,13.187v5.74022H933.99641v-5.74022H982.09Zm0,12.72146v5.74022H933.99641v-5.74022H982.09Zm0,13.34215v5.74022H933.99641v-5.74022H982.09Zm0,12.72155v5.74022H933.99641V729.124H982.09Zm0,13.187v5.74022H933.99641V742.311H982.09Zm0,12.56636v5.74022H933.99641v-5.74022H982.09Z" transform="translate(0 3.74917)"/><path class="cls-54" d="M925.30853,574.44875v37.07866h-9.61874V574.44875h9.61874Zm0,139.006v37.07866h-9.61874V713.45476h9.61874Zm0-70.27871v37.07866h-9.61874V643.17605h9.61874Z" transform="translate(0 3.74917)"/><path class="cls-57" d="M823.69143,514.5644s21.25429,1.86171,24.82251,23.2711v56.62635s31.33844-4.80932,37.54406,25.13281v78.346s3.41311,26.68421-29.16643,31.18324H833.155s-16.75517,9.46354-2.32711,46.3871c0,0,13.96266,18.92718,46.2319,30.25243s16.60007,50.731-3.87852,62.05627c0,0-60.81516,49.95532-136.36869,14.73836,0,0-24.20191-14.73836-8.37763-35.52725l0.1551-37.85436s-6.98133,2.32711-8.37763-6.51593V737.50147l2.94771-5.42992V696.23409h93.0844s45.6114-14.11776,60.66-38.94027c0,0-21.09909-30.873-56.00575-37.23376H724.71151s1.55141-16.28977,20.78889-23.116V538.1457s3.10281-22.9608,25.44311-23.5814c22.18519-.62041,52.74792.00009,52.74792,0.00009h0Z" transform="translate(0 3.74917)"/><path d="M836.41289,565.916a41.42258,41.42258,0,1,0-41.42258,41.42258A41.41461,41.41461,0,0,0,836.41289,565.916Zm-78.50114,0a37.07866,37.07866,0,1,1,37.07866,37.07866A37.07788,37.07788,0,0,1,757.91175,565.916Z" transform="translate(0 3.74917)"/><path class="cls-58" d="M799.17913,591.359v8.22244H792.9735V591.359h6.20563Z" transform="translate(0 3.74917)"/><circle class="cls-58" cx="793.5941" cy="570.44089" r="14.11776"/><path class="cls-59" d="M729.36583,662.72374a5.27406,5.27406,0,0,1-4.80932-3.25792H707.18073v-3.87852h17.22058a5.10937,5.10937,0,0,1,9.92895,1.70651c0,2.79251-2.17182,5.42992-4.96443,5.42992h0Zm-22.1851-32.114v17.53088h35.37205v18.92718H707.18073v17.68607h43.43939V630.6097H707.18073ZM742.708,706.47343V722.1426h-6.82623V706.47343H742.708Z" transform="translate(0 3.74917)"/><path class="cls-60" d="M796.07632,751.61942V863.78611h-45.3011V751.61942h45.3011Z" transform="translate(0 3.74917)"/><path class="cls-61" d="M744.56969,862.85521v8.53274H736.037v-8.53274h8.53274Zm67.48619-102.23765v22.6505h-9.61874v-22.6505h9.61874Zm0,29.32153v23.5814h-9.61874v-23.5814h9.61874Zm0,29.94223v22.9608h-9.61874v-22.9608h9.61874Z" transform="translate(0 3.74917)"/><path d="M834.241,807.78027v15.82437h-7.44673V807.78027H834.241Zm0,23.5814V848.272h-6.51593V831.36167H834.241Zm0,24.6674v18.15148h-6.51593V856.02907H834.241Z" transform="translate(0 3.74917)"/><circle cx="865.42422" cy="838.21366" r="15.66917"/><circle class="cls-61" cx="739.60517" cy="849.2287" r="4.65422"/><circle class="cls-61" cx="806.31566" cy="866.75958" r="4.96452"/><rect class="cls-3" x="1243.98805" y="1250.94802" width="553.52558" height="49.95762"/><path class="cls-3" d="M1388.03791,1201.12721v46.07164H1243.98958S1245.32344,1191.79017,1388.03791,1201.12721Z" transform="translate(0 3.74917)"/><path class="cls-62" d="M1676.48138,1178.29145h0.01779a99.32991,99.32991,0,0,0,26.6417,8.51894c48.01908,7.56745,74.69634-36.00542,74.69634-36.00542s32.235,30.94563,19.67893,96.39385H1388.03789v-46.07164s181.39651-57.35612,222.74627-74.69634" transform="translate(0 3.74917)"/><path class="cls-3" d="M1676.4992,1178.29143h-0.0178c-36.59234-17.18011-65.69722-51.86056-65.69722-51.86056s11.735-19.34992,22.55117-25.42346C1633.33535,1101.00741,1677.72636,1134.94087,1676.4992,1178.29143Z" transform="translate(0 3.74917)"/><circle class="cls-63" cx="1408.8017" cy="1221.24731" r="10.22629"/><circle class="cls-63" cx="1446.74907" cy="1208.91255" r="10.22629"/><circle class="cls-63" cx="1484.7138" cy="1198.68626" r="10.22629"/><circle class="cls-63" cx="1520.75085" cy="1186.02498" r="10.22629"/><circle class="cls-63" cx="1555.88238" cy="1175.7987" r="10.22629"/><circle class="cls-63" cx="1588.44642" cy="1160.66595" r="10.22629"/><rect x="1436.52278" y="1274.15722" width="360.99086" height="4.00159"/><rect class="cls-64" x="1243.98805" y="1250.94802" width="192.53473" height="49.95762"/><rect x="1243.98958" y="1250.81461" width="553.52406" height="4.00159"/><rect class="cls-6" x="1396.43336" y="1193.55798" width="12.23634" height="29.90424" rx="4.03266" ry="4.03266" transform="matrix(0.86603, -0.5, 0.5, 0.86603, -416.34882, 866.93481)"/><rect class="cls-6" x="1434.61056" y="1181.75255" width="12.23634" height="29.90424" rx="4.03266" ry="4.03266" transform="translate(-405.33127 884.44148) rotate(-30)"/><rect class="cls-6" x="1472.18851" y="1169.00941" width="12.23634" height="32.96241" rx="4.03266" ry="4.03266" transform="translate(-394.68976 901.72808) rotate(-30)"/><rect class="cls-6" x="1508.56244" y="1155.63541" width="12.23634" height="34.19167" rx="4.03266" ry="4.03266" transform="translate(-383.43696 918.20609) rotate(-30.00001)"/><rect class="cls-6" x="1542.74384" y="1144.7274" width="12.23634" height="34.19167" rx="4.03266" ry="4.03266" transform="translate(-373.40345 933.83491) rotate(-30)"/><rect class="cls-6" x="1576.50249" y="1130.64774" width="12.23634" height="34.19167" rx="4.03266" ry="4.03266" transform="matrix(0.86603, -0.5, 0.5, 0.86603, -361.84083, 948.82804)"/><rect class="cls-65" x="2.10815" y="1.87459" width="1873.7837" height="1881.74917"/></svg>