<svg xmlns="http://www.w3.org/2000/svg" viewBox="0 0 556.5 532.5" enable-background="new 0 0 556.5 532.5"><style type="text/css">.st0{fill:#F2F2F2;} .st1{fill:#D2D3D4;} .st2{fill:#424143;} .st3{fill:#80CECA;} .st4{fill:#E6B7D5;} .st5{fill:#FEE56D;} .st6{fill:#E7E7E7;} .st7{fill:#727373;} .st8{fill:#5E5F5F;}</style><path class="st0" d="M448.6 119.5v327.6h-296.1v-408.5h217.2"/><path class="st1" d="M369.7 119.5h79l-79-80.9v80.9z"/><path class="st2" d="M179.1 101.7h82.8v6h-82.8v-6zm0 13.5h82.8v6h-82.8v-6z"/><circle class="st3" cx="186" cy="80.7" r="9.3"/><circle class="st4" cx="220.6" cy="80.7" r="9.3"/><circle class="st5" cx="252.3" cy="80.7" r="9.3"/><path class="st6" d="M369.7 164h145v91.2h-145v-91.2z"/><circle class="st3" cx="388" cy="187.7" r="7.4"/><circle class="st4" cx="415.4" cy="187.7" r="7.4"/><circle class="st5" cx="440.7" cy="187.7" r="7.4"/><path class="st2" d="M380.7 232.4v4.4h74.3v-4.4h-74.3zm0-12.3v4.4h102.6v-4.4h-102.6zm0-12.5v4.4h74.3v-4.4h-74.3z"/><path d="M255.6 489.9h-206.4l18.7-56.6h169.6z"/><path class="st7" d="M57 489.9h192.9v12.5h-192.9z"/><path class="st8" d="M105.9 414.6h96.3v18.7h-96.3z"/><path class="st2" d="M185.9 414.6h-64.3l11.6-19.1h40.4z"/><path class="st4" d="M199.5 226.4c0 1.6 0 3.2-.3 4.9v.3l-2.5 10.6-27.5 118.1v35.3h-32.1v-35.3l-27.3-118.3-2.5-10.6v-.3c-.1-1.6-.3-3.2-.3-4.9 0-25.1 20.3-45.7 45.4-46h.7c25.7-.1 46.4 20.6 46.4 46.2z"/></svg>