<?xml version="1.0" encoding="utf-8"?>
<!-- Generator: Adobe Illustrator 19.2.1, SVG Export Plug-In . SVG Version: 6.00 Build 0)  -->
<svg version="1.1" id="Layer_1" xmlns="http://www.w3.org/2000/svg" xmlns:xlink="http://www.w3.org/1999/xlink" x="0px" y="0px"
	 viewBox="0 0 556.5 532.5" style="enable-background:new 0 0 556.5 532.5;" xml:space="preserve">
<style type="text/css">
	.st0{fill:#F2F2F2;}
	.st1{fill:#D2D3D4;}
	.st2{fill:#424143;}
	.st3{fill:#80CECA;}
	.st4{fill:#E6B7D5;}
	.st5{fill:#FEE56D;}
	.st6{fill:#E7E7E7;}
	.st7{fill:#727373;}
	.st8{fill:#5E5F5F;}
</style>
<path class="st0" d="M448.6,119.5v327.6H152.5V38.6h217.2"/>
<path class="st1" d="M369.7,119.5h79l-79-80.9V119.5z"/>
<path class="st2" d="M179.1,101.7h82.8v6h-82.8L179.1,101.7z M179.1,115.2h82.8v6h-82.8L179.1,115.2z"/>
<circle class="st3" cx="186" cy="80.7" r="9.3"/>
<circle class="st4" cx="220.6" cy="80.7" r="9.3"/>
<circle class="st5" cx="252.3" cy="80.7" r="9.3"/>
<path class="st6" d="M369.7,164h145v91.2h-145V164z"/>
<circle class="st3" cx="388" cy="187.7" r="7.4"/>
<circle class="st4" cx="415.4" cy="187.7" r="7.4"/>
<circle class="st5" cx="440.7" cy="187.7" r="7.4"/>
<path class="st2" d="M380.7,232.4v4.4H455v-4.4H380.7z M380.7,220.1v4.4h102.6v-4.4H380.7z M380.7,207.6v4.4H455v-4.4H380.7z"/>
<polygon points="255.6,489.9 49.2,489.9 67.9,433.3 237.5,433.3 "/>
<rect x="57" y="489.9" class="st7" width="192.9" height="12.5"/>
<rect x="105.9" y="414.6" class="st8" width="96.3" height="18.7"/>
<polygon class="st2" points="185.9,414.6 121.6,414.6 133.2,395.5 173.6,395.5 "/>
<path class="st4" d="M199.5,226.4c0,1.6,0,3.2-0.3,4.9v0.3l-2.5,10.6l-27.5,118.1v35.3h-32.1v-35.3L109.8,242l-2.5-10.6v-0.3
	c-0.1-1.6-0.3-3.2-0.3-4.9c0-25.1,20.3-45.7,45.4-46h0.7C178.8,180.1,199.5,200.8,199.5,226.4z"/>
</svg>
