<?xml version="1.0" encoding="utf-8"?>
<!-- Generator: Adobe Illustrator 19.2.1, SVG Export Plug-In . SVG Version: 6.00 Build 0)  -->
<svg version="1.1" id="Layer_1" xmlns="http://www.w3.org/2000/svg" xmlns:xlink="http://www.w3.org/1999/xlink" x="0px" y="0px"
	 viewBox="0 0 463.5 443.5" style="enable-background:new 0 0 463.5 443.5;" xml:space="preserve">
<style type="text/css">
	.st0{fill:#454B4F;}
	.st1{fill:#FEE56D;}
	.st2{fill:#E6B7D5;}
	.st3{fill:#F5F5F5;}
	.st4{fill:#BCBEC0;}
	.st5{fill:#D1D3D4;}
	.st6{fill:#00B0B0;}
	.st7{fill:#80CECA;}
	.st8{fill:#029E96;}
	.st9{fill:#231F20;}
	.st10{fill:#2D2D2D;}
	.st11{fill:#F1F2F2;}
	.st12{fill:#CECECE;}
</style>
<polygon class="st0" points="77,37 69.3,37 69.3,37.2 60.8,37 68.8,11.2 69.3,12.9 69.3,13.1 "/>
<rect x="46.2" y="383.8" class="st0" width="45.9" height="27.4"/>
<rect x="46.2" y="84.5" class="st1" width="45.9" height="299.2"/>
<path class="st2" d="M88,411.2v18.2c0,1.7-1.1,2.9-2.3,2.9H69.2v0.3H51.1c-1-0.2-1.9-1.4-1.9-3v-18.2h20v-0.2H88z"/>
<polygon class="st3" points="92.2,84.4 46.2,84.4 60.8,37 77,37 "/>
<polygon class="st3" points="46.2,84.4 46.2,84.5 46.2,84.4 "/>
<path class="st4" d="M241.8,322.3v21.8c0,1.2-0.8,2-2,2h-18.1v0.1h-18.8c-1.2,0-2-0.8-2-2v-21.8c0-1.2,0.8-2,2-2h18.7v-0.1h18.2
	C240.8,320.4,241.8,321.1,241.8,322.3z"/>
<path class="st5" d="M225.4,433c0,1.8-1.4,3.5-3,3.8v-44.4c2.4-0.5,4.1-2.3,4.1-4.8c0-2.6-2.3-4.8-4.8-4.8h-0.3v-0.2
	c-2.6,0.2-4.4,2.4-4.4,4.8c0,2.3,1.7,4.1,3.6,4.7v44.4c-1.7-0.5-2.9-2-2.9-3.6c0-1.6,1.1-2.9,2.3-3.5l-18.7-42l4.8-41.4h15.4v0.2
	h15.1l5,41.4l-19,41.9C224.4,429.9,225.4,431.2,225.4,433z"/>
<path class="st6" d="M221.6,12.5C221.5,12.5,221.5,12.5,221.6,12.5L221.6,12.5C221.5,12.5,221.5,12.5,221.6,12.5z"/>
<path class="st7" d="M233.6,320.4h-25.2c0,0-27.9-86.6,8.6-301.9c0,0,1-4.9,4.5-5.9c0,0,0,0,0.1,0c0,0,0.1,0,0.1,0.1
	c0.8,0.3,3,1.5,4.5,5.9C227.8,24.1,255.1,193.2,233.6,320.4z"/>
<path class="st8" d="M221.7,12.5L221.7,12.5c0,0.1-0.1,0-0.1,0C221.6,12.5,221.7,12.5,221.7,12.5z"/>
<path class="st9" d="M418.2,415.6v11.7c0,3.8-2.4,7.1-5.4,7.1h-73.9c-3,0-5.4-3.2-5.4-7.1v-11.7H418.2z"/>
<path class="st10" d="M418.2,115v10.4h-42.5V115H418.2z"/>
<path class="st9" d="M375.8,115v10.4h-42.2V115H375.8z"/>
<rect x="333.6" y="125.6" class="st11" width="84.6" height="5.6"/>
<rect x="333.6" y="131.3" class="st9" width="84.6" height="278.7"/>
<rect x="333.6" y="409.8" class="st11" width="84.6" height="5.6"/>
<polygon class="st4" points="418.2,115 375.8,115 375.8,115.2 333.6,115.2 353.8,60.5 375.7,60.5 375.7,60.4 397.1,60.4 "/>
<rect x="357.1" y="37.6" class="st12" width="37.3" height="22.9"/>
<polygon class="st9" points="390.8,9 390.8,37.6 360.7,37.6 360.7,19.5 375.7,14.4 375.7,14.4 "/>
</svg>
