<svg id="Layer_1" data-name="Layer 1" xmlns="http://www.w3.org/2000/svg" viewBox="0 0 372 427.8"><defs><style>.cls-1{fill:#454b4f;}.cls-2{fill:#fee56d;}.cls-3{fill:#e6b7d5;}.cls-4{fill:#f5f5f5;}.cls-5{fill:#bcbec0;}.cls-6{fill:#d1d3d4;}.cls-7{fill:#00b0b0;}.cls-8{fill:#029e96;}.cls-9{fill:#231f20;}.cls-10{fill:#2d2d2d;}.cls-11{fill:#f1f2f2;}.cls-12{fill:#cecece;}</style></defs><title>illustration</title><path class="cls-1" d="M77,37H69.3v0.2L60.8,37l8-25.8,0.5,1.7v0.2ZM46.2,383.8H92.1v27.4H46.2V383.8Z" transform="translate(-46.2 -9)"/><path class="cls-2" d="M46.2,84.5H92.1V383.7H46.2V84.5Z" transform="translate(-46.2 -9)"/><path class="cls-3" d="M88,411.2v18.2c0,1.7-1.1,2.9-2.3,2.9H69.2v0.3H51.1a2.9,2.9,0,0,1-1.9-3V411.4h20v-0.2H88Z" transform="translate(-46.2 -9)"/><path class="cls-4" d="M92.2,84.4h-46L60.8,37H77Zm-46,0v0Z" transform="translate(-46.2 -9)"/><path class="cls-5" d="M241.8,322.3v21.8a1.89,1.89,0,0,1-2,2H221.7v0.1H202.9a1.89,1.89,0,0,1-2-2V322.4a1.89,1.89,0,0,1,2-2h18.7v-0.1h18.2a2.07,2.07,0,0,1,2,2h0Z" transform="translate(-46.2 -9)"/><path class="cls-6" d="M225.4,433a4,4,0,0,1-3,3.8V392.4a4.84,4.84,0,0,0,4.1-4.8,4.94,4.94,0,0,0-4.8-4.8h-0.3v-0.2a4.79,4.79,0,0,0-4.4,4.8,5.07,5.07,0,0,0,3.6,4.7v44.4a3.91,3.91,0,0,1-2.9-3.6,4.05,4.05,0,0,1,2.3-3.5l-18.7-42,4.8-41.4h15.4v0.2h15.1l5,41.4-19,41.9a3.36,3.36,0,0,1,2.8,3.5h0Z" transform="translate(-46.2 -9)"/><path class="cls-7" d="M221.6,12.5" transform="translate(-46.2 -9)"/><path class="cls-3" d="M233.6,320.4H208.4S180.5,233.8,217,18.5c0,0,1-4.9,4.5-5.9h0.1a0.1,0.1,0,0,1,.1.1c0.8,0.3,3,1.5,4.5,5.9,1.6,5.5,28.9,174.6,7.4,301.8h0Z" transform="translate(-46.2 -9)"/><path class="cls-8" d="M221.7,12.5c0,0.1-.1,0-0.1,0h0.1Z" transform="translate(-46.2 -9)"/><path class="cls-9" d="M418.2,415.6v11.7c0,3.8-2.4,7.1-5.4,7.1H338.9c-3,0-5.4-3.2-5.4-7.1V415.6h84.7Z" transform="translate(-46.2 -9)"/><path class="cls-10" d="M418.2,115v10.4H375.7V115h42.5Z" transform="translate(-46.2 -9)"/><path class="cls-9" d="M375.8,115v10.4H333.6V115h42.2Z" transform="translate(-46.2 -9)"/><path class="cls-11" d="M333.6,125.6h84.6v5.6H333.6v-5.6Z" transform="translate(-46.2 -9)"/><path class="cls-9" d="M333.6,131.3h84.6V410H333.6V131.3Z" transform="translate(-46.2 -9)"/><path class="cls-11" d="M333.6,409.8h84.6v5.6H333.6v-5.6Z" transform="translate(-46.2 -9)"/><path class="cls-5" d="M418.2,115H375.8v0.2H333.6l20.2-54.7h21.9V60.4h21.4Z" transform="translate(-46.2 -9)"/><path class="cls-12" d="M357.1,37.6h37.3V60.5H357.1V37.6Z" transform="translate(-46.2 -9)"/><path class="cls-9" d="M390.8,9V37.6H360.7V19.5l15-5.1Z" transform="translate(-46.2 -9)"/></svg>