<svg xmlns="http://www.w3.org/2000/svg" viewBox="0 0 360 360" enable-background="new 0 0 360 360"><path d="M63.6 146.7h67.5c-10.1 15.5-13.4 31.9-8.8 49.5 3.4 13.1 10.6 23.8 21.3 32 21.5 16.6 51.6 16.5 72.8-.2 12.4-9.8 20-22.6 22.4-38.2 2.3-15.5-1.3-29.8-10.2-43.1h67.9v104.6c0 25.2-20.5 45.7-45.7 45.7h-141.5c-25.2 0-45.7-20.4-45.7-45.7v-104.6zm0-7.5c0-5.1-.1-10.1 0-15.1.2-7.8-.2-15.8.9-23.5 1.5-11.5 7.6-20.6 16.6-27.9.4-.3.8-.6 1.2-.8l.8-.1v48.9h9.3v-50.6c0-4.2 0-4.2 4.2-5.4.7-.2 1.4-.3 2.5-.6v56.5h9.5v-57.5h6.4v57.5h9.7v-57.7h126.6c24.1 0 44.5 19.7 45.2 43.9.3 10.7.1 21.4.1 32.5h-2.9c-22.9 0-45.8 0-68.7-.1-1.4 0-3.1-.7-4.2-1.7-23.4-21.6-58.8-21.5-81.9.3-.8.7-2.1 1.4-3.2 1.4-23.4.1-46.8.1-70.2.1-.6.1-1.1-.1-1.9-.1zm172.2-37.1c0 4.3-.1 8.5 0 12.8.1 4.5 3 7.4 7.6 7.4h24.1c4.7 0 7.7-2.9 7.8-7.5.1-8.3.1-16.6 0-25 0-4.5-2.9-7.5-7.5-7.6-8.2-.1-16.5-.1-24.7 0-4.5.1-7.3 3.2-7.3 7.7v12.2zm-55.8 33.1c25.3 0 45.8 20.7 45.8 46-.1 25.6-20.6 45.9-46.5 45.8-25 0-45.6-20.8-45.5-46 .1-25.4 20.7-45.9 46.2-45.8zm-.1 12c-19 .1-33.8 15.3-33.7 34.7.1 18.1 15.5 33.1 33.9 33.1 19-.1 33.8-15.3 33.7-34.7-.1-18.2-15.5-33.2-33.9-33.1z" fill="#383838"/></svg>