<svg xmlns="http://www.w3.org/2000/svg" viewBox="0 0 738.41433 652.10938"><defs><style>.cls-1{fill:#3efdde;}</style></defs><title>logo</title><path d="M549.303 591.233q-.622 0-1.256-.022c-11.767-.414-22.096-7.179-28.342-18.558a52.322 52.322 0 0 1-5.293-33.372c-6.822-.475-19.361-4.193-21.858-24.653-.344-2.822-.643-5.395-.916-7.755-2.136-18.43-2.404-20.734-10.479-27.677-9.418-3.685-23.39-15.13-25.972-37.922l-.587.009a17.207 17.207 0 0 1-12.751-5.384c-5.188-5.434-7.418-14.409-6.813-27.44l.044-.947.102-.393c-1.203-1.293-2.599-2.877-3.933-4.425a49.04 49.04 0 0 1-22.581 5.418 53.175 53.175 0 0 1-11.049-1.183 38.527 38.527 0 0 1-14.445 7.656 30.692 30.692 0 0 1-5.471 14.018c-5.011 6.961-12.745 11.501-23.04 13.537-3.323 8.774-10.073 27.642-11.794 40.391-1.224 9.073 2.718 17.115 6.891 25.629 2.611 5.327 5.311 10.834 6.597 16.619 2.256 10.149-.172 21.227-6.336 28.911-5.592 6.972-13.944 10.811-23.515 10.811a41.645 41.645 0 0 1-7.42-.695c-8.514-1.548-19.047-4.488-24.974-13.547-3.811-5.826-5.911-13.465-3.968-28.788-6.886 2.809-15.143 5.122-23.661 5.122-15.588.001-35.803-7.449-44.9-42.346a60.737 60.737 0 0 1-15.238-20.214c-6.152-13.305-9.843-34.936 7.521-62.431l.086-.137 3.434-5.032c.507-9.995 4.349-41.671 32.003-68.733-2.035-16.058-5.856-66.73 20.28-103.398.022-12.833 2.052-59.26 28.934-88.966-1.617-13.924-2.768-53.699 32.05-76.743l.248-.158c.684-.422 16.954-10.322 35.347-10.322a48.317 48.317 0 0 1 7.834.626c7.909-5.033 28.03-16.065 52.46-16.065a76.535 76.535 0 0 1 37.35 9.602 74.291 74.291 0 0 1 26.506 19.548c10.917 12.541 22.746 34.631 18.817 69.568 9.048 9.011 28.063 34.645 26.469 89.936 10.473 7.971 33.29 31.218 34.296 82.901 9.593 7.669 31.434 29.621 28.747 68.889a102.681 102.681 0 0 1 17.589 21.674c11.62 19.543 12.846 39.123 3.635 56.914 2.633 7.892 6.544 24.618-.916 39.57-5.962 11.947-17.446 19.871-34.135 23.547a64.503 64.503 0 0 1-12.847 1.39l-.624-.004c.519 8.263 1.873 17.41 4.547 21.971 6.057 10.332 5.701 26.714-.826 38.107a28.722 28.722 0 0 1-25.846 14.946z" transform="translate(-48.795 -32.674)"/><path class="cls-1" d="M605.478 446.155c7.073-27.665-16.791-56.629-17.85-57.64a13.655 13.655 0 0 1-.385 1.925 12.499 12.499 0 0 1-.481 1.925 13.498 13.498 0 0 1-.77 2.357 28.009 28.009 0 0 1-2.021 4.619 34.333 34.333 0 0 1-2.502 4.282c-4.908 7.506-11.355 13.183-14.674 15.011.337-1.155 9.719-12.124 13.231-26.414a81.788 81.788 0 0 0 2.021-14.915 74.084 74.084 0 0 0-4.811-29.253 92.031 92.031 0 0 0-6.062-13.52 105.849 105.849 0 0 0-8.66-12.557 22.4 22.4 0 0 0-6.88-6.351c-.289.722-.577 1.155-.722 1.636-.914 3.705-1.732 7.506-2.694 11.21-.77 2.791-3.368 10.537-5.196 10.296a70.962 70.962 0 0 1 .481-7.265c.625-4.426 1.01-8.853-.048-13.327a15.127 15.127 0 0 1 .144-3.608c.144-6.736.192-13.039-.048-18.908l-.144-3.464c-.144-3.368-.385-6.591-.77-9.671-.144-1.395-.337-2.742-.529-4.042-.193-1.684-.481-3.32-.77-4.907-.337-1.876-.722-3.657-1.203-5.437-.192-.914-.433-1.828-.674-2.694a26.962 26.962 0 0 0-.818-2.598c-.192-.625-.385-1.203-.577-1.78a58.082 58.082 0 0 0-2.839-6.832c-.481-.962-1.01-1.925-1.54-2.839-.529-.962-1.107-1.924-1.684-2.79-.577-.914-1.203-1.828-1.828-2.694a4.689 4.689 0 0 0-.77-1.01c-.722-.962-1.492-1.925-2.357-2.887a49.198 49.198 0 0 0-5.485-5.485 42.205 42.205 0 0 0-3.56-2.887 30.974 30.974 0 0 0-.962 3.464 29.687 29.687 0 0 0-.577 2.983c-.096.529-.144 1.107-.192 1.684a2.415 2.415 0 0 0-.096.578c-.096.866-.144 1.684-.192 2.55-.096 1.54-.096 3.031-.048 4.523 0 1.01.048 2.021.096 2.983.096 1.395.193 2.791.337 4.138.048.674.144 1.347.241 2.021.722 5.87 1.828 10.873 2.165 13.568a5.551 5.551 0 0 1 .096.77 1.653 1.653 0 0 1-.096 1.251 3.33 3.33 0 0 1-1.347-1.828 15.308 15.308 0 0 1-.962-2.165c-.818-2.069-1.636-4.619-2.261-6.399-.096-.241-.192-.481-.289-.673-.096-.241-.144-.433-.241-.625a56.365 56.365 0 0 1-3.272-9.719 22.325 22.325 0 0 1-.529-2.454c-.144-.577-.241-1.155-.337-1.732-.192-1.01-.337-1.973-.433-2.983a2.855 2.855 0 0 1-.096-.674c-.241-1.684-.385-3.368-.481-5.1v-.24c-.096-1.636-.144-3.272-.144-4.956 0-3.224.096-6.495.337-9.767.144-2.165 1.01-5.533 1.395-7.65.385-2.165.625-4.282.818-6.351.144-1.492.241-2.887.289-4.33a70.914 70.914 0 0 0-1.684-19.438c-.241-1.058-.481-2.117-.77-3.127a68.658 68.658 0 0 0-4.186-11.403c-.289-.625-.577-1.203-.866-1.78a75.296 75.296 0 0 0-6.688-10.778c-.674-.866-1.299-1.636-1.876-2.357-1.01-1.203-1.925-2.261-2.791-3.175l-.962-1.01a14.124 14.124 0 0 0-1.203-1.203 3.263 3.263 0 0 0-.577-.577c-.722-.722-1.203-1.203-1.347-1.395-12.846 10.008-13.327 39.645-14.097 40.608a62.317 62.317 0 0 1-2.213-11.98 97.635 97.635 0 0 1 .433-10.633 62.65 62.65 0 0 1 4.474-18.957c.962-2.454 1.924-4.908 2.694-7.409 1.251-3.993 2.261-8.035 3.56-11.98 1.828-5.773 3.175-11.499 2.213-17.657-.673-4.378-2.55-8.323-3.656-12.509q-.722-2.598-1.588-5.052a38.093 38.093 0 0 0-1.636-4.09 10.993 10.993 0 0 0-.481-1.107c-.625-1.347-1.299-2.694-2.021-3.945-.77-1.395-1.636-2.742-2.502-4.042a35.939 35.939 0 0 0-2.309-3.031 9.232 9.232 0 0 0-1.251-1.54 16.531 16.531 0 0 0-1.78-1.925 5.719 5.719 0 0 0-.914-.962c-.962-.962-1.925-1.876-2.935-2.742a.67.67 0 0 0-.193-.144 31.089 31.089 0 0 0-3.272-2.502 5.672 5.672 0 0 0-1.155-.818 17.413 17.413 0 0 0-1.973-1.299 18.22 18.22 0 0 0-1.636-.962 13.447 13.447 0 0 0-1.636-.866 19.136 19.136 0 0 0-1.973-1.01 54.16 54.16 0 0 0-7.169-2.839c-.914-.289-1.876-.529-2.791-.77a.265.265 0 0 0-.241-.096q-1.876-.505-3.753-.866a3.331 3.331 0 0 0-.962-.144c-1.155-.241-2.358-.433-3.561-.577q-2.165-.289-4.33-.433a74.865 74.865 0 0 0-15.974.77 39.197 39.197 0 0 0-5.774 1.299l-1.732.577c-.529.192-1.107.385-1.588.577a37.276 37.276 0 0 0-7.409 3.801l-.866.577c-.529.385-.914.674-1.299.962l-.481.385-.722.625a38.05 38.05 0 0 1 5.292 3.32c.481.337.962.722 1.444 1.107a33.028 33.028 0 0 1 4.907 4.763 32.434 32.434 0 0 1 2.791 3.705 37.609 37.609 0 0 1 2.165 3.753l.048.144c.241.433.433.866.625 1.299a51.203 51.203 0 0 1 3.945 17.417c.481 4.956.385 9.959.529 14.963.096 5.292.192 10.585 2.742 15.492a5.171 5.171 0 0 1-1.059-.625 2.899 2.899 0 0 1-.674-.529 21.235 21.235 0 0 1-5.485-8.42 19.787 19.787 0 0 1-.674-2.021 16.197 16.197 0 0 1-.481-1.636 17.191 17.191 0 0 1-.433-1.684 63.753 63.753 0 0 1-1.203-8.66c-.337-5.581-1.01-16.695-10.104-24.778-2.646-2.357-5.196-4.811-8.035-6.928-5.533-4.138-45.948-17.369-66.925 18.379-.577 1.01-1.155 2.117-1.732 3.224-.577 1.107-1.107 2.261-1.636 3.464a70.439 70.439 0 0 0-2.935 7.65c-.241.625-.433 1.251-.625 1.924-.385 1.251-.77 2.502-1.107 3.849a37.893 37.893 0 0 0-1.155 12.51 25.569 25.569 0 0 0 .433 3.32q.072.505.144.866a12.427 12.427 0 0 0 .289 1.347c.096.385.144.625.193.77a1.418 1.418 0 0 0 .385-.385 2.171 2.171 0 0 0 .433-.481 69.614 69.614 0 0 0 4.571-7.939c1.443-2.839 2.694-5.34 2.887-5.485a7.176 7.176 0 0 1 .096 2.598 10.338 10.338 0 0 1-.096 1.107q-.072.433-.144 1.01a7.691 7.691 0 0 1-.289 1.443c-.096.481-.241 1.01-.385 1.588-.144.529-.337 1.107-.529 1.684-.193.577-.433 1.203-.674 1.828s-.529 1.251-.866 1.924a14.502 14.502 0 0 1-.866 1.732c-1.588 2.79-2.935 5.822-4.523 8.66l-.193.337c-.866 1.443-1.684 2.887-2.598 4.33a42.105 42.105 0 0 1-2.406 3.561 24.063 24.063 0 0 0-2.309 3.608c-.866 1.492-1.636 3.031-2.598 4.474-1.058 1.684-2.069 3.416-2.983 5.244-1.155 2.31-2.165 4.667-3.127 7.025-.914 2.357-1.732 4.763-2.502 7.169-.866 2.742-1.684 5.437-2.454 8.179a12.093 12.093 0 0 0-.337 1.251c-.337 1.203-.625 2.357-.914 3.56a9.146 9.146 0 0 0-.241 1.107c-.289 1.299-.529 2.646-.77 3.945a78.15 78.15 0 0 0-1.01 9.478c-.096 1.588-.144 3.224-.144 4.811.048 3.849-.048 7.698.048 11.499a107.187 107.187 0 0 1-4.33 33.15 2.288 2.288 0 0 1-.529.289c-.289-3.705-.625-7.313-.818-10.97-.192-3.657.577-7.41-1.347-11.162a2.893 2.893 0 0 0-.962 1.203c-1.684 2.646-3.32 5.389-5.052 7.987-.674 1.01-1.299 1.973-1.876 2.983-.481.818-.962 1.636-1.347 2.454a69.828 69.828 0 0 0-7.987 23.623c-.144.914-.241 1.828-.337 2.694-.096.962-.192 1.925-.241 2.887a60.369 60.369 0 0 0-.144 6.399l.048 1.539q.072 1.443.144 2.454c.289 5.1-.048 10.248.673 15.204a163.271 163.271 0 0 1 .866 35.604 175.971 175.971 0 0 1-4.33 25.548c-.192-.577-.625-5.052-1.492-11.451-.144-1.251-.337-2.55-.481-3.945a2.415 2.415 0 0 1-.096-.577c-.241-1.54-.481-3.224-.77-4.908a3.59 3.59 0 0 0-.144-.962l-.577-3.416c-.193-1.155-.385-2.357-.625-3.512-1.54 1.347-2.55 2.117-3.416 3.031a122.629 122.629 0 0 0-12.654 16.359 64.491 64.491 0 0 0-4.186 7.169c-.433.866-.818 1.78-1.203 2.646-.385.866-.722 1.684-1.01 2.55-.289.674-.529 1.395-.77 2.117q-.649 2.021-1.155 4.042a55.442 55.442 0 0 0-1.443 7.891c-.144 1.347-.241 2.694-.337 4.041-.096 1.636-.144 3.272-.096 4.908 0 1.684.048 3.32.193 5.004.481 7.217 2.357 14.434 3.656 21.603 1.01 5.533 2.454 10.97 2.117 16.599-.144 2.117-2.069 8.131-3.656 8.131a81.844 81.844 0 0 0-.481-9.863c-.241-1.395-.529-2.742-.818-4.09-.289-1.395-.577-2.742-.914-4.09-.625-2.742-1.251-5.437-1.925-8.179-1.155-4.715-4.667-14.482-4.763-14.626-.385 3.127-8.131 16.166-11.114 30.744a54.051 54.051 0 0 0-.866 5.485c-.096.962-.192 1.876-.241 2.79a8391759.79 8391759.79 0 0 0-.096 1.828v.962q0 1.804.144 3.608c.77 8.757 4.667 17.08 14.097 23.239 1.155-2.213 0-7.073-.722-16.84.289 0 3.56 2.839 4.956 15.204.529 4.908 1.732 9.815 2.598 14.723a25.119 25.119 0 0 0 7.073 13.231c3.993 3.993 8.949 6.399 14.049 8.42 5.004 1.973 10.2 1.732 15.396 1.347 8.083-.625 15.252-3.368 20.785-9.574a54.347 54.347 0 0 0 9.045-15.108c4.811-11.643 9.623-15.204 10.344-14.193-.289.577-2.839 4.234-3.464 5.629-2.117 4.715-3.897 9.238-1.876 14.819a39.652 39.652 0 0 1 1.636 19.871c-.289 1.78-.529 3.608-.722 5.437-.433 3.224-.77 6.447-1.059 9.671-.481 5.774 1.443 10.296 6.928 13.135 2.021 1.059 4.09.914 6.207.914 5.629 0 8.756-3.32 9.959-8.131a24.442 24.442 0 0 0-.337-11.788c-.337-1.299-.674-2.55-1.01-3.801-.577-2.165-1.251-4.33-1.973-6.447-4.908-14.53-3.079-28.723 1.924-42.772l6.255-16.984c.481-1.299.914-2.598 1.347-3.897a76.335 76.335 0 0 0 2.117-9.286 2.678 2.678 0 0 0-1.636-3.079c-1.684-.722-3.32-1.588-4.956-2.406a16.121 16.121 0 0 1-7.602-8.083c-2.406-6.351-2.983-13.279 1.636-18.716a39.141 39.141 0 0 0 4.619-6.88 34.069 34.069 0 0 0 2.021-4.571c.241-.625.433-1.203.625-1.78.385-1.155.722-2.261.962-3.272a4.003 4.003 0 0 1 .193-.722 1.928 1.928 0 0 1 .144-.722 12.371 12.371 0 0 1 .241-1.299 2.415 2.415 0 0 1 .096-.577l.144-1.058c.144-1.155.193-1.876.193-2.117a45.51 45.51 0 0 1 .77 5.774c.048.577.096 1.107.096 1.588a32.625 32.625 0 0 1-.192 5.437c-.048.577-.144 1.155-.241 1.732q-.144.866-.289 1.588a9.423 9.423 0 0 0-.241.962c-.192.77-.385 1.443-.577 2.069a5.81 5.81 0 0 0-.241.674c-.289.914-.625 1.78-.914 2.55-.818 2.117-1.492 3.753-1.443 5.293a13.303 13.303 0 0 0 4.571 10.296c3.127 2.55 7.024 3.512 11.018 3.801a6.697 6.697 0 0 0 3.705-.866c8.708-4.715 11.018-7.794 9.815-17.898-.289-2.309-.722-4.571-.914-6.88a26.155 26.155 0 0 1-.144-2.742v-.625a34.85 34.85 0 0 1 .337-3.801c.096-.433.193-.914.289-1.395a13.21 13.21 0 0 1 .385-1.78c.337-1.492.77-3.031 1.251-4.523l1.01-2.887c.337-.962.722-1.876 1.107-2.742s.722-1.732 1.107-2.55c.337-.77.722-1.54 1.059-2.213a27.712 27.712 0 0 1 2.502-4.426 2.748 2.748 0 0 1-.144 1.924c-.096.385-.241.866-.385 1.395-.529 1.828-1.299 4.186-2.021 6.832-.193.625-.385 1.299-.529 1.973-.193.866-.385 1.78-.577 2.694a17.505 17.505 0 0 0-.337 2.213 2.816 2.816 0 0 0-.096.625l-.096.962c-.048.674-.096 1.347-.096 2.021a18.509 18.509 0 0 0 .481 4.378c.529 2.165.962 2.79 3.32 2.646a25.512 25.512 0 0 0 6.255-1.107c3.176-.962 6.351-2.165 9.43-3.416a53.66 53.66 0 0 0 9.286-5.196 28.246 28.246 0 0 0 4.619-3.897c.433-.433.818-.866 1.203-1.299a43.137 43.137 0 0 0 4.378-6.014c.385-.722.77-1.443 1.155-2.117.577-1.107 1.059-2.165 1.492-3.127 1.251-2.887 1.876-4.956 2.069-5.244a18.734 18.734 0 0 1 .529 7.41 4.098 4.098 0 0 1-.144 1.107 12.351 12.351 0 0 1-.337 1.925v.048c-.77 3.753-2.117 7.313-2.791 11.018a16.163 16.163 0 0 0 1.925.577c.914.144 1.828.241 2.742.337 9.238 1.01 17.657-2.165 25.837-6.543.722-.385 1.395-.77 2.069-1.155a.672.672 0 0 1 .192-.144c.722-.433 1.395-.914 2.069-1.395.866-.625 1.684-1.251 2.502-1.973 4.523-3.945 5.485-4.426 9.142-18.091.385 2.069 5.887 21.51-15.011 32.428.385.674.577 1.155.818 1.588a46.148 46.148 0 0 0 9.863 11.932 4.443 4.443 0 0 1 1.299 4.523 46.88 46.88 0 0 0-1.492 6.351 19.873 19.873 0 0 0 1.01 9.623c.481 1.395 1.299 2.742 2.983 2.598 2.069-.193 4.33-.529 5.87-2.117 1.876-2.021 3.657-4.186 4.042-7.025a33.297 33.297 0 0 0 .096-6.928c-.385-4.041-1.54-8.035-.048-12.028a4.449 4.449 0 0 1 2.213-2.791 22.292 22.292 0 0 0 4.234-2.261 20.445 20.445 0 0 0 8.131-16.07c0-.818.144-1.684.289-3.272.962 1.203 2.309 9.43 1.492 12.702a19.153 19.153 0 0 1-4.234 7.313c-3.32 3.849-3.897 7.939-2.502 12.75a49.127 49.127 0 0 1 1.588 9.574c.529 6.255-.192 12.51-1.107 18.668a36.79 36.79 0 0 0 5.148 25.259c3.608 6.062 14.241 12.173 18.331 13.424a24.571 24.571 0 0 1 10.056 6.014 1.128 1.128 0 0 1 .241.241c4.09 3.801 6.158 7.265 6.303 7.842-2.069-1.395-5.196-3.608-7.121-5.052a20.539 20.539 0 0 0-1.828-1.251c.529.914 1.01 1.828 1.444 2.694 2.935 5.918 4.041 11.258 2.935 21.362-1.684 15.444 6.303 21.94 12.221 12.413 2.502-3.993 2.117-16.021 5.1-22.132 2.935-5.966 12.317-5.389 13.135 2.502 1.539 14.723 1.299 21.555-4.042 39.838a50.392 50.392 0 0 0-1.588 19.245 25.707 25.707 0 0 0 3.657 11.259 7.438 7.438 0 0 0 7.073 3.175c6.399-.914 11.066-4.041 13.423-10.2 2.309-6.255 1.347-12.557-.337-18.62a201.887 201.887 0 0 1-5.052-22.613c-1.636-10.537 1.058-20.737 8.468-28.291a48.999 48.999 0 0 0 9.863-15.155c1.732 13.231-7.409 20.015-7.025 22.18 27.328 2.694 36.855-10.392 36.759-26.991-.048-13.905-6.928-30.359-15.733-41.907 7.699 4.378 13.568 10.681 19.582 17.85zm-305.279-46.285c-8.997 15.492-6.591 34.93-4.234 48.306l.385 2.165c.241 1.203.433 2.357.625 3.464l.144.722c.192 1.155.385 2.213.529 3.175a29.424 29.424 0 0 1 .385 4.042 28.384 28.384 0 0 1-1.251 7.169 14.065 14.065 0 0 1-7.602 8.708c-5.196 2.454-10.585 4.186-16.455 3.56a10.409 10.409 0 0 1-1.203-.192 11.091 11.091 0 0 1-2.069-.577 5.264 5.264 0 0 1-1.107-.433 3.639 3.639 0 0 1-.866-.433 13.795 13.795 0 0 1-4.763-4.138l-.529-.77a10.197 10.197 0 0 1-1.01-1.732 18.686 18.686 0 0 1-.818-1.973 4.567 4.567 0 0 1-.337-1.155 13.702 13.702 0 0 1-.385-1.636c-.096-.481-.192-.962-.241-1.444a14.926 14.926 0 0 1-.192-1.539c-.048-.674-.096-1.395-.096-2.165v-.193c0-.914.048-1.876.144-2.839.048-.674.144-1.299.241-1.973.144-1.155.385-2.357.674-3.656.096-.481.192-.962.337-1.444a41.839 41.839 0 0 1 1.347-4.715l.048-.192c1.395-4.282 4.426-9.671 5.677-13.953a59.066 59.066 0 0 0 1.251-7.746c.192-1.588.289-3.176.481-4.811.193.048 3.224 7.313-1.251 20.496-.385.866-.673 1.732-.962 2.598-.193.577-.337 1.203-.481 1.828a10.647 10.647 0 0 0-.385 1.78 19.382 19.382 0 0 0-.289 2.406 32.574 32.574 0 0 0 .048 5.725 26.259 26.259 0 0 0 .481 3.32c.914 4.956 4.426 8.083 9.478 7.794a5.296 5.296 0 0 0 .866-.096 2.441 2.441 0 0 0 .818-.144 7.917 7.917 0 0 0 3.127-1.251 2.853 2.853 0 0 0 .866-.625c2.55-2.117 3.657-5.629 3.993-9.526a11.715 11.715 0 0 0 .048-1.299 25.136 25.136 0 0 0 0-2.694 22.001 22.001 0 0 0-.144-2.55 7.243 7.243 0 0 0-.096-1.059 102.457 102.457 0 0 0-2.213-12.028c-6.88-33.583 26.125-48.113 26.991-48.498 0 .289-7.794 8.372-10.008 12.221zm22.95-116.819c-19.293 29.108-14.626 62.836-18.86 83.477-4.763 23.094-10.777 21.121-12.75 21.121 8.468-11.258 7.121-17.85 2.454-40.223-2.646-16.214 2.021-31.081 6.784-41.377a86.152 86.152 0 0 1 11.836-18.091c17.754-21.362 19.727-49.557 19.967-50.952 2.021 1.54 3.127 27.088-9.43 46.044zm20.208-104.454c5.196-11.788-4.378-39.646-4.33-40.175.625.144 10.777 9.623 12.702 25.163 1.251 6.928 1.973 13.857-.289 20.785-1.203 3.657-12.172 15.974-1.973 32.284 10.392 10.633 20.159 1.107 15.733-11.21-8.997-33.198 10.729-37.817 11.499-37.865.192 2.069-10.537 8.66-6.207 19.486 2.165 6.207 4.571 12.365 5.389 19.005.77 5.677.625 11.21-1.732 16.455-1.588 3.561-3.849 6.688-7.65 7.842a25.34 25.34 0 0 1-8.66 1.059 18.694 18.694 0 0 1-11.21-4.378c-5.725-4.859-8.757-11.018-10.2-18.716-3.368-17.658 5.822-25.5 6.928-29.734zm102 142.511c-.481-.385-1.443-7.073-10.585-9.238-4.763-1.155-9.478-.433-14.193.674a5.134 5.134 0 0 0-1.203.722c2.646 4.186 6.207 7.939 6.591 12.942.433 6.207-1.492 11.21-1.684 11.162-.048-.674 0-12.076-6.062-17.995a34.09 34.09 0 0 0-21.074-9.911 36.122 36.122 0 0 0-17.561 2.983c-1.973.866-2.213 2.406-2.165 4.234a53.984 53.984 0 0 0 2.55 15.637c1.925 5.725.722 11.21-1.299 16.647-.289.77-.818 1.443-1.058 2.213-3.608 9.286-14.771 10.97-21.94 8.42-8.372-2.983-12.942-9.959-11.355-19.727a51.078 51.078 0 0 1 2.357-8.853c2.069-6.207 3.849-12.461 3.849-19.053a20.471 20.471 0 0 0-.722-5.389c-1.588-6.062-5.677-8.516-11.932-7.457a21.559 21.559 0 0 1-2.502.144c13.039-9.767 18.187 4.523 19.053 7.891 1.636 6.351 1.251 12.702.337 19.101-.433 3.224-.77 6.447-1.251 9.671a12.464 12.464 0 0 0 2.839 9.382 6.731 6.731 0 0 0 6.976 2.791c4.426-.866 7.698-3.32 8.42-7.746a69.037 69.037 0 0 0 .625-10.008c.048-2.935-.481-5.87-.577-8.805-.048-2.213-3.705-12.75 5.148-24.923a44.784 44.784 0 0 0 8.516-27.954c-13.183-4.956-24.057 19.149-24.971 20.64-.337-1.203.674-9.623 2.309-13.231a23.224 23.224 0 0 1 11.018-11.74c16.214-7.794 20.929-30.311 21.218-33.198 3.368-38.01 18.283-39.934 19.149-39.645-1.299.77-20.159 17.994-6.88 50.711 1.828 4.474 5.004 7.939 8.179 11.306a124.41 124.41 0 0 1 12.028 14.53c3.272 4.763 6.976 9.238 9.767 14.338 4.234 7.602 7.89 15.396 9.382 24.057a45.365 45.365 0 0 1 .385 7.265 30.926 30.926 0 0 1-1.684 7.41zm16.358-90.116a31.933 31.933 0 0 1 3.464-14.097c3.368-7.072 3.469-14.373 1.684-21.699-2.965-12.169-14.771-19.678-15.925-20.592.03 3.327 6.399 6.11 1.54 29.926-.433 3.031-3.801 12.798.722 25.163.914 2.79 1.973 5.533 2.983 8.275 3.705 10.248 7.89 20.304 10.152 30.985a112.012 112.012 0 0 1 2.406 23.335c0 2.887-.337 8.612-2.598 11.499-.433-.818 1.588-7.602-2.839-19.871a67.21 67.21 0 0 0-3.801-8.997c-1.78-3.272-3.993-6.303-5.966-9.526a122.671 122.671 0 0 1-6.88-11.884 83.385 83.385 0 0 1-4.282-12.365 39.559 39.559 0 0 1 .144-21.94c1.828-6.495 3.801-12.895 5.34-19.39 1.732-7.217 2.261-14.482.289-21.747-.481-1.78-1.01-3.56-1.347-5.34-.433-2.165 1.01-3.272 3.079-2.502a9.132 9.132 0 0 1 2.069 1.251c5.244 3.897 10.056 6.88 14.097 12.028 3.464 4.378 5.485 10.681 6.303 16.118a31.236 31.236 0 0 1 .385 6.688c-.193 4.763-.962 9.527-.962 14.29a38.062 38.062 0 0 0 1.54 10.44c1.203 4.282 4.474 6.928 8.468 8.66a6.886 6.886 0 0 0 7.217-.962 6.273 6.273 0 0 0 2.309-6.495 81.841 81.841 0 0 0-2.983-10.537c-3.031-9.286-3.368-18.475.577-27.665 4.523-9.238 5.052-20.111 5.34-23.72 2.021 1.155 3.224 5.677 3.416 11.547.529 14.626-4.234 21.17-.144 32.525 2.213 6.11 4.282 12.317 5.966 18.572a20.759 20.759 0 0 1-.818 13.52c-2.021 5.004-5.533 8.275-11.162 9.141-8.42 1.299-26.126 3.079-29.782-24.634zm81.456 199.333c-2.983 10.344-10.296 15.974-20.304 18.668a28.398 28.398 0 0 1-10.825 1.299c-28.676-4.282-14.53-56.966-15.108-65.145-.241-3.464-.241-6.928-.674-10.344-.385-3.32-1.203-6.591-1.78-9.863.337-.048 8.564 12.172 7.602 36.71.337 53.694 36.759 30.504 29.686 8.66a149.261 149.261 0 0 0-7.794-19.871c-3.705-7.939-6.158-16.118-6.351-24.874.625-28.387 14.771-54.753 16.31-56.678 1.732 1.973-11.98 38.491-10.44 53.887a43.389 43.389 0 0 0 7.217 19.871 94.828 94.828 0 0 1 11.836 23.672 39.345 39.345 0 0 1 .625 24.008z" transform="translate(-48.795 -32.674)"/><path d="M118.508 682.113a.892.892 0 0 1-.89 1.286h-19.579a2.305 2.305 0 0 1-2.077-1.286l-2.967-10.383h-18.59l-2.967 10.383a2.306 2.306 0 0 1-2.077 1.286h-19.579a.891.891 0 0 1-.889-1.286l22.347-65.659a2.99 2.99 0 0 1 2.373-1.284h20.172a2.99 2.99 0 0 1 2.373 1.284zm-34.808-43.31l-5.339 18.787h10.68zm90.088-23.633a.989.989 0 0 1 .988 1.383l-22.644 65.461a2.032 2.032 0 0 1-1.78 1.385h-21.754a2.032 2.032 0 0 1-1.78-1.385l-22.644-65.461a.989.989 0 0 1 .988-1.383h22.052a2.052 2.052 0 0 1 1.878 1.383l10.383 40.642 10.383-40.642a2.051 2.051 0 0 1 1.878-1.383h22.052zm53.993 50.43a1.426 1.426 0 0 1 1.483 1.286v15.128a1.507 1.507 0 0 1-1.483 1.385h-45.981a2.017 2.017 0 0 1-1.583-1.483v-65.363a1.251 1.251 0 0 1 1.384-1.383h44.992a1.532 1.532 0 0 1 1.583 1.383v14.931a1.483 1.483 0 0 1-1.583 1.484h-25.808v7.811h20.963a1.186 1.186 0 0 1 1.285 1.286l-1.384 13.844a1.735 1.735 0 0 1-1.681 1.286h-19.183v8.404h26.995zm63.486 16.217a1.055 1.055 0 0 1-1.088 1.582h-21.161a2.594 2.594 0 0 1-2.274-1.582l-10.285-21.557h-1.187v21.754a1.533 1.533 0 0 1-1.582 1.385h-17.404a1.506 1.506 0 0 1-1.483-1.385v-65.362a1.519 1.519 0 0 1 1.483-1.483h26.105c15.229 0 25.314 8.899 25.314 22.347 0 7.811-4.745 15.721-12.163 18.887zm-30.159-38.368c3.362 0 5.636-2.076 5.636-5.239 0-3.165-2.274-5.241-5.636-5.241h-5.835v10.48h5.835zm87.318-28.279a1.055 1.055 0 0 1 1.088 1.582l-21.853 39.355v25.908a1.507 1.507 0 0 1-1.483 1.385h-17.404a1.508 1.508 0 0 1-1.484-1.385v-25.908l-21.853-39.355a1.055 1.055 0 0 1 1.088-1.582h20.569a2.593 2.593 0 0 1 2.274 1.582l8.109 17.799 8.109-17.799a2.589 2.589 0 0 1 2.274-1.582h20.567zm47.368 0c12.953 0 21.556 7.712 21.556 19.281 0 7.12-3.461 12.361-8.799 13.943 6.229 1.582 10.284 7.515 10.284 15.723 0 11.568-8.603 19.281-21.458 19.281h-31.347a1.414 1.414 0 0 1-1.383-1.385v-65.362a1.502 1.502 0 0 1 1.383-1.483h29.765zm-4.548 26.797c2.965 0 4.943-1.78 4.943-4.548s-1.978-4.548-4.943-4.548h-6.231v9.097h6.231zm1.778 23.733a4.748 4.748 0 1 0 0-9.494h-8.009v9.494h8.009zm85.737-50.53a1.666 1.666 0 0 1 1.681 1.681v41.234c0 17.503-9.395 26.699-27.293 26.699-17.7 0-27.094-9.196-27.291-26.699v-41.234a1.731 1.731 0 0 1 1.681-1.681h17.007a1.665 1.665 0 0 1 1.681 1.681v43.014c0 4.548 2.572 7.218 6.922 7.218 4.352 0 6.922-2.669 6.922-7.119v-43.113a1.732 1.732 0 0 1 1.681-1.681h17.009zm66.653 66.647a1.055 1.055 0 0 1-1.088 1.582h-21.162a2.596 2.596 0 0 1-2.274-1.582l-10.284-21.557h-1.187v21.754a1.533 1.533 0 0 1-1.582 1.385h-17.404a1.507 1.507 0 0 1-1.483-1.385v-65.362a1.52 1.52 0 0 1 1.483-1.483h26.106c15.227 0 25.314 8.899 25.314 22.347 0 7.811-4.747 15.721-12.163 18.887zm-30.16-38.368c3.362 0 5.636-2.076 5.636-5.239 0-3.165-2.274-5.241-5.636-5.241h-5.834v10.48h5.834zm92.657-28.279a1.456 1.456 0 0 1 1.484 1.483v65.362a1.438 1.438 0 0 1-1.484 1.385h-17.106a2.689 2.689 0 0 1-2.076-1.286l-17.207-30.752v30.653a1.438 1.438 0 0 1-1.483 1.385h-17.503a1.414 1.414 0 0 1-1.383-1.385v-65.362a1.436 1.436 0 0 1 1.383-1.483h17.108a2.619 2.619 0 0 1 2.274 1.284l17.106 30.754v-30.555a1.506 1.506 0 0 1 1.385-1.483h17.501zm57.949 50.43a1.426 1.426 0 0 1 1.484 1.286v15.128a1.508 1.508 0 0 1-1.484 1.385h-45.981a2.018 2.018 0 0 1-1.582-1.483v-65.363a1.251 1.251 0 0 1 1.385-1.383h44.992a1.532 1.532 0 0 1 1.582 1.383v14.931a1.482 1.482 0 0 1-1.582 1.484h-25.81v7.811h20.964a1.187 1.187 0 0 1 1.286 1.286l-1.385 13.844a1.735 1.735 0 0 1-1.681 1.286h-19.184v8.404h26.995zm60.026-50.43a1.292 1.292 0 0 1 1.385 1.383l-1.484 15.031a1.678 1.678 0 0 1-1.582 1.385h-14.733v49.045a1.415 1.415 0 0 1-1.385 1.385h-17.503a1.507 1.507 0 0 1-1.483-1.385v-49.045h-16.414a1.415 1.415 0 0 1-1.385-1.385v-14.931a1.506 1.506 0 0 1 1.385-1.483h53.199zm59.928 0a1.292 1.292 0 0 1 1.385 1.383l-1.484 15.031a1.678 1.678 0 0 1-1.582 1.385h-14.733v49.045a1.415 1.415 0 0 1-1.385 1.385h-17.503a1.507 1.507 0 0 1-1.483-1.385v-49.045h-16.414a1.415 1.415 0 0 1-1.385-1.385v-14.931a1.506 1.506 0 0 1 1.385-1.483h53.199z" transform="translate(-48.795 -32.674)"/></svg>