<svg id="Layer_1" data-name="Layer 1" xmlns="http://www.w3.org/2000/svg" viewBox="0 0 238.42275 313.47811"><defs><style>.cls-1{fill:#3efdde;}</style></defs><title>logo</title><path d="M250.07207,357.32694q-0.34892,0-.70484-0.01251c-6.60368-.23261-12.401-4.02894-15.90617-10.41552a29.36447,29.36447,0,0,1-2.97043-18.72953c-3.82885-.26663-10.86574-2.35313-12.26741-13.83617-0.19309-1.58376-.36067-3.028-0.51425-4.3521-1.19858-10.34349-1.34915-11.63661-5.88083-15.533-5.28555-2.068-13.12733-8.49109-14.576-21.28276-0.10905.0035-.21911,0.005-0.32916,0.005a9.65731,9.65731,0,0,1-7.15595-3.02146c-2.9119-3.04947-4.163-8.0869-3.82384-15.39992l0.02451-.53126,0.057-.22061c-0.67533-.72585-1.4587-1.61478-2.20756-2.4837a27.52248,27.52248,0,0,1-12.67311,3.041,29.843,29.843,0,0,1-6.20074-.66382,21.6222,21.6222,0,0,1-8.10691,4.29657,17.22492,17.22492,0,0,1-3.07048,7.86729c-2.81236,3.90688-7.15295,6.45461-12.93073,7.59716-1.86515,4.92437-5.65348,15.51348-6.61894,22.66843-0.68708,5.092,1.52524,9.60513,3.86736,14.38343a42.852,42.852,0,0,1,3.70228,9.327,19.641,19.641,0,0,1-3.55571,16.22582,16.5057,16.5057,0,0,1-13.19736,6.06742,23.37221,23.37221,0,0,1-4.16451-.39019c-4.77855-.86892-10.6899-2.51871-14.01626-7.60316-2.13878-3.26958-3.31735-7.55714-2.22682-16.15679a35.78039,35.78039,0,0,1-13.27915,2.87489c-8.74822.0005-20.09344-4.18052-25.1989-23.76546A34.087,34.087,0,0,1,57.595,285.93853c-3.45291-7.4671-5.52391-19.607,4.221-35.03789l0.04852-.077,1.92743-2.82386a59.49831,59.49831,0,0,1,17.96116-38.57459c-1.1423-9.01234-3.28658-37.45055,11.38174-58.02972,0.01251-7.20247,1.15156-33.258,16.23833-49.92982-0.90769-7.81477-1.55325-30.13728,17.98742-43.07026l0.13907-.08879c0.38368-.23661,9.51509-5.79279,19.83756-5.79279a27.11666,27.11666,0,0,1,4.39662.35117c4.43864-2.82486,15.73108-9.0161,29.44194-9.0161a42.95329,42.95329,0,0,1,20.9616,5.38885,41.69383,41.69383,0,0,1,14.87567,10.971c6.127,7.03814,12.76565,19.43587,10.56059,39.04332,5.07795,5.05694,15.74959,19.44362,14.85516,50.47458,5.87783,4.47366,18.68351,17.5202,19.24778,46.52618,5.3841,4.30432,17.6415,16.624,16.13378,38.66214a57.62759,57.62759,0,0,1,9.87126,12.16386c6.52164,10.96829,7.20948,21.95708,2.04,31.9414,1.47771,4.42913,3.67277,13.81616-.51425,22.2077-3.34611,6.70523-9.79122,11.15188-19.15773,13.21537a36.20083,36.20083,0,0,1-7.21.77988c-0.11756,0-.23461-0.0005-0.35017-0.002,0.29114,4.63724,1.051,9.77071,2.55173,12.33094,3.39914,5.7988,3.19954,14.99273-.46372,21.38681A16.11954,16.11954,0,0,1,250.07207,357.32694Z" transform="translate(-54.72278 -43.84884)"/><path class="cls-1" d="M281.59943,275.90526c3.96944-15.5264-9.42382-31.78192-10.0178-32.349a7.66344,7.66344,0,0,1-.21607,1.08016,7.01459,7.01459,0,0,1-.27012,1.08016,7.57543,7.57543,0,0,1-.432,1.32309,15.71962,15.71962,0,0,1-1.13406,2.59213,19.26863,19.26863,0,0,1-1.40418,2.40326,28.42384,28.42384,0,0,1-8.23571,8.42475c0.189-.648,5.45454-6.8045,7.42567-14.82431a45.9015,45.9015,0,0,0,1.13406-8.37069,41.578,41.578,0,0,0-2.70024-16.41752,51.65031,51.65031,0,0,0-3.40233-7.58768,59.4054,59.4054,0,0,0-4.8604-7.0476,12.57124,12.57124,0,0,0-3.86133-3.56434c-0.162.40494-.324,0.648-0.4051,0.918-0.51305,2.07924-.972,4.21237-1.51213,6.29161-0.432,1.56619-1.89,5.91354-2.91614,5.77856a39.82549,39.82549,0,0,1,.27-4.07739,19.90976,19.90976,0,0,0-.027-7.47973,8.48955,8.48955,0,0,1,.08109-2.02518c0.08092-3.78024.108-7.31755-.027-10.61194l-0.08109-1.9441c-0.08092-1.8902-.2159-3.69932-0.432-5.42752-0.08109-.783-0.189-1.53916-0.297-2.26828-0.10812-.945-0.27012-1.86317-0.43213-2.75414-0.189-1.05313-.40494-2.05221-0.67506-3.05129-0.108-.51305-0.24293-1.02611-0.37807-1.51213a15.1316,15.1316,0,0,0-.459-1.45824c-0.108-.351-0.21607-0.67506-0.324-0.99908a32.59742,32.59742,0,0,0-1.59305-3.8343c-0.27012-.54008-0.56711-1.08016-0.8641-1.59322-0.29715-.53992-0.62117-1.08-0.94518-1.566-0.324-.51305-0.67506-1.02611-1.02611-1.51213a2.63134,2.63134,0,0,0-.432-0.56711c-0.4051-.54008-0.83707-1.08016-1.32309-1.62008a27.61121,27.61121,0,0,0-3.07832-3.07832,23.68641,23.68641,0,0,0-1.99815-1.62008,17.38338,17.38338,0,0,0-.54008,1.9441,16.66122,16.66122,0,0,0-.324,1.67414c-0.05406.297-.08109,0.621-0.108,0.945a1.35536,1.35536,0,0,0-.05406.32418c-0.05406.486-.08109,0.945-0.108,1.431-0.05406.8641-.05406,1.70117-0.027,2.53824,0,0.56711.027,1.13406,0.05389,1.67414,0.05406,0.783.10812,1.56619,0.189,2.32217,0.027,0.37807.08109,0.75615,0.135,1.13422,0.4051,3.29422,1.02611,6.10241,1.21514,7.61471a3.11536,3.11536,0,0,1,.05406.432,0.92754,0.92754,0,0,1-.05406.70209,1.86915,1.86915,0,0,1-.756-1.02611,8.59114,8.59114,0,0,1-.54008-1.21514c-0.459-1.16108-.91816-2.59229-1.2692-3.59137-0.05389-.135-0.108-0.27-0.162-0.37791-0.05389-.13514-0.08092-0.24309-0.135-0.351a31.63343,31.63343,0,0,1-1.83615-5.45454,12.52925,12.52925,0,0,1-.297-1.37715c-0.08109-.324-0.135-0.648-0.189-0.972-0.108-.56711-0.189-1.10719-0.24309-1.67414a1.60241,1.60241,0,0,1-.05389-0.37807c-0.135-.945-0.21607-1.8902-0.27012-2.86225v-0.135c-0.05389-.91816-0.08092-1.83615-0.08092-2.78133,0-1.80912.05406-3.64526,0.189-5.48141,0.08092-1.21514.56695-3.10535,0.783-4.29346,0.21607-1.21514.351-2.40326,0.459-3.56434,0.08109-.83707.13514-1.62008,0.162-2.43012a39.79875,39.79875,0,0,0-.945-10.90909c-0.135-.594-0.27-1.18811-0.432-1.75506a38.53272,38.53272,0,0,0-2.34936-6.39956c-0.162-.351-0.324-0.67506-0.486-0.99908a42.2584,42.2584,0,0,0-3.75321-6.04868c-0.37807-.486-0.72912-0.918-1.05313-1.32309-0.56711-.67506-1.08016-1.269-1.56619-1.78209-0.189-.21607-0.37807-0.37807-0.54008-0.56711a7.92663,7.92663,0,0,0-.67506-0.67506,1.83119,1.83119,0,0,0-.324-0.324c-0.40494-.40494-0.67506-0.67506-0.756-0.783-7.20977,5.61655-7.47973,22.25-7.91169,22.79006a34.97411,34.97411,0,0,1-1.24217-6.72358,54.79518,54.79518,0,0,1,.24309-5.9676,35.16082,35.16082,0,0,1,2.51121-10.639c0.53992-1.37715,1.08-2.7543,1.51213-4.15832,0.70209-2.24125,1.269-4.50952,1.99815-6.72374,1.02611-3.24016,1.78209-6.45346,1.242-9.90985-0.37791-2.45715-1.431-4.67137-2.052-7.02057q-0.40518-1.45807-.89113-2.83522a21.379,21.379,0,0,0-.91816-2.29531,6.16971,6.16971,0,0,0-.27-0.621c-0.351-.75615-0.72912-1.51213-1.13406-2.21422-0.43213-.783-0.91816-1.53916-1.40418-2.26828a20.17,20.17,0,0,0-1.29606-1.701,5.181,5.181,0,0,0-.70209-0.8641,9.27756,9.27756,0,0,0-.99908-1.08016,3.20956,3.20956,0,0,0-.51305-0.54008c-0.54008-.54008-1.08016-1.05313-1.64711-1.53916a0.376,0.376,0,0,0-.10812-0.08092,17.448,17.448,0,0,0-1.83615-1.40418,3.183,3.183,0,0,0-.648-0.459,9.77281,9.77281,0,0,0-1.10719-.72912,10.22572,10.22572,0,0,0-.918-0.54008,7.547,7.547,0,0,0-.91816-0.486,10.73963,10.73963,0,0,0-1.107-.56695,30.396,30.396,0,0,0-4.02334-1.59322c-0.51305-.162-1.05313-0.297-1.56619-0.432a0.14852,0.14852,0,0,0-.135-0.05406q-1.05313-.28356-2.10627-0.486a1.86932,1.86932,0,0,0-.53992-0.08109c-0.6482-.135-1.32326-0.24293-1.99832-0.324q-1.21506-.16193-2.43012-0.24293a42.01634,42.01634,0,0,0-8.96483.432,21.99842,21.99842,0,0,0-3.24032.72912q-0.486.16193-.972,0.324c-0.297.108-.621,0.21607-0.89113,0.324a20.92039,20.92039,0,0,0-4.15832,2.13313q-0.243.16217-.486,0.324C166.137,62.532,165.9211,62.694,165.705,62.856c-0.108.08109-.189,0.162-0.27,0.21607-0.21607.189-.351,0.297-0.4051,0.351a21.35449,21.35449,0,0,1,2.9702,1.86317c0.27012,0.189.54008,0.40494,0.8102,0.621a18.53609,18.53609,0,0,1,2.75414,2.67321,18.20285,18.20285,0,0,1,1.56619,2.07924,21.107,21.107,0,0,1,1.21514,2.1061c0,0.027.027,0.05406,0.027,0.08109,0.135,0.24309.24293,0.486,0.351,0.72912a28.73651,28.73651,0,0,1,2.21405,9.77487c0.27012,2.78116.21607,5.58952,0.29715,8.39772,0.05389,2.9702.108,5.94057,1.53916,8.6947a2.90184,2.90184,0,0,1-.59414-0.35088,1.627,1.627,0,0,1-.37807-0.29715,11.91746,11.91746,0,0,1-3.07815-4.72543,11.105,11.105,0,0,1-.37807-1.13406,9.09009,9.09009,0,0,1-.27012-0.91816,9.64812,9.64812,0,0,1-.24293-0.945,35.78005,35.78005,0,0,1-.67506-4.8604c-0.189-3.13237-.56711-9.36993-5.67061-13.90632-1.4851-1.32309-2.91614-2.70024-4.50936-3.88836-3.10518-2.32217-25.78729-9.74784-37.56031,10.31495-0.324.56711-.648,1.18811-0.97221,1.80912-0.324.62117-.621,1.2692-0.918,1.94426a39.53244,39.53244,0,0,0-1.64711,4.29346c-0.13514.35088-.24309,0.70192-0.351,1.08-0.21607.70209-.43213,1.40418-0.62117,2.16016a21.26661,21.26661,0,0,0-.648,7.02073,14.35026,14.35026,0,0,0,.24309,1.86317q0.04054,0.28356.08092,0.486a6.9743,6.9743,0,0,0,.162.756c0.05406,0.21607.08109,0.351,0.10812,0.43213a0.79566,0.79566,0,0,0,.2159-0.21607,1.21834,1.21834,0,0,0,.24309-0.27,39.069,39.069,0,0,0,2.56526-4.45547c0.81-1.59322,1.51213-2.99723,1.62008-3.07832a4.02761,4.02761,0,0,1,.05406,1.45824,5.80168,5.80168,0,0,1-.05406.621q-0.04054.243-.08092,0.56711a4.31651,4.31651,0,0,1-.162.81c-0.05406.27-.13514,0.56695-0.21607,0.89113-0.08109.297-.189,0.621-0.297,0.945-0.10812.324-.24309,0.67506-0.37807,1.02611s-0.297.70209-.486,1.08a8.139,8.139,0,0,1-.486.97221c-0.89113,1.566-1.64727,3.26719-2.53824,4.8604-0.027.05406-.08109,0.135-0.10812,0.189-0.486.81-.945,1.62008-1.45807,2.43012a23.63053,23.63053,0,0,1-1.35012,1.99832,13.50467,13.50467,0,0,0-1.29606,2.02518c-0.486.83707-.91816,1.701-1.45824,2.51121-0.594.945-1.16108,1.91707-1.67414,2.94317-0.648,1.29623-1.21514,2.61932-1.75506,3.94241-0.51305,1.32309-.97221,2.67321-1.40418,4.02334-0.486,1.53916-.945,3.05129-1.37715,4.59045a6.78672,6.78672,0,0,0-.189.70209c-0.189.67506-.351,1.32309-0.51305,1.99815a5.13292,5.13292,0,0,0-.135.621c-0.162.72912-.297,1.4851-0.432,2.21422a43.85975,43.85975,0,0,0-.56711,5.3194c-0.05406.89113-.08109,1.80928-0.08109,2.70024,0.027,2.16033-.02686,4.32049.027,6.45362a60.15631,60.15631,0,0,1-2.43012,18.60472,1.28417,1.28417,0,0,1-.29715.162c-0.162-2.07924-.35088-4.10442-0.459-6.15647-0.108-2.05221.324-4.15848-.756-6.26458a1.62389,1.62389,0,0,0-.54008.67506c-0.94518,1.4851-1.86317,3.02426-2.83522,4.48233-0.37807.56711-.72912,1.10719-1.05313,1.67414-0.27.459-.54008,0.91816-0.75615,1.37715a39.18931,39.18931,0,0,0-4.48233,13.25812c-0.08109.51305-.135,1.02611-0.189,1.51213-0.05406.54008-.108,1.08016-0.135,1.62024a33.88074,33.88074,0,0,0-.08109,3.59137c0,0.297.027,0.594,0.027,0.86393q0.04054,0.81012.08109,1.37715c0.162,2.86225-.027,5.75153.37791,8.53286a91.63192,91.63192,0,0,1,.48619,19.9817,98.75941,98.75941,0,0,1-2.43028,14.33828c-0.108-.324-0.351-2.83522-0.83707-6.42659-0.08109-.70192-0.189-1.431-0.27-2.21405a1.3554,1.3554,0,0,1-.05406-0.324c-0.135-.8641-0.27012-1.80928-0.43213-2.7543a2.01486,2.01486,0,0,0-.08092-0.54008c-0.108-.648-0.21607-1.269-0.324-1.91723-0.10812-.648-0.21607-1.32309-0.351-1.97112-0.8641.75615-1.43121,1.18811-1.91723,1.70117a68.82267,68.82267,0,0,0-7.10165,9.18089,36.19392,36.19392,0,0,0-2.3492,4.02334c-0.24293.486-.459,0.99908-0.67506,1.4851-0.2159.486-.40494,0.945-0.56695,1.431-0.162.37807-.29715,0.78318-0.43213,1.18811q-0.36439,1.13422-.648,2.26828a31.11545,31.11545,0,0,0-.81,4.42844c-0.08109.756-.135,1.51213-0.189,2.26811-0.05406.91816-.08109,1.83615-0.05406,2.7543,0,0.945.027,1.86317,0.10812,2.80819,0.27,4.05036,1.32309,8.10073,2.052,12.12423,0.56711,3.10518,1.37715,6.15647,1.18811,9.31571-0.08092,1.18811-1.16108,4.56342-2.052,4.56342a45.933,45.933,0,0,0-.27012-5.53547c-0.135-.783-0.297-1.53916-0.459-2.29514-0.162-.78318-0.324-1.53916-0.51305-2.29531-0.351-1.53916-.70209-3.05129-1.08016-4.59045-0.648-2.64619-2.61916-8.12759-2.67321-8.20868-0.21607,1.75522-4.56342,9.07278-6.23756,17.25459a30.3346,30.3346,0,0,0-.486,3.07832c-0.05406.53992-.108,1.053-0.135,1.566a3.26478,3.26478,0,0,0-.027.51305,3.26478,3.26478,0,0,0-.027.51305v0.54008q0,1.01259.08109,2.02518a16.65691,16.65691,0,0,0,7.91169,13.04222c0.648-1.24217,0-3.96944-.4051-9.45085,0.162,0,1.99815,1.59305,2.78133,8.5327,0.297,2.7543.972,5.5086,1.45807,8.26274a14.09738,14.09738,0,0,0,3.96944,7.42567,22.43279,22.43279,0,0,0,7.88466,4.72543c2.80819,1.10719,5.7245.97221,8.64081,0.75615,4.53639-.351,8.55972-1.8902,11.66507-5.37346a30.50114,30.50114,0,0,0,5.07631-8.4788c2.70024-6.53454,5.40049-8.53286,5.80559-7.96575-0.162.324-1.59322,2.37623-1.9441,3.15924-1.18811,2.64635-2.18719,5.18459-1.05313,8.3168a22.25393,22.25393,0,0,1,.918,11.152c-0.162.99908-.297,2.02518-0.40494,3.05129-0.24309,1.80912-.43213,3.61823-0.59414,5.42752-0.27,3.24032.81,5.77856,3.88836,7.37161a7.0491,7.0491,0,0,0,3.48342.51305c3.15924,0,4.9143-1.86317,5.58936-4.56342a13.71763,13.71763,0,0,0-.18887-6.61563c-0.189-.729-0.37807-1.431-0.56711-2.13313-0.324-1.21514-.70209-2.43028-1.107-3.6184-2.7543-8.15462-1.7282-16.12037,1.08-24.005,1.13406-3.18643,2.37623-6.34567,3.51028-9.53194,0.27012-.72912.51305-1.45807,0.75615-2.18719a42.84145,42.84145,0,0,0,1.18811-5.21145,1.50272,1.50272,0,0,0-.91816-1.7282c-0.945-.40494-1.86317-0.89113-2.78116-1.35012a9.0475,9.0475,0,0,1-4.26643-4.53639c-1.35012-3.56434-1.67414-7.4527.91816-10.504a21.96672,21.96672,0,0,0,2.59213-3.86133,19.12066,19.12066,0,0,0,1.13406-2.56526c0.13514-.351.24309-0.67506,0.351-0.99908,0.21607-.648.4051-1.269,0.54008-1.83615a2.24681,2.24681,0,0,1,.10812-0.40494,1.082,1.082,0,0,1,.08092-0.4051,6.94313,6.94313,0,0,1,.135-0.72912,1.3554,1.3554,0,0,1,.05406-0.324c0.027-.21607.05406-0.40494,0.08092-0.594,0.08109-.648.10812-1.05313,0.10812-1.18811a25.5413,25.5413,0,0,1,.432,3.24032c0.027,0.324.05406,0.621,0.05406,0.891a18.30979,18.30979,0,0,1-.108,3.05129c-0.027.324-.08109,0.648-0.13514,0.972q-0.08084.48627-.162,0.89113a5.28854,5.28854,0,0,0-.135.54008c-0.108.432-.21607,0.81-0.324,1.16108a3.26068,3.26068,0,0,0-.135.37807c-0.162.51305-.351,0.99908-0.51305,1.431a8.21474,8.21474,0,0,0-.81,2.97037,7.46625,7.46625,0,0,0,2.56526,5.77856,10.75495,10.75495,0,0,0,6.1835,2.13313,3.75829,3.75829,0,0,0,2.07924-.486c4.88743-2.64635,6.1835-4.37438,5.50844-10.045-0.162-1.29606-.4051-2.56526-0.51305-3.86133a14.67888,14.67888,0,0,1-.08109-1.53916v-0.351a19.55868,19.55868,0,0,1,.189-2.13313c0.05406-.24309.10812-0.51305,0.162-0.783a7.41391,7.41391,0,0,1,.21607-0.99908c0.189-.83707.43213-1.70117,0.70209-2.53824l0.56711-1.62024c0.18887-.54008.40494-1.05313,0.621-1.53916s0.40494-.972.621-1.431c0.189-.43213.4051-0.8641,0.59414-1.24217a15.553,15.553,0,0,1,1.404-2.48418,1.542,1.542,0,0,1-.08092,1.08c-0.05406.21607-.135,0.48619-0.21607,0.78318-0.297,1.02611-.72912,2.3492-1.13406,3.8343-0.10812.351-.21607,0.72912-0.297,1.10719-0.10812.486-.21607,0.99908-0.324,1.51213a9.82428,9.82428,0,0,0-.189,1.242,1.5805,1.5805,0,0,0-.05406.351c-0.027.189-.027,0.351-0.05406,0.54008-0.027.37807-.05389,0.756-0.05389,1.13406a10.38756,10.38756,0,0,0,.27,2.45731c0.297,1.215.54008,1.566,1.86317,1.4851a14.318,14.318,0,0,0,3.51028-.621c1.78225-.54008,3.56434-1.21514,5.29254-1.91723a30.11514,30.11514,0,0,0,5.21145-2.91631,15.85249,15.85249,0,0,0,2.59229-2.18719c0.24293-.24293.459-0.486,0.67506-0.72912a24.20978,24.20978,0,0,0,2.45715-3.3753c0.21607-.40494.432-0.81,0.648-1.18795,0.324-.62117.59414-1.21514,0.83707-1.75522,0.70209-1.62008,1.05313-2.78133,1.16108-2.94334a10.51386,10.51386,0,0,1,.29715,4.15848,2.29989,2.29989,0,0,1-.08109.621,6.93175,6.93175,0,0,1-.189,1.08016v0.02686c-0.432,2.10627-1.18811,4.10442-1.56619,6.18366a9.071,9.071,0,0,0,1.08016.324c0.51305,0.08092,1.02611.135,1.53916,0.189,5.18442,0.56695,9.90985-1.21514,14.50029-3.67229,0.4051-.21607.783-0.43213,1.16108-0.6482a0.37726,0.37726,0,0,1,.108-0.08092c0.4051-.24309.78318-0.51305,1.16125-0.783,0.486-.351.945-0.70209,1.404-1.10719,2.53824-2.21422,3.07832-2.48418,5.13053-10.15294,0.21607,1.16108,3.30375,12.07189-8.42475,18.19961,0.21607,0.37807.324,0.6482,0.459,0.89113a25.89954,25.89954,0,0,0,5.53547,6.69655,2.49371,2.49371,0,0,1,.72912,2.53824,26.31041,26.31041,0,0,0-.83707,3.56434,11.15322,11.15322,0,0,0,.56711,5.40049,1.7053,1.7053,0,0,0,1.67414,1.45824,5.03982,5.03982,0,0,0,3.29422-1.18811,7.40388,7.40388,0,0,0,2.26828-3.94241,18.68718,18.68718,0,0,0,.05389-3.88836c-0.2159-2.26811-.8641-4.50936-0.02686-6.75061a2.49671,2.49671,0,0,1,1.242-1.56619,12.51107,12.51107,0,0,0,2.37623-1.269,11.47424,11.47424,0,0,0,4.56342-9.01888c0-.459.08109-0.945,0.162-1.83615,0.54008,0.67506,1.29606,5.29254.83707,7.12868a10.74894,10.74894,0,0,1-2.37623,4.10442,7.069,7.069,0,0,0-1.404,7.15555,27.57153,27.57153,0,0,1,.891,5.37346,45.38023,45.38023,0,0,1-.621,10.477,20.64761,20.64761,0,0,0,2.88928,14.17628c2.02518,3.40233,7.99261,6.83169,10.28792,7.53378a13.78979,13.78979,0,0,1,5.64342,3.3753,0.63294,0.63294,0,0,1,.13514.135,15.60906,15.60906,0,0,1,3.53731,4.40141c-1.16108-.78318-2.91631-2.02518-3.99647-2.83522a11.5273,11.5273,0,0,0-1.02611-.70209c0.29715,0.51305.56711,1.02611,0.8102,1.51213,1.64711,3.32125,2.26811,6.31848,1.64711,11.98909-0.94518,8.66768,3.53731,12.3131,6.85856,6.96651,1.40418-2.24108,1.18811-8.99169,2.86225-12.42105a3.86134,3.86134,0,0,1,7.37178,1.40418c0.86393,8.26274.729,12.097-2.26828,22.35793a28.28108,28.28108,0,0,0-.89113,10.801,14.42724,14.42724,0,0,0,2.05221,6.31864,4.17439,4.17439,0,0,0,3.96944,1.78209c3.5912-.51305,6.21053-2.26811,7.53362-5.7245,1.29606-3.51028.756-7.0476-.189-10.44993a113.30431,113.30431,0,0,1-2.83522-12.69118,18.136,18.136,0,0,1,4.75245-15.87744,27.49954,27.49954,0,0,0,5.53547-8.50567c0.972,7.42567-4.15832,11.23294-3.94241,12.44808,15.33736,1.51213,20.684-5.83245,20.6299-15.14832-0.027-7.80374-3.88836-17.03853-8.82985-23.51918C274.92991,268.34461,278.22413,271.88192,281.59943,275.90526ZM110.269,249.92893c-5.04944,8.6947-3.69932,19.60379-2.37606,27.11038,0.08092,0.4051.135,0.81,0.2159,1.21514,0.135,0.67506.24309,1.32309,0.351,1.9441l0.08109,0.4051c0.108,0.648.2159,1.24217,0.297,1.78209a16.5136,16.5136,0,0,1,.21607,2.26828,15.92989,15.92989,0,0,1-.70209,4.02334,7.89377,7.89377,0,0,1-4.26643,4.88743,17.15334,17.15334,0,0,1-9.23479,1.99815,5.84184,5.84184,0,0,1-.67506-0.108,6.22432,6.22432,0,0,1-1.16108-.324,2.95427,2.95427,0,0,1-.62117-0.24309,2.04205,2.04205,0,0,1-.486-0.24293,7.7423,7.7423,0,0,1-2.67321-2.32217c-0.108-.13514-0.189-0.29715-0.297-0.43213a5.723,5.723,0,0,1-.56711-0.972,10.48716,10.48716,0,0,1-.459-1.10719,2.56319,2.56319,0,0,1-.189-0.648,7.69021,7.69021,0,0,1-.21607-0.918c-0.05389-.27012-0.108-0.54008-0.135-0.8102a8.377,8.377,0,0,1-.108-0.86393c-0.027-.37807-0.05406-0.78318-0.05406-1.21514V285.248c0-.51305.027-1.053,0.08109-1.59305,0.02686-.37807.08092-0.72912,0.135-1.10719,0.08092-.648.21607-1.32309,0.37807-2.052,0.05389-.27012.108-0.54008,0.18887-0.8102a23.48129,23.48129,0,0,1,.75615-2.64619c0-.027.027-0.08092,0.027-0.108,0.783-2.40326,2.48418-5.42752,3.18627-7.83077a33.14965,33.14965,0,0,0,.70209-4.34735c0.108-.89113.162-1.78225,0.27-2.70024,0.10812,0.027,1.80912,4.10442-.70209,11.50306-0.2159.486-.37791,0.972-0.53992,1.45807-0.10812.324-.189,0.67506-0.27012,1.02611a5.97511,5.97511,0,0,0-.21607.99908,10.878,10.878,0,0,0-.162,1.35012,18.28115,18.28115,0,0,0,.027,3.2133,14.73747,14.73747,0,0,0,.27012,1.86317,4.9206,4.9206,0,0,0,5.3194,4.37438,2.97238,2.97238,0,0,0,.486-0.05406,1.3698,1.3698,0,0,0,.459-0.08092,4.44333,4.44333,0,0,0,1.75522-.70209,1.60132,1.60132,0,0,0,.486-0.351c1.43121-1.18811,2.05221-3.15924,2.24125-5.34643a6.57471,6.57471,0,0,0,.027-0.72912,14.107,14.107,0,0,0,0-1.51213,12.34755,12.34755,0,0,0-.08109-1.431,4.06506,4.06506,0,0,0-.05389-0.59414,57.50139,57.50139,0,0,0-1.24217-6.75061c-3.86133-18.84764,14.6623-27.00243,15.14832-27.2185C115.88552,243.23221,111.51114,247.76877,110.269,249.92893Zm12.88021-65.562c-10.828,16.33644-8.20868,35.26517-10.58491,46.84932-2.67321,12.96113-6.04852,11.85394-7.15571,11.85394,4.75245-6.31848,3.99647-10.0178,1.37715-22.574-1.4851-9.09981,1.13406-17.44363,3.80744-23.222a48.35063,48.35063,0,0,1,6.64249-10.15294c9.9639-11.98909,11.0711-27.81247,11.20608-28.59565C129.57577,159.3897,130.19677,173.728,123.14918,184.36695Zm11.34105-58.62217c2.91631-6.61563-2.45731-22.25014-2.43028-22.54713,0.351,0.08109,6.04852,5.40049,7.12868,14.12222,0.70209,3.88836,1.10719,7.77671-.162,11.66507-0.67506,2.05221-6.83153,8.96483-1.107,18.11869,5.83245,5.9676,11.314.621,8.82968-6.29161-5.04944-18.63158,6.02165-21.22387,6.45362-21.2509,0.108,1.16108-5.91354,4.8604-3.48325,10.936,1.215,3.48342,2.5651,6.93964,3.02426,10.666a16.56222,16.56222,0,0,1-.972,9.23479c-0.89113,1.99832-2.16033,3.75338-4.29346,4.40141a14.22155,14.22155,0,0,1-4.8604.59414,10.49173,10.49173,0,0,1-6.29161-2.45731,17.13982,17.13982,0,0,1-5.7245-10.50382C128.71167,132.52224,133.86923,128.12083,134.49023,125.74477ZM191.73542,205.726a7.68143,7.68143,0,0,0-5.94057-5.18459,16.94426,16.94426,0,0,0-7.96575.37807,2.88142,2.88142,0,0,0-.67506.4051c1.4851,2.3492,3.48325,4.4553,3.69932,7.26366a13.076,13.076,0,0,1-.945,6.26458c-0.027-.37807,0-6.77764-3.40233-10.099a19.13245,19.13245,0,0,0-11.82708-5.56249,20.27282,20.27282,0,0,0-9.856,1.67414,2.12628,2.12628,0,0,0-1.215,2.37623,30.29733,30.29733,0,0,0,1.431,8.77579c1.08016,3.2133.4051,6.29161-.72912,9.3429-0.162.432-.459,0.81-0.594,1.24217-2.02518,5.21145-8.28977,6.15647-12.3131,4.72543-4.6984-1.67414-7.26366-5.58952-6.37253-11.0711a28.66618,28.66618,0,0,1,1.32309-4.96836,33.81508,33.81508,0,0,0,2.16016-10.693,11.489,11.489,0,0,0-.4051-3.02426c-0.891-3.40233-3.18627-4.77948-6.69655-4.18534a12.09969,12.09969,0,0,1-1.40418.08092c7.31772-5.48141,10.207,2.53824,10.693,4.42844a27.03712,27.03712,0,0,1,.189,10.72005c-0.24309,1.80912-.432,3.61823-0.70209,5.42735a6.99494,6.99494,0,0,0,1.59322,5.26551,3.77755,3.77755,0,0,0,3.91539,1.56619c2.48418-.486,4.32032-1.86317,4.72543-4.34735a38.74565,38.74565,0,0,0,.35088-5.61655c0.027-1.64711-.27-3.29438-0.324-4.94149-0.02686-1.242-2.07908-7.15555,2.88928-13.98724a25.13381,25.13381,0,0,0,4.77948-15.68841c-7.39864-2.78116-13.50122,10.74692-14.01427,11.584a21.72792,21.72792,0,0,1,1.29606-7.42567,13.03365,13.03365,0,0,1,6.18366-6.5886c9.09981-4.37438,11.746-17.0115,11.908-18.63158,1.8902-21.332,10.26089-22.412,10.74692-22.25-0.729.432-11.314,10.09888-3.86133,28.4605a21.11832,21.11832,0,0,0,4.59045,6.34551,69.82249,69.82249,0,0,1,6.75061,8.15479,95.9505,95.9505,0,0,1,5.48157,8.04667,42.74053,42.74053,0,0,1,5.26534,13.50122,25.45986,25.45986,0,0,1,.21607,4.07739A17.35677,17.35677,0,0,1,191.73542,205.726Zm9.18073-50.57567a17.92171,17.92171,0,0,1,1.94426-7.91169,17.7251,17.7251,0,0,0,.945-12.17812c-1.664-6.8298-8.28977-11.0439-8.9378-11.557,0.017,1.86711,3.59137,3.42936.8641,16.79543-0.24309,1.70117-2.13313,7.18274.4051,14.12238,0.51305,1.566,1.107,3.10518,1.67414,4.64434,2.07908,5.75153,4.42827,11.39511,5.69747,17.38957a62.86394,62.86394,0,0,1,1.35012,13.09611c0,1.62024-.189,4.83354-1.45807,6.45362-0.24309-.459.891-4.26627-1.59322-11.152a37.72027,37.72027,0,0,0-2.13313-5.04944c-0.99908-1.83615-2.24125-3.53731-3.34828-5.34643a68.84622,68.84622,0,0,1-3.86149-6.66969,46.7977,46.7977,0,0,1-2.40309-6.93948,22.20134,22.20134,0,0,1,.08092-12.3131c1.02611-3.64543,2.1333-7.2368,2.99723-10.88206a24.27166,24.27166,0,0,0,.162-12.20515c-0.27-.99908-0.56695-1.99815-0.756-2.99723-0.24309-1.21514.56711-1.83615,1.7282-1.40418a5.1253,5.1253,0,0,1,1.16108.70209c2.94317,2.18719,5.64342,3.86133,7.91169,6.75061a19.96128,19.96128,0,0,1,3.53731,9.04591,17.53046,17.53046,0,0,1,.21607,3.75321c-0.10812,2.67338-.54008,5.34659-0.54008,8.01981a21.36158,21.36158,0,0,0,.8641,5.85948,7.66137,7.66137,0,0,0,4.75245,4.8604,3.86479,3.86479,0,0,0,4.05036-.53992,3.5206,3.5206,0,0,0,1.29606-3.64543,45.93128,45.93128,0,0,0-1.67414-5.91354c-1.70117-5.21145-1.8902-10.36884.324-15.5264,2.53824-5.18442,2.83522-11.287,2.99723-13.31218,1.13406,0.648,1.80912,3.18627,1.91723,6.48065,0.297,8.20868-2.37623,11.881-.08109,18.25367,1.24217,3.4292,2.40326,6.91262,3.34828,10.4229a11.65023,11.65023,0,0,1-.459,7.58768,7.67323,7.67323,0,0,1-6.26458,5.13036C212.90524,169.70464,202.96836,170.70372,200.91615,155.15029Zm45.7151,111.87106c-1.67414,5.80559-5.7784,8.96483-11.39495,10.477a15.93771,15.93771,0,0,1-6.07555.72912c-16.09351-2.40326-8.15479-31.971-8.4788-36.56123-0.135-1.94426-.135-3.88836-0.37807-5.80559-0.2159-1.86317-.67506-3.69932-0.99908-5.53547,0.189-.027,4.80651,6.83153,4.26643,20.60287,0.189,30.13464,20.6299,17.11945,16.66045,4.8604a83.76924,83.76924,0,0,0-4.37438-11.152,34.58035,34.58035,0,0,1-3.56434-13.96021c0.351-15.9315,8.28977-30.72878,9.15386-31.80894,0.972,1.10719-6.72358,21.60195-5.85948,30.24276a24.35129,24.35129,0,0,0,4.05036,11.152,53.22,53.22,0,0,1,6.64266,13.28515A22.08174,22.08174,0,0,1,246.63125,267.02135Z" transform="translate(-54.72278 -43.84884)"/></svg>