<svg id="Layer_1" data-name="Layer 1" xmlns="http://www.w3.org/2000/svg" viewBox="0 0 738.41433 652.10938"><defs><style>.cls-1{fill:#3efdde;}</style></defs><title>logo</title><path d="M549.30267,591.23321q-0.62171,0-1.25589-.02228c-11.76652-.41447-22.0962-7.17881-28.34179-18.55849A52.32194,52.32194,0,0,1,514.41224,539.28c-6.82228-.47508-19.36069-4.19284-21.85821-24.65344-0.34406-2.822-.64265-5.39525-0.91629-7.75462-2.13564-18.43014-2.40393-20.73424-10.47854-27.67685-9.41785-3.68478-23.39042-15.12952-25.97173-37.92186-0.19431.00624-.3904,0.00891-0.5865,0.00891a17.2075,17.2075,0,0,1-12.75055-5.38366c-5.18846-5.43358-7.41769-14.40933-6.81337-27.43976l0.04368-.9466,0.10161-.39308c-1.2033-1.29333-2.59913-2.87723-3.93346-4.42548a49.03987,49.03987,0,0,1-22.58109,5.41843,53.17459,53.17459,0,0,1-11.04855-1.1828,38.52667,38.52667,0,0,1-14.445,7.65568,30.69156,30.69156,0,0,1-5.471,14.018c-5.01109,6.96133-12.7452,11.5009-23.04012,13.53671-3.32334,8.7743-10.07343,27.64209-11.7937,40.39086-1.22425,9.0729,2.71768,17.11453,6.89091,25.62856,2.61117,5.32662,5.31058,10.83418,6.59677,16.61895,2.256,10.14874-.17158,21.22715-6.33561,28.91135-5.59224,6.972-13.9436,10.811-23.51521,10.811a41.64487,41.64487,0,0,1-7.42037-.69524c-8.51448-1.54825-19.04739-4.48787-24.97432-13.5474-3.8109-5.82577-5.91089-13.4654-3.96778-28.78835-6.886,2.8086-15.14289,5.12161-23.66094,5.1225-15.58767.00089-35.80271-7.44889-44.89968-42.34555a60.73662,60.73662,0,0,1-15.23827-20.2137c-6.15244-13.305-9.84257-34.93588,7.52109-62.4309l0.08646-.13727,3.43431-5.03159c0.50672-9.99543,4.34927-41.67081,32.00339-68.73264-2.03536-16.0583-5.85607-66.72981,20.28011-103.398,0.02228-12.83344,2.05185-59.25953,28.93363-88.96551-1.61733-13.92444-2.7676-53.69894,32.05019-76.74307l0.24779-.15821c0.68365-.4216,16.95409-10.32166,35.34679-10.32166a48.31677,48.31677,0,0,1,7.83395.62572c7.90882-5.03337,28.02982-16.065,52.46-16.065a76.53464,76.53464,0,0,1,37.34962,9.60191,74.29053,74.29053,0,0,1,26.50564,19.54832c10.91707,12.54064,22.746,34.631,18.817,69.56782,9.04794,9.01051,28.0628,34.64486,26.46909,89.93617,10.47319,7.97121,33.29048,31.21768,34.29591,82.90086,9.59344,7.66949,31.43383,29.62085,28.74734,68.88863a102.6815,102.6815,0,0,1,17.58872,21.67371c11.62034,19.54342,12.84592,39.12338,3.63487,56.91354,2.633,7.89188,6.54418,24.61779-.91629,39.56994-5.96214,11.94746-17.4461,19.87054-34.13547,23.54729a64.503,64.503,0,0,1-12.84681,1.38959c-0.20946,0-.418-0.00089-0.62393-0.00357,0.51876,8.26268,1.8727,17.40956,4.5467,21.97141,6.05662,10.33236,5.701,26.71421-.82627,38.10726A28.722,28.722,0,0,1,549.30267,591.23321Z" transform="translate(-48.79526 -32.67442)"/><path class="cls-1" d="M605.47847,446.15514c7.0728-27.66511-16.79147-56.62937-17.84982-57.63986a13.65482,13.65482,0,0,1-.385,1.92465,12.49867,12.49867,0,0,1-.48131,1.92465,13.498,13.498,0,0,1-.76968,2.3575,28.00941,28.00941,0,0,1-2.02067,4.61868,34.33306,34.33306,0,0,1-2.502,4.28215c-4.90764,7.50565-11.35465,13.183-14.67448,15.01131,0.33683-1.15467,9.719-12.12434,13.23114-26.41412a81.78779,81.78779,0,0,0,2.02067-14.915,74.08421,74.08421,0,0,0-4.81132-29.25293,92.03112,92.03112,0,0,0-6.06231-13.51981,105.8492,105.8492,0,0,0-8.66032-12.55748,22.39958,22.39958,0,0,0-6.88016-6.351c-0.28867.72152-.57734,1.15467-0.72182,1.63569-0.91416,3.70481-1.732,7.50565-2.69433,11.21047-0.76968,2.79065-3.36769,10.53681-5.196,10.2963a70.96153,70.96153,0,0,1,.481-7.26515c0.6255-4.42634,1.01048-8.85267-.04816-13.32746a15.12677,15.12677,0,0,1,.14448-3.60849c0.14419-6.73568.19235-13.0385-.04816-18.90847l-0.14448-3.464c-0.14419-3.368-.38469-6.59149-0.76968-9.67081-0.14448-1.39518-.33683-2.74249-0.52918-4.04164-0.19264-1.68385-.48131-3.31983-0.77-4.90735-0.33683-1.87649-.72152-3.65665-1.20283-5.43682-0.19235-.91416-0.43285-1.82833-0.67366-2.69433a26.96165,26.96165,0,0,0-.81784-2.5983c-0.19235-.6255-0.385-1.20283-0.57734-1.78017a58.08243,58.08243,0,0,0-2.83852-6.832c-0.48131-.96232-1.01048-1.92465-1.53966-2.83881-0.52947-.962-1.1068-1.92435-1.68414-2.79036-0.57734-.91416-1.20283-1.82833-1.82833-2.69433a4.68854,4.68854,0,0,0-.76968-1.01048c-0.72182-.96232-1.4915-1.92465-2.3575-2.88668a49.198,49.198,0,0,0-5.485-5.485,42.20471,42.20471,0,0,0-3.56033-2.88668,30.97391,30.97391,0,0,0-.96232,3.464,29.68716,29.68716,0,0,0-.57734,2.983c-0.09632.52918-.14448,1.10651-0.19235,1.68385a2.415,2.415,0,0,0-.09632.57763c-0.09632.866-.14448,1.68385-0.19235,2.54985-0.09632,1.53966-.09632,3.03116-0.04816,4.52266,0,1.01048.04816,2.02067,0.096,2.983,0.09632,1.39518.19264,2.79065,0.33683,4.13767,0.04816,0.67366.14448,1.34731,0.24051,2.021,0.72182,5.86967,1.82833,10.87334,2.16515,13.568a5.551,5.551,0,0,1,.09632.76968,1.65271,1.65271,0,0,1-.09632,1.251,3.33048,3.33048,0,0,1-1.347-1.82833,15.30781,15.30781,0,0,1-.96232-2.16515c-0.81784-2.06883-1.636-4.619-2.26147-6.39914-0.096-.24051-0.19235-0.481-0.28867-0.67336-0.096-.2408-0.14419-0.43315-0.24051-0.6255a56.3648,56.3648,0,0,1-3.27166-9.719,22.32477,22.32477,0,0,1-.52918-2.45382c-0.14448-.57734-0.24051-1.15467-0.33683-1.732-0.19235-1.01048-.33683-1.97281-0.43315-2.983a2.85519,2.85519,0,0,1-.096-0.67366c-0.24051-1.68385-.385-3.368-0.48131-5.1V239.5569c-0.096-1.636-.14419-3.27166-0.14419-4.9558,0-3.2235.09632-6.49517,0.33683-9.76683,0.14419-2.16515,1.01019-5.53314,1.39518-7.65013,0.385-2.16515.6255-4.28215,0.81784-6.351,0.14448-1.4915.2408-2.88668,0.28867-4.33a70.91386,70.91386,0,0,0-1.68385-19.43794c-0.24051-1.05835-.481-2.117-0.76968-3.12718a68.65807,68.65807,0,0,0-4.18612-11.40281c-0.28867-.6255-0.57734-1.20283-0.866-1.78017a75.29648,75.29648,0,0,0-6.68752-10.77761c-0.67366-.866-1.29915-1.63569-1.87649-2.3575-1.01048-1.20283-1.92465-2.26118-2.79065-3.17534-0.33683-.385-0.67366-0.67366-0.96232-1.01048a14.12375,14.12375,0,0,0-1.20283-1.20283,3.26284,3.26284,0,0,0-.57734-0.57734c-0.72152-.72152-1.20283-1.20283-1.347-1.39518-12.84645,10.00764-13.32746,39.64526-14.09714,40.60758a62.31727,62.31727,0,0,1-2.21331-11.98015,97.63467,97.63467,0,0,1,.43315-10.63313,62.64994,62.64994,0,0,1,4.4745-18.95663c0.962-2.45382,1.92435-4.90764,2.69433-7.40933,1.251-3.99348,2.26118-8.03512,3.56033-11.98044,1.82833-5.77335,3.17534-11.49884,2.213-17.65748-0.67336-4.37818-2.54985-8.3235-3.65636-12.50932q-0.722-2.598-1.58782-5.05183a38.09331,38.09331,0,0,0-1.636-4.0898,10.99326,10.99326,0,0,0-.481-1.10651c-0.6255-1.34731-1.29915-2.69433-2.02067-3.94532-0.77-1.39518-1.636-2.74249-2.502-4.04164a35.93917,35.93917,0,0,0-2.30934-3.03086,9.2315,9.2315,0,0,0-1.251-1.53966,16.53087,16.53087,0,0,0-1.78017-1.92465,5.71883,5.71883,0,0,0-.91416-0.96232c-0.96232-.96232-1.92465-1.87649-2.93484-2.74249a0.67,0.67,0,0,0-.19264-0.14419,31.08907,31.08907,0,0,0-3.27166-2.502,5.67154,5.67154,0,0,0-1.15467-.81784,17.41329,17.41329,0,0,0-1.97281-1.29915,18.22031,18.22031,0,0,0-1.63569-.96232,13.44728,13.44728,0,0,0-1.636-.866,19.136,19.136,0,0,0-1.97251-1.01019,54.15983,54.15983,0,0,0-7.16883-2.83881c-0.91416-.28867-1.87649-0.52918-2.79065-0.76968a0.26464,0.26464,0,0,0-.24051-0.09632q-1.87649-.50524-3.753-0.866a3.33078,3.33078,0,0,0-.962-0.14448c-1.155-.24051-2.3578-0.43285-3.56063-0.57734q-2.165-.28852-4.33-0.43285a74.86518,74.86518,0,0,0-15.97363.76968,39.197,39.197,0,0,0-5.77365,1.29915q-0.866.28852-1.732,0.57734c-0.52918.19235-1.10651,0.385-1.58782,0.57734a37.27618,37.27618,0,0,0-7.40933,3.80084q-0.433.289-.866,0.57734c-0.52947.385-.91416,0.67366-1.29915,0.96232-0.19235.14448-.33683,0.28867-0.481,0.385-0.385.33683-.6255,0.52918-0.72182,0.6255a38.04966,38.04966,0,0,1,5.29234,3.31982c0.48131,0.33683.96232,0.72152,1.44363,1.10651a33.02782,33.02782,0,0,1,4.90735,4.76316,32.434,32.434,0,0,1,2.79065,3.70481,37.60862,37.60862,0,0,1,2.16515,3.75268c0,0.04816.04816,0.09632,0.04816,0.14448,0.24051,0.43315.43285,0.866,0.6255,1.29915a51.203,51.203,0,0,1,3.945,17.417c0.48131,4.95551.385,9.95947,0.52947,14.96315,0.096,5.29234.19235,10.585,2.74249,15.49232a5.17054,5.17054,0,0,1-1.05864-.6252,2.899,2.899,0,0,1-.67366-0.52947,21.23466,21.23466,0,0,1-5.48469-8.41982,19.78708,19.78708,0,0,1-.67366-2.02067,16.19687,16.19687,0,0,1-.48131-1.636,17.19114,17.19114,0,0,1-.43285-1.68385,63.75331,63.75331,0,0,1-1.20283-8.66032c-0.33683-5.5813-1.01048-16.69545-10.104-24.77843-2.64617-2.3575-5.196-4.81132-8.03483-6.92832-5.53285-4.13767-45.94808-17.36881-66.92538,18.37929-0.57734,1.01048-1.15467,2.117-1.7323,3.2235-0.57734,1.1068-1.10651,2.26147-1.63569,3.46431a70.43934,70.43934,0,0,0-2.93484,7.65013c-0.2408.6252-.43315,1.2507-0.6255,1.92435-0.385,1.251-.77,2.502-1.1068,3.849a37.89309,37.89309,0,0,0-1.15467,12.50962,25.56946,25.56946,0,0,0,.43315,3.31982q0.07224,0.50524.14419,0.866a12.4269,12.4269,0,0,0,.28867,1.347c0.09632,0.385.14448,0.6255,0.19264,0.77a1.41771,1.41771,0,0,0,.38469-0.385,2.17086,2.17086,0,0,0,.43315-0.481,69.61352,69.61352,0,0,0,4.57082-7.9388c1.44334-2.83881,2.69433-5.3405,2.88668-5.485a7.17643,7.17643,0,0,1,.09632,2.5983,10.3375,10.3375,0,0,1-.09632,1.10651q-0.07224.433-.14419,1.01048a7.69122,7.69122,0,0,1-.28867,1.44334c-0.09632.481-.2408,1.01019-0.385,1.58782-0.14448.52918-.33683,1.10651-0.52918,1.68385-0.19264.57734-.43315,1.20283-0.67366,1.82833s-0.52918,1.251-.866,1.92435a14.50211,14.50211,0,0,1-.866,1.7323c-1.58782,2.79036-2.93513,5.82151-4.52266,8.66032-0.04816.09632-.14448,0.24051-0.19264,0.33683-0.866,1.44334-1.68385,2.88668-2.598,4.33a42.10512,42.10512,0,0,1-2.40566,3.56063,24.06279,24.06279,0,0,0-2.30934,3.60849c-0.866,1.4915-1.636,3.03086-2.5983,4.4745-1.05835,1.68385-2.06883,3.41585-2.983,5.24418-1.15467,2.30963-2.16515,4.66714-3.12718,7.02464-0.91416,2.3575-1.7323,4.76316-2.502,7.16883-0.866,2.74249-1.68385,5.43682-2.45382,8.17931a12.09264,12.09264,0,0,0-.33683,1.251c-0.33683,1.20283-.6255,2.3575-0.91416,3.56033a9.14589,9.14589,0,0,0-.24051,1.10651c-0.28867,1.29915-.52918,2.64617-0.76968,3.94532a78.14982,78.14982,0,0,0-1.01048,9.47817c-0.09632,1.58782-.14448,3.2238-0.14448,4.81132,0.04816,3.84929-.04787,7.69829.04816,11.49913a107.1872,107.1872,0,0,1-4.33,33.15009,2.28814,2.28814,0,0,1-.52947.28867c-0.28867-3.70481-.6252-7.31331-0.81784-10.96967-0.19235-3.65665.57734-7.40963-1.347-11.16231a2.89347,2.89347,0,0,0-.96232,1.20283c-1.68414,2.64617-3.31982,5.38866-5.05183,7.98667-0.67366,1.01048-1.29915,1.97281-1.87649,2.983-0.481.81784-.96232,1.636-1.34731,2.45382a69.828,69.828,0,0,0-7.98667,23.62347c-0.14448.91416-.24051,1.82833-0.33683,2.69433-0.09632.96232-.19235,1.92465-0.24051,2.887a60.36912,60.36912,0,0,0-.14448,6.39914c0,0.52918.04816,1.05835,0.04816,1.53937q0.07224,1.44349.14448,2.45382c0.28867,5.1-.04816,10.24814.67336,15.20395a163.27077,163.27077,0,0,1,.8663,35.60362,175.97062,175.97062,0,0,1-4.33031,25.54812c-0.19235-.57734-0.6255-5.05183-1.4915-11.451-0.14448-1.2507-.33683-2.54985-0.481-3.945a2.41506,2.41506,0,0,1-.09632-0.57734c-0.24051-1.53966-.48131-3.2238-0.77-4.90764a3.5901,3.5901,0,0,0-.14419-0.96232c-0.19235-1.15467-.385-2.26118-0.57734-3.41615-0.19264-1.15467-.385-2.3575-0.6255-3.51217-1.53966,1.34731-2.55014,2.117-3.41615,3.03116a122.629,122.629,0,0,0-12.6538,16.35862,64.49075,64.49075,0,0,0-4.18583,7.16883c-0.43285.866-.81784,1.78017-1.20283,2.64617-0.38469.866-.72152,1.68385-1.01019,2.54985-0.28867.67366-.52947,1.39547-0.77,2.117q-0.64928,2.021-1.15467,4.04164a55.44185,55.44185,0,0,0-1.44334,7.89064c-0.14448,1.347-.24051,2.69433-0.33683,4.04135-0.09632,1.636-.14448,3.27166-0.09632,4.90764,0,1.68385.04816,3.31982,0.19264,5.00367,0.481,7.217,2.3575,14.434,3.65636,21.60309,1.01048,5.53285,2.45382,10.96966,2.117,16.59883-0.14419,2.117-2.06883,8.13115-3.65636,8.13115a81.84392,81.84392,0,0,0-.48131-9.86315c-0.24051-1.39518-.52918-2.74249-0.81784-4.08951-0.28867-1.39547-.57734-2.74249-0.91416-4.0898-0.6255-2.74249-1.251-5.43682-1.92465-8.17931-1.15467-4.715-4.66684-14.48184-4.76316-14.62632-0.385,3.12748-8.13115,16.166-11.11415,30.74443a54.05053,54.05053,0,0,0-.866,5.485c-0.09632.962-.19235,1.87619-0.24051,2.79036a8391759.79,8391759.79,0,0,0-.09632,1.82833v0.96232q0,1.80425.14448,3.60849c0.76968,8.75664,4.66684,17.08014,14.09714,23.23877,1.15467-2.21331,0-7.0728-.72182-16.83963,0.28867,0,3.56033,2.83852,4.9558,15.20365,0.52918,4.90764,1.732,9.81529,2.598,14.72264a25.11886,25.11886,0,0,0,7.0728,13.23114c3.99319,3.99348,8.949,6.39914,14.049,8.41982,5.00367,1.97281,10.2,1.7323,15.39629,1.34731,8.083-.6255,15.25181-3.368,20.785-9.57449a54.34728,54.34728,0,0,0,9.045-15.10763c4.81132-11.64332,9.62265-15.20395,10.34446-14.19346-0.28867.57734-2.83881,4.234-3.464,5.62917-2.117,4.7153-3.89716,9.238-1.87649,14.819a39.6523,39.6523,0,0,1,1.63569,19.87079c-0.28867,1.78017-.52918,3.60849-0.72152,5.43682-0.43315,3.2235-.77,6.447-1.05864,9.67081-0.481,5.77365,1.44334,10.2963,6.92832,13.13482,2.021,1.05864,4.0898.91416,6.2068,0.91416,5.62917,0,8.75635-3.31983,9.95918-8.13115a24.44223,24.44223,0,0,0-.33653-11.7878c-0.33683-1.29886-.67366-2.54985-1.01048-3.80084-0.57734-2.16515-1.251-4.33031-1.97251-6.4473-4.90764-14.53-3.07932-28.72346,1.92435-42.77244,2.02067-5.67762,4.234-11.30679,6.25466-16.98411,0.48131-1.29915.91416-2.598,1.34731-3.89716a76.33539,76.33539,0,0,0,2.117-9.28582,2.67757,2.67757,0,0,0-1.636-3.07932c-1.68385-.72152-3.31983-1.58782-4.95551-2.40566a16.12093,16.12093,0,0,1-7.602-8.083c-2.40566-6.351-2.983-13.2793,1.636-18.71612a39.14055,39.14055,0,0,0,4.61868-6.88016,34.06942,34.06942,0,0,0,2.02067-4.57082c0.2408-.6255.43315-1.20283,0.6255-1.78017,0.385-1.15467.72182-2.26118,0.96232-3.27166a4.0034,4.0034,0,0,1,.19264-0.72152,1.928,1.928,0,0,1,.14419-0.72182,12.37137,12.37137,0,0,1,.24051-1.29915,2.41506,2.41506,0,0,1,.09632-0.57734c0.04816-.385.09632-0.72152,0.14419-1.05835,0.14448-1.15467.19264-1.87649,0.19264-2.117a45.50977,45.50977,0,0,1,.76968,5.77365c0.04816,0.57734.09632,1.10651,0.09632,1.58753a32.62459,32.62459,0,0,1-.19235,5.43682c-0.04816.57734-.14448,1.15467-0.2408,1.732q-0.144.86644-.28867,1.58782a9.42317,9.42317,0,0,0-.24051.96232c-0.19235.76968-.385,1.44334-0.57734,2.06883a5.80992,5.80992,0,0,0-.24051.67366c-0.28867.91416-.6255,1.78017-0.91416,2.54985-0.81784,2.117-1.4915,3.753-1.44334,5.29263a13.30345,13.30345,0,0,0,4.57082,10.2963c3.12718,2.54985,7.02434,3.51217,11.01783,3.80084a6.69656,6.69656,0,0,0,3.70481-.866c8.70848-4.7153,11.01783-7.79432,9.815-17.89828-0.28867-2.30934-.72182-4.57082-0.91416-6.88016a26.155,26.155,0,0,1-.14448-2.74249v-0.6255a34.84987,34.84987,0,0,1,.33683-3.80084c0.09632-.43315.19264-0.91416,0.28867-1.39518a13.21019,13.21019,0,0,1,.385-1.78017c0.33683-1.4915.77-3.03116,1.251-4.52266l1.01048-2.887c0.33653-.96232.72152-1.87649,1.10651-2.74249s0.72152-1.732,1.10651-2.54985c0.33683-.77.72182-1.53966,1.05864-2.21331a27.71249,27.71249,0,0,1,2.50169-4.42634,2.74757,2.74757,0,0,1-.14419,1.92435c-0.09632.385-.24051,0.8663-0.385,1.39547-0.52918,1.82833-1.29915,4.18583-2.02067,6.832-0.19264.6255-.385,1.29915-0.52918,1.97281-0.19264.866-.385,1.78017-0.57734,2.69433a17.505,17.505,0,0,0-.33683,2.213,2.81615,2.81615,0,0,0-.09632.6255c-0.04816.33683-.04816,0.6255-0.09632,0.96232-0.04816.67366-.096,1.347-0.096,2.02067a18.50868,18.50868,0,0,0,.481,4.37847c0.52918,2.16486.96232,2.79036,3.31982,2.64617a25.512,25.512,0,0,0,6.25466-1.10651c3.17564-.96232,6.351-2.16515,9.4303-3.41615a53.6595,53.6595,0,0,0,9.28582-5.19631,28.24615,28.24615,0,0,0,4.619-3.89716c0.43285-.43285.81784-0.866,1.20283-1.29915a43.13726,43.13726,0,0,0,4.37818-6.01415c0.385-.72152.76968-1.44334,1.15467-2.1167,0.57734-1.1068,1.05864-2.16515,1.4915-3.12748,1.251-2.88668,1.87649-4.9558,2.06883-5.24447a18.73371,18.73371,0,0,1,.52947,7.40963,4.098,4.098,0,0,1-.14448,1.10651,12.35108,12.35108,0,0,1-.33683,1.92465v0.04787c-0.76968,3.753-2.117,7.31331-2.79065,11.01812a16.16278,16.16278,0,0,0,1.92465.57734c0.91416,0.14419,1.82833.24051,2.74249,0.33683,9.23766,1.01019,17.65748-2.16515,25.83678-6.54333,0.72182-.385,1.39518-0.77,2.06883-1.155a0.6722,0.6722,0,0,1,.19235-0.14419c0.72182-.43315,1.39547-0.91416,2.06913-1.39518,0.866-.6255,1.68385-1.251,2.50169-1.97281,4.52266-3.94532,5.485-4.42634,9.14163-18.09062,0.385,2.06883,5.88666,21.50983-15.01131,32.42827,0.385,0.67366.57734,1.155,0.81784,1.58782a46.14809,46.14809,0,0,0,9.86315,11.932,4.44331,4.44331,0,0,1,1.29915,4.52266,46.88019,46.88019,0,0,0-1.4915,6.351,19.87293,19.87293,0,0,0,1.01048,9.62265c0.481,1.39547,1.29886,2.74249,2.983,2.5983,2.06883-.19264,4.33-0.52947,5.86967-2.117,1.87649-2.021,3.65665-4.18583,4.04164-7.02464a33.297,33.297,0,0,0,.096-6.92832c-0.38469-4.04135-1.53966-8.03483-.04787-12.02831a4.44866,4.44866,0,0,1,2.213-2.79065,22.29236,22.29236,0,0,0,4.234-2.26118,20.44493,20.44493,0,0,0,8.13115-16.06995c0-.81784.14448-1.68385,0.28867-3.27166,0.96232,1.20283,2.30934,9.4303,1.4915,12.702a19.15258,19.15258,0,0,1-4.234,7.31331c-3.31983,3.849-3.89716,7.93851-2.50169,12.74983a49.12725,49.12725,0,0,1,1.58753,9.57449c0.52918,6.255-.19235,12.50962-1.10651,18.668a36.79015,36.79015,0,0,0,5.14815,25.25945c3.60849,6.06231,14.24133,12.17279,18.33113,13.42378a24.5708,24.5708,0,0,1,10.0555,6.01415,1.12778,1.12778,0,0,1,.2408.24051c4.08951,3.80084,6.15834,7.26515,6.30282,7.84248-2.06883-1.39547-5.19631-3.60849-7.121-5.05183a20.53945,20.53945,0,0,0-1.82833-1.251c0.52947,0.91416,1.01048,1.82833,1.44363,2.69433,2.93484,5.91783,4.04135,11.25833,2.93484,21.36229-1.68414,15.44416,6.30282,21.93962,12.22066,12.413,2.502-3.99319,2.117-16.0215,5.1-22.132,2.93484-5.966,12.317-5.38866,13.13511,2.502,1.53937,14.72264,1.29886,21.55464-4.04164,39.83761a50.39154,50.39154,0,0,0-1.58782,19.24529,25.70662,25.70662,0,0,0,3.65665,11.25863,7.438,7.438,0,0,0,7.0728,3.17534c6.39885-.91416,11.066-4.04135,13.42349-10.2,2.30934-6.25466,1.347-12.55748-.33683-18.6198a201.88689,201.88689,0,0,1-5.05183-22.61328c-1.636-10.53681,1.05835-20.73679,8.468-28.29061a48.999,48.999,0,0,0,9.86315-15.15549c1.732,13.23114-7.40933,20.015-7.02464,22.18013,27.32828,2.69433,36.8549-10.39233,36.75858-26.99145-0.04816-13.9048-6.92832-30.35944-15.73312-41.90673C593.59464,432.68349,599.46432,438.98631,605.47847,446.15514ZM300.19993,399.87023c-8.99715,15.49232-6.59149,34.93026-4.23369,48.30558,0.14419,0.72182.24051,1.44334,0.38469,2.16515,0.24051,1.20283.43315,2.3575,0.6255,3.464q0.07224,0.3612.14448,0.72182c0.19235,1.15467.38469,2.21331,0.52918,3.17534a29.42411,29.42411,0,0,1,.385,4.04164,28.384,28.384,0,0,1-1.251,7.16883,14.06522,14.06522,0,0,1-7.602,8.70848c-5.19631,2.45382-10.585,4.18583-16.45464,3.56033a10.40906,10.40906,0,0,1-1.20283-.19235,11.09057,11.09057,0,0,1-2.06883-.57734,5.26394,5.26394,0,0,1-1.1068-.43315,3.63855,3.63855,0,0,1-.866-0.43285,13.79531,13.79531,0,0,1-4.76316-4.13767c-0.19235-.2408-0.33683-0.52947-0.52918-0.77a10.19728,10.19728,0,0,1-1.01048-1.732,18.68613,18.68613,0,0,1-.81784-1.97281,4.56711,4.56711,0,0,1-.33683-1.15467,13.70249,13.70249,0,0,1-.385-1.63569c-0.096-.48131-0.19235-0.96232-0.24051-1.44363a14.92616,14.92616,0,0,1-.19235-1.53937c-0.04816-.67366-0.09632-1.39547-0.09632-2.16515v-0.19264c0-.91416.04816-1.87619,0.14448-2.83852,0.04787-.67366.14419-1.29915,0.24051-1.97281,0.14419-1.15467.385-2.3575,0.67366-3.65636,0.096-.48131.19235-0.96232,0.33653-1.44363a41.83923,41.83923,0,0,1,1.34731-4.715c0-.04816.04816-0.14419,0.04816-0.19235,1.39518-4.28215,4.42634-9.67081,5.67733-13.953a59.06642,59.06642,0,0,0,1.251-7.74616c0.19235-1.58782.28867-3.17564,0.481-4.81132,0.19264,0.04816,3.2235,7.31331-1.251,20.49629-0.38469.866-.67336,1.732-0.962,2.598-0.19264.57734-.33683,1.20283-0.48131,1.82833a10.64651,10.64651,0,0,0-.385,1.78017,19.38249,19.38249,0,0,0-.28867,2.40566,32.57357,32.57357,0,0,0,.04816,5.72549,26.25936,26.25936,0,0,0,.48131,3.31982c0.91416,4.9558,4.42634,8.083,9.47817,7.79432a5.29622,5.29622,0,0,0,.866-0.09632,2.44072,2.44072,0,0,0,.81784-0.14419,7.91718,7.91718,0,0,0,3.12748-1.251,2.85325,2.85325,0,0,0,.866-0.6255c2.55014-2.117,3.65665-5.62917,3.99348-9.52633a11.7149,11.7149,0,0,0,.04816-1.29915,25.136,25.136,0,0,0,0-2.69433,22.001,22.001,0,0,0-.14448-2.54985,7.24318,7.24318,0,0,0-.096-1.05864,102.45663,102.45663,0,0,0-2.21331-12.02831c-6.88016-33.58294,26.12545-48.11324,26.99145-48.49822C310.20757,387.93795,302.41325,396.02123,300.19993,399.87023ZM323.15,283.05115c-19.29345,29.10845-14.62632,62.83587-18.86031,83.47664-4.76316,23.09429-10.77732,21.12149-12.75012,21.12149,8.468-11.25833,7.121-17.84982,2.45382-40.22259-2.64617-16.21414,2.02067-31.08126,6.78413-41.37726a86.15169,86.15169,0,0,1,11.83567-18.09062c17.7538-21.36229,19.7266-49.55657,19.96711-50.952C334.601,238.54641,335.70752,264.09453,323.15,283.05115Zm20.20762-104.45365c5.19631-11.7878-4.37847-39.64555-4.33031-40.17473,0.6255,0.14448,10.77732,9.62265,12.702,25.16313,1.251,6.92832,1.97281,13.85664-.28867,20.785-1.20283,3.65665-12.1725,15.97363-1.97251,32.28409,10.39233,10.63313,20.15946,1.10651,15.73283-11.21047-8.99715-33.198,10.72945-37.81693,11.49913-37.86509,0.19235,2.06883-10.53681,8.66032-6.2065,19.4858,2.16486,6.2068,4.57052,12.36514,5.38866,19.00479,0.76968,5.67733.6255,11.21047-1.732,16.45464-1.58782,3.56063-3.84929,6.68781-7.65013,7.84248a25.34012,25.34012,0,0,1-8.66032,1.05864,18.69429,18.69429,0,0,1-11.21047-4.37847c-5.72549-4.85919-8.75664-11.01783-10.2-18.71583C333.06136,190.67368,342.25115,182.8312,343.35766,178.59751ZM445.35778,321.10889c-0.48131-.385-1.44334-7.0728-10.585-9.238-4.76316-1.15467-9.47846-.43285-14.19346.67366a5.13415,5.13415,0,0,0-1.20283.72182c2.64617,4.18583,6.2065,7.93851,6.59149,12.94247,0.43315,6.2065-1.4915,11.21017-1.68385,11.16231-0.04816-.67366,0-12.07647-6.06231-17.9946a34.0904,34.0904,0,0,0-21.07362-9.91131,36.12234,36.12234,0,0,0-17.56145,2.983c-1.97251.8663-2.213,2.40566-2.16486,4.234a53.98411,53.98411,0,0,0,2.54985,15.6368c1.92465,5.72549.72182,11.21047-1.29915,16.64729-0.28867.76968-.81784,1.44334-1.05835,2.21331-3.60849,9.28582-14.7708,10.96967-21.93962,8.41982-8.37166-2.983-12.94247-9.95947-11.35465-19.7266a51.07771,51.07771,0,0,1,2.3575-8.85267c2.06883-6.2068,3.849-12.46146,3.849-19.05295a20.47126,20.47126,0,0,0-.72182-5.38866c-1.58753-6.06231-5.67733-8.51614-11.932-7.45749a21.55936,21.55936,0,0,1-2.502.14419c13.03879-9.76683,18.18694,4.52266,19.05295,7.89064,1.636,6.351,1.251,12.702.33683,19.10111-0.43315,3.2235-.76968,6.447-1.251,9.67051a12.46367,12.46367,0,0,0,2.83881,9.38214,6.73089,6.73089,0,0,0,6.97648,2.79065c4.42634-.866,7.698-3.31982,8.41982-7.74616a69.03742,69.03742,0,0,0,.6252-10.00764c0.04816-2.93484-.481-5.87-0.57734-8.8048-0.04787-2.213-3.70452-12.74983,5.14815-24.92262a44.7837,44.7837,0,0,0,8.51614-27.95378c-13.183-4.95551-24.05662,19.149-24.97078,20.64047-0.33683-1.20283.67366-9.62265,2.30934-13.23114A23.2235,23.2235,0,0,1,373.81342,264.335c16.21414-7.79432,20.92914-30.31128,21.21781-33.198,3.368-38.00957,18.283-39.93393,19.149-39.64526-1.29886.76968-20.15946,17.9943-6.88016,50.71124,1.82833,4.4745,5.004,7.9388,8.17931,11.30649a124.4105,124.4105,0,0,1,12.02831,14.53029c3.27166,4.76316,6.97648,9.23766,9.76713,14.33765,4.234,7.602,7.89035,15.39629,9.38185,24.05662a45.36466,45.36466,0,0,1,.385,7.26515A30.92649,30.92649,0,0,1,445.35778,321.10889ZM461.7161,230.9926a31.9331,31.9331,0,0,1,3.46431-14.09714c3.368-7.0725,3.46885-14.37251,1.68385-21.69912-2.96487-12.16941-14.7708-19.67815-15.92547-20.59231,0.03029,3.32684,6.39914,6.11047,1.53966,29.92629-0.43315,3.03116-3.80084,12.79828.72182,25.16342,0.91416,2.79036,1.97251,5.53285,2.983,8.27534,3.70452,10.24814,7.89035,20.30394,10.15182,30.98494a112.01167,112.01167,0,0,1,2.40566,23.3348c0,2.887-.33683,8.61246-2.598,11.49913-0.43315-.81784,1.58753-7.60168-2.83881-19.87079a67.2104,67.2104,0,0,0-3.80084-8.99715c-1.78017-3.27166-3.99348-6.30282-5.966-9.52633a122.67091,122.67091,0,0,1-6.88045-11.88412,83.38465,83.38465,0,0,1-4.28185-12.36484,39.5586,39.5586,0,0,1,.14419-21.93962c1.82833-6.49546,3.80113-12.89461,5.3405-19.38977,1.7323-7.217,2.26147-14.48213.28867-21.74728-0.481-1.78017-1.01019-3.56033-1.347-5.3405-0.43315-2.16515,1.01048-3.27166,3.07932-2.502a9.13232,9.13232,0,0,1,2.06883,1.251c5.24418,3.89716,10.0555,6.88016,14.09714,12.02831,3.464,4.37847,5.485,10.68129,6.30282,16.11811a31.236,31.236,0,0,1,.385,6.68752c-0.19264,4.76346-.96232,9.52662-0.96232,14.28978a38.0623,38.0623,0,0,0,1.53966,10.44049c1.20283,4.28215,4.4745,6.92832,8.468,8.66032a6.88633,6.88633,0,0,0,7.217-.962,6.273,6.273,0,0,0,2.30934-6.49546,81.84087,81.84087,0,0,0-2.983-10.53681c-3.03116-9.28582-3.368-18.47532.57734-27.66511,4.52266-9.23766,5.05183-20.1113,5.3405-23.71979,2.02067,1.15467,3.2235,5.67733,3.41615,11.54729,0.52918,14.62632-4.234,21.16965-.14448,32.52459,2.21331,6.11018,4.28215,12.317,5.966,18.57164a20.75851,20.75851,0,0,1-.81784,13.51981c-2.02067,5.00367-5.53285,8.27534-11.16231,9.14134C483.07839,256.9257,465.37275,258.70587,461.7161,230.9926Zm81.45567,199.3331c-2.983,10.34446-10.296,15.97363-20.30364,18.668a28.398,28.398,0,0,1-10.82548,1.29915c-28.67559-4.28215-14.53029-56.9662-15.10763-65.14522-0.24051-3.46431-.24051-6.92832-0.67366-10.34446-0.38469-3.31983-1.20283-6.59149-1.78017-9.86315,0.33683-.04816,8.5643,12.1725,7.602,36.71042,0.33683,53.69424,36.75858,30.50363,29.68578,8.66032a149.261,149.261,0,0,0-7.79432-19.87079c-3.70452-7.9388-6.15834-16.11782-6.351-24.87446,0.6255-28.38693,14.7708-54.75289,16.31046-56.67753,1.732,1.97281-11.98015,38.49059-10.44049,53.88688a43.38939,43.38939,0,0,0,7.217,19.87079,94.828,94.828,0,0,1,11.836,23.67163A39.34549,39.34549,0,0,1,543.17177,430.3257Z" transform="translate(-48.79526 -32.67442)"/><path d="M118.508,682.11282a0.89174,0.89174,0,0,1-.89,1.2859h-19.579a2.305,2.305,0,0,1-2.07675-1.2859l-2.96679-10.38288H74.40558L71.4388,682.11282a2.306,2.306,0,0,1-2.07675,1.2859H49.783a0.89106,0.89106,0,0,1-.88917-1.2859l22.34746-65.659a2.98964,2.98964,0,0,1,2.37343-1.28416H93.78626a2.98964,2.98964,0,0,1,2.37343,1.28416ZM83.70006,638.803l-5.33934,18.78732H89.04027Z" transform="translate(-48.79526 -32.67442)"/><path d="M173.78767,615.16961a0.9894,0.9894,0,0,1,.98835,1.38334l-22.64414,65.46068a2.03194,2.03194,0,0,1-1.78007,1.38508H128.5977a2.03194,2.03194,0,0,1-1.78007-1.38508L104.17349,616.553a0.9894,0.9894,0,0,1,.98835-1.38334h22.05165a2.0524,2.0524,0,0,1,1.87838,1.38334l10.38288,40.64235L149.85763,616.553a2.05147,2.05147,0,0,1,1.87838-1.38334h22.05165Z" transform="translate(-48.79526 -32.67442)"/><path d="M227.78142,665.59974a1.42623,1.42623,0,0,1,1.48339,1.2859v15.128a1.50732,1.50732,0,0,1-1.48339,1.38508H181.8006a2.01716,2.01716,0,0,1-1.58258-1.48252V616.553a1.251,1.251,0,0,1,1.38421-1.38334H226.5947a1.53209,1.53209,0,0,1,1.58258,1.38334v14.93137a1.48253,1.48253,0,0,1-1.58258,1.48426H200.78628v7.81108h20.96325a1.18572,1.18572,0,0,1,1.285,1.2859l-1.38421,13.84384a1.735,1.735,0,0,1-1.68089,1.2859H200.78628v8.40444h26.99514Z" transform="translate(-48.79526 -32.67442)"/><path d="M291.26714,681.817a1.05489,1.05489,0,0,1-1.08753,1.58171H269.01886a2.59374,2.59374,0,0,1-2.27425-1.58171l-10.28457-21.55748h-1.18671v21.7541a1.53257,1.53257,0,0,1-1.58171,1.38508h-17.404a1.50648,1.50648,0,0,1-1.48252-1.38508v-65.3615a1.51919,1.51919,0,0,1,1.48252-1.48252h26.1051c15.22892,0,25.31425,8.89862,25.31425,22.34746,0,7.81108-4.74512,15.72135-12.16295,18.8865Zm-30.15855-38.3681c3.36178,0,5.636-2.07588,5.636-5.23929,0-3.16515-2.27425-5.241-5.636-5.241h-5.83526v10.48032h5.83526Z" transform="translate(-48.79526 -32.67442)"/><path d="M348.426,615.16961a1.055,1.055,0,0,1,1.08753,1.58171L327.66029,656.106v25.9076a1.50713,1.50713,0,0,1-1.48252,1.38508h-17.404a1.50752,1.50752,0,0,1-1.48426-1.38508V656.106l-21.85329-39.35471a1.055,1.055,0,0,1,1.08753-1.58171H307.0929a2.59283,2.59283,0,0,1,2.27425,1.58171l8.10863,17.799,8.10863-17.799a2.58878,2.58878,0,0,1,2.27425-1.58171H348.426Z" transform="translate(-48.79526 -32.67442)"/><path d="M395.79368,615.16961c12.95293,0,21.55574,7.7119,21.55574,19.28149,0,7.12028-3.461,12.36131-8.79943,13.943,6.22938,1.58171,10.2837,7.51528,10.2837,15.72309,0,11.56785-8.60281,19.28149-21.4583,19.28149h-31.347a1.41442,1.41442,0,0,1-1.38334-1.38508v-65.3615a1.50191,1.50191,0,0,1,1.38334-1.48252h29.76529Zm-4.54849,26.79677c2.965,0,4.94348-1.78007,4.94348-4.54849s-1.97844-4.54849-4.94348-4.54849h-6.23112v9.097h6.23112Zm1.77833,23.73254a4.74787,4.74787,0,1,0,0-9.49371h-8.00945v9.49371h8.00945Z" transform="translate(-48.79526 -32.67442)"/><path d="M478.761,615.16961a1.66616,1.66616,0,0,1,1.68089,1.68089v41.234c0,17.50316-9.39453,26.69933-27.29268,26.69933-17.69979,0-27.09432-9.19616-27.29094-26.69933v-41.234a1.73123,1.73123,0,0,1,1.68089-1.68089H444.5464a1.66507,1.66507,0,0,1,1.68089,1.68089v43.014c0,4.54849,2.57179,7.21773,6.92192,7.21773,4.35187,0,6.92192-2.66924,6.92192-7.11854V616.8505a1.73246,1.73246,0,0,1,1.68089-1.68089h17.009Z" transform="translate(-48.79526 -32.67442)"/><path d="M545.41362,681.817a1.05528,1.05528,0,0,1-1.08753,1.58171H523.1636a2.59577,2.59577,0,0,1-2.27425-1.58171l-10.2837-21.55748h-1.18671v21.7541a1.53318,1.53318,0,0,1-1.58171,1.38508h-17.404a1.50713,1.50713,0,0,1-1.48252-1.38508v-65.3615a1.5198,1.5198,0,0,1,1.48252-1.48252h26.106c15.22718,0,25.31425,8.89862,25.31425,22.34746,0,7.81108-4.74686,15.72135-12.16295,18.8865Zm-30.16029-38.3681c3.36178,0,5.636-2.07588,5.636-5.23929,0-3.16515-2.27425-5.241-5.636-5.241h-5.83439v10.48032h5.83439Z" transform="translate(-48.79526 -32.67442)"/><path d="M607.911,615.16961a1.45553,1.45553,0,0,1,1.48426,1.48252v65.3615a1.43816,1.43816,0,0,1-1.48426,1.38508H590.80457a2.68889,2.68889,0,0,1-2.07588-1.2859l-17.20735-30.7519v30.65272a1.43768,1.43768,0,0,1-1.48252,1.38508H552.53565a1.41442,1.41442,0,0,1-1.38334-1.38508v-65.3615a1.43554,1.43554,0,0,1,1.38334-1.48252h17.10817a2.61894,2.61894,0,0,1,2.27425,1.28416l17.10643,30.75364V616.65214a1.50583,1.50583,0,0,1,1.38508-1.48252H607.911Z" transform="translate(-48.79526 -32.67442)"/><path d="M665.85988,665.59974a1.42649,1.42649,0,0,1,1.48426,1.2859v15.128a1.50752,1.50752,0,0,1-1.48426,1.38508H619.87906a2.01847,2.01847,0,0,1-1.58171-1.48252V616.553a1.25083,1.25083,0,0,1,1.38508-1.38334h44.99247a1.53183,1.53183,0,0,1,1.58171,1.38334v14.93137a1.48228,1.48228,0,0,1-1.58171,1.48426H638.86475v7.81108h20.96412a1.18688,1.18688,0,0,1,1.2859,1.2859l-1.38508,13.84384a1.735,1.735,0,0,1-1.68089,1.2859H638.86475v8.40444h26.99514Z" transform="translate(-48.79526 -32.67442)"/><path d="M725.88638,615.16961a1.29218,1.29218,0,0,1,1.38508,1.38334l-1.48426,15.03055a1.67767,1.67767,0,0,1-1.58171,1.38508h-14.733v49.045a1.41476,1.41476,0,0,1-1.38508,1.38508H690.58425a1.50713,1.50713,0,0,1-1.48252-1.38508v-49.045H672.68784a1.41476,1.41476,0,0,1-1.38508-1.38508V616.65214a1.50583,1.50583,0,0,1,1.38508-1.48252h53.19855Z" transform="translate(-48.79526 -32.67442)"/><path d="M785.81371,615.16961a1.29218,1.29218,0,0,1,1.38508,1.38334l-1.48426,15.03055a1.67767,1.67767,0,0,1-1.58171,1.38508h-14.733v49.045a1.41476,1.41476,0,0,1-1.38508,1.38508H750.51157a1.50713,1.50713,0,0,1-1.48252-1.38508v-49.045H732.61516a1.41476,1.41476,0,0,1-1.38508-1.38508V616.65214a1.50583,1.50583,0,0,1,1.38508-1.48252h53.19855Z" transform="translate(-48.79526 -32.67442)"/></svg>