<?xml version="1.0" encoding="utf-8"?>
<!-- Generator: Adobe Illustrator 18.1.0, SVG Export Plug-In . SVG Version: 6.00 Build 0)  -->
<svg version="1.1" id="Layer_1" xmlns="http://www.w3.org/2000/svg" xmlns:xlink="http://www.w3.org/1999/xlink" x="0px" y="0px"
	 viewBox="0 0 490.1 430.5" enable-background="new 0 0 490.1 430.5" xml:space="preserve">
<path fill="none" stroke="#FFFFFF" stroke-width="2" stroke-linecap="round" stroke-linejoin="round" stroke-miterlimit="10" d="
	M234.8,26.4h-81.6c-11.2,0-20.2,9-20.2,20.2v64.6c0,11.2,9,20.2,20.2,20.2h81.6c11.2,0,20.2-9,20.2-20.2V46.6
	C255,35.4,245.9,26.4,234.8,26.4z M179.3,98.9c-8.3,0-15-6.7-15-15c0-8.3,6.7-15,15-15c8.3,0,15,6.7,15,15
	C194.3,92.2,187.6,98.9,179.3,98.9z M223,98.9c-8.3,0-15-6.7-15-15c0-8.3,6.7-15,15-15c8.3,0,15,6.7,15,15
	C238,92.2,231.3,98.9,223,98.9z"/>
<rect x="186" y="131.4" fill="none" stroke="#FFFFFF" stroke-width="2" stroke-linecap="round" stroke-linejoin="round" stroke-miterlimit="10" width="17" height="14.8"/>
<path fill="none" stroke="#FFFFFF" stroke-width="2" stroke-linecap="round" stroke-linejoin="round" stroke-miterlimit="10" d="
	M238,83.9c0,8.3-6.7,15-15,15c-8.3,0-15-6.7-15-15c0-8.3,6.7-15,15-15C231.3,68.9,238,75.6,238,83.9z"/>
<path fill="none" stroke="#FFFFFF" stroke-width="2" stroke-linecap="round" stroke-linejoin="round" stroke-miterlimit="10" d="
	M194.3,83.9c0,8.3-6.7,15-15,15c-8.3,0-15-6.7-15-15c0-8.3,6.7-15,15-15C187.6,68.9,194.3,75.6,194.3,83.9z"/>
<path fill="none" stroke="#FFFFFF" stroke-width="2" stroke-linecap="round" stroke-linejoin="round" stroke-miterlimit="10" d="
	M313.5,266.1c0,1.1,0.1,2.2,0.3,3.3L281,227.8v-50.2l53.1,67.5C322.7,245.3,313.5,254.6,313.5,266.1z"/>
<path fill="none" stroke="#FFFFFF" stroke-width="2" stroke-linecap="round" stroke-linejoin="round" stroke-miterlimit="10" d="
	M147.5,393.3l-6.8-17.2c-1.3-3.2,0.3-6.9,3.5-8.1l106.1-42c3.2-1.3,6.9,0.3,8.1,3.5l6.8,17.2c1.3,3.2-0.3,6.9-3.5,8.1l-106.1,42
	C152.4,398.1,148.8,396.5,147.5,393.3z"/>
<path fill="none" stroke="#FFFFFF" stroke-width="2" stroke-linecap="round" stroke-linejoin="round" stroke-miterlimit="10" d="
	M281,167.6v121.9c0,11.9-9.6,21.5-21.5,21.5H132.1c-11.9,0-21.5-9.6-21.5-21.5V167.6c0-11.8,9.6-21.5,21.5-21.5h127.5
	C271.4,146.1,281,155.8,281,167.6z"/>
<path fill="none" stroke="#FFFFFF" stroke-width="2" stroke-linecap="round" stroke-linejoin="round" stroke-miterlimit="10" d="
	M354.7,271.9c0.5-1.8,0.8-3.8,0.8-5.8c0-10.8-8.2-19.7-18.7-20.9l39.5-45.7c-0.4,1.5-0.7,3.1-0.7,4.7c0,9.5,7.7,17.1,17.1,17.1
	c2.4,0,4.8-0.5,6.9-1.4L354.7,271.9z"/>
<path fill="none" stroke="#FFFFFF" stroke-width="2" stroke-linecap="round" stroke-linejoin="round" stroke-miterlimit="10" d="
	M355.5,266.1c0,2-0.3,4-0.8,5.8c-2.5,8.8-10.6,15.2-20.2,15.2c-10.5,0-19.1-7.7-20.7-17.7v0c-0.2-1.1-0.3-2.2-0.3-3.3
	c0-11.5,9.2-20.8,20.6-21l2.7,0.1C347.3,246.3,355.5,255.3,355.5,266.1z"/>
<path fill="none" stroke="#FFFFFF" stroke-width="2" stroke-linecap="round" stroke-linejoin="round" stroke-miterlimit="10" d="
	M336.8,245.2l-2.7-0.1c0.1,0,0.3,0,0.4,0C335.3,245.1,336,245.1,336.8,245.2z"/>
<path fill="#F33933" d="M-316.5,44.6H-336c-1.5,0-2.7-1.2-2.7-2.7v-3.4c0-1.5,1.2-2.7,2.7-2.7h19.5c1.5,0,2.7,1.2,2.7,2.7v3.4
	C-313.8,43.3-315,44.6-316.5,44.6z"/>
<path fill="none" stroke="#FFFFFF" stroke-width="2" stroke-linecap="round" stroke-linejoin="round" stroke-miterlimit="10" d="
	M404.7,165.3l-17.2,7.2l6.2,14.7c-0.3,0-0.7,0-1,0c-5.2,0-9.9,2.3-13,6l-10.9-26c-0.1-0.2-0.2-0.4-0.2-0.7c-0.4-1.3,0.2-2.7,1.4-3.2
	l28.8-12.1c1.3-0.5,2.8,0.1,3.4,1.4l3.9,9.4C406.6,163.2,406,164.7,404.7,165.3z"/>
<path fill="none" stroke="#FFFFFF" stroke-width="2" stroke-linecap="round" stroke-linejoin="round" stroke-miterlimit="10" d="
	M440.3,179l-0.1,30.7c0,0.5-0.2,1-0.4,1.4v0c0,0,0,0,0,0c0,0,0,0,0,0c0,0,0,0-0.1,0.1c-0.5,0.9-1.4,1.4-2.5,1.4l-29.5-0.1
	c1.4-2.5,2.2-5.3,2.2-8.3c0-2.5-0.5-4.8-1.5-6.9l16.5,0.1L425,179c0-1.5,1.3-2.8,2.8-2.8l9.6,0C439,176.2,440.3,177.5,440.3,179z"/>
<path fill="none" stroke="#FFFFFF" stroke-width="2" stroke-linecap="round" stroke-linejoin="round" stroke-miterlimit="10" d="
	M409.9,204.3c0,3-0.8,5.9-2.2,8.3c-1.8,3.2-4.7,5.8-8.1,7.3c-2.1,0.9-4.4,1.4-6.9,1.4c-9.5,0-17.1-7.7-17.1-17.1
	c0-1.6,0.2-3.2,0.7-4.7c0.7-2.4,1.9-4.5,3.4-6.4c3.1-3.7,7.8-6,13-6c0.3,0,0.7,0,1,0c6.6,0.4,12.2,4.5,14.7,10.2
	C409.3,199.5,409.9,201.8,409.9,204.3z"/>
<polygon fill="none" stroke="#FFFFFF" stroke-width="2" stroke-linecap="round" stroke-linejoin="round" stroke-miterlimit="10" points="
	453.9,60.1 452,74.4 447,82.6 431.3,132.9 425.8,131.1 441.6,80.4 442,71.4 448.4,58.4 "/>
<path fill="none" stroke="#FFFFFF" stroke-width="2" stroke-linecap="round" stroke-linejoin="round" stroke-miterlimit="10" d="
	M434.3,142.4c-0.1,31.6-14.2,44.7-14.2,44.7c-9.7-0.1-15.1-4.7-15.1-4.7c-4.5-18.2,10.5-40.5,13.6-44.9L434.3,142.4z"/>
<path fill="none" stroke="#FFFFFF" stroke-width="2" stroke-linecap="round" stroke-linejoin="round" stroke-miterlimit="10" d="
	M439.5,136.9L438,142c-0.2,0.8-1.1,1.2-1.8,1l-1.8-0.6l-15.7-4.9l-1.9-0.6c-0.8-0.2-1.2-1.1-1-1.8l1.6-5c0.2-0.8,1.1-1.2,1.8-1
	l6.6,2l5.6,1.7l7.2,2.2C439.4,135.3,439.8,136.2,439.5,136.9z"/>
<path fill="#FFFFFF" stroke="#FFFFFF" stroke-width="0.7" stroke-miterlimit="10" d="M414.5,179.8l-1-0.3c-0.1,0-0.2-0.2-0.2-0.3
	l10.3-33.1c0-0.1,0.2-0.2,0.3-0.2l1,0.3c0.1,0,0.2,0.2,0.2,0.3l-10.3,33.1C414.8,179.8,414.6,179.9,414.5,179.8z"/>
<path fill="#FFFFFF" stroke="#FFFFFF" stroke-width="0.7" stroke-miterlimit="10" d="M419.6,181.4l-1-0.3c-0.1,0-0.2-0.2-0.2-0.3
	l10.3-33.1c0-0.1,0.2-0.2,0.3-0.2l1,0.3c0.1,0,0.2,0.2,0.2,0.3L420,181.2C419.9,181.4,419.8,181.5,419.6,181.4z"/>
<path fill="#FFFFFF" stroke="#FFFFFF" stroke-width="0.7" stroke-miterlimit="10" d="M409.1,177.9l-1-0.3c-0.1,0-0.2-0.2-0.2-0.3
	l10.3-33.1c0-0.1,0.2-0.2,0.3-0.2l1,0.3c0.1,0,0.2,0.2,0.2,0.3l-10.3,33.1C409.4,177.8,409.3,177.9,409.1,177.9z"/>
<circle fill="none" stroke="#FFFFFF" stroke-width="2" stroke-linecap="round" stroke-linejoin="round" stroke-miterlimit="10" cx="148.1" cy="279.7" r="9.2"/>
<circle fill="none" stroke="#FFFFFF" stroke-width="2" stroke-linecap="round" stroke-linejoin="round" stroke-miterlimit="10" cx="179" cy="279.9" r="9.2"/>
<circle fill="none" stroke="#FFFFFF" stroke-width="2" stroke-linecap="round" stroke-linejoin="round" stroke-miterlimit="10" cx="210.5" cy="279.9" r="9.2"/>
<circle fill="none" stroke="#FFFFFF" stroke-width="2" stroke-linecap="round" stroke-linejoin="round" stroke-miterlimit="10" cx="243.2" cy="279.9" r="9.2"/>
<path fill="none" stroke="#FFFFFF" stroke-width="2" stroke-linecap="round" stroke-linejoin="round" stroke-miterlimit="10" d="
	M249.2,241.8H142.1c-1.8,0-3.2,1.4-3.2,3.2v4.6c0,1.8,1.4,3.2,3.2,3.2h107.1c1.8,0,3.2-1.4,3.2-3.2V245
	C252.4,243.2,251,241.8,249.2,241.8z"/>
<path fill="none" stroke="#FFFFFF" stroke-width="2" stroke-linecap="round" stroke-linejoin="round" stroke-miterlimit="10" d="
	M249.2,215.4H142.1c-1.8,0-3.2,1.4-3.2,3.2v4.6c0,1.8,1.4,3.2,3.2,3.2h107.1c1.8,0,3.2-1.4,3.2-3.2v-4.6
	C252.4,216.9,251,215.4,249.2,215.4z"/>
<path fill="none" stroke="#FFFFFF" stroke-width="2" stroke-linecap="round" stroke-linejoin="round" stroke-miterlimit="10" d="
	M250.7,190.4H143.6c-1.8,0-3.2,1.4-3.2,3.2v4.6c0,1.8,1.4,3.2,3.2,3.2h107.1c1.8,0,3.2-1.4,3.2-3.2v-4.6
	C253.9,191.8,252.5,190.4,250.7,190.4z"/>
<path fill="none" stroke="#FFFFFF" stroke-width="2" stroke-linecap="round" stroke-linejoin="round" stroke-miterlimit="10" d="
	M87.5,352.4l-10.7,26.1c-0.1,0.2-0.2,0.5-0.4,0.7c-0.6,1.1-2,1.7-3.2,1.2l-28.9-11.8c-1.3-0.5-1.9-2-1.4-3.3l3.8-9.4
	c0.5-1.3,2-1.9,3.3-1.4l17.2,7l6-14.7c0.2,0.2,0.4,0.5,0.7,0.7C77.8,351.1,82.7,352.8,87.5,352.4z"/>
<path fill="none" stroke="#FFFFFF" stroke-width="2" stroke-linecap="round" stroke-linejoin="round" stroke-miterlimit="10" d="
	M81.5,318.8c-2.7,0.8-5.3,2.2-7.4,4.4c-1.7,1.7-3,3.8-3.8,5.9l-11.7-11.7l-13.1,13c-1.1,1.1-2.9,1.1-4,0l-6.8-6.9
	c-1.1-1.1-1.1-2.9,0-4l21.8-21.6c0.4-0.4,0.8-0.6,1.3-0.7c1-0.3,2.1-0.1,2.9,0.7L81.5,318.8z"/>
<path fill="none" stroke="#FFFFFF" stroke-width="2" stroke-linecap="round" stroke-linejoin="round" stroke-miterlimit="10" d="
	M98.3,347.4c-3,3-6.8,4.7-10.7,5c-4.8,0.4-9.8-1.3-13.5-5c-0.2-0.2-0.5-0.5-0.7-0.7c-4.4-4.9-5.5-11.8-3.2-17.6
	c0.8-2.2,2.1-4.2,3.8-5.9c2.1-2.1,4.7-3.6,7.4-4.4c5.8-1.7,12.2-0.2,16.8,4.4C105,329.9,105,340.7,98.3,347.4z"/>
<g>
	<path fill="none" stroke="#FFFFFF" stroke-width="2" stroke-linecap="round" stroke-linejoin="round" stroke-miterlimit="10" d="
		M374.5,348.2v-15.8h-6.1c-0.6-1.9-1.3-3.8-2.3-5.6l4.7-4.7l-11.2-11.2l-4.7,4.7c-1.7-1-3.6-1.7-5.5-2.3v-6.4h-15.8v6.4
		c-2.2,0.6-4.3,1.5-6.2,2.7l-5-5l-11.2,11.2l5.3,5.3c-0.8,1.6-1.5,3.2-2,4.9h-6.1v15.8h6.1c0.4,1.5,1,2.9,1.6,4.2l-4.9,4.9
		l11.2,11.2l4.4-4.4c2.1,1.3,4.4,2.4,6.9,3.1v5.1h15.8v-5.2c2-0.6,3.8-1.3,5.5-2.3l4.6,4.6l11.2-11.2l-4.7-4.7
		c1-1.7,1.7-3.6,2.3-5.6H374.5z M341.4,351.1c-6,0-10.8-4.8-10.8-10.8c0-6,4.9-10.8,10.8-10.8c6,0,10.8,4.9,10.8,10.8
		C352.2,346.2,347.4,351.1,341.4,351.1z"/>
</g>
</svg>
