<svg xmlns="http://www.w3.org/2000/svg" viewBox="0 0 490.1 430.5" enable-background="new 0 0 490.1 430.5"><path stroke="#fff" stroke-width="2" stroke-linecap="round" stroke-linejoin="round" stroke-miterlimit="10" d="M234.8 26.4h-81.6c-11.2 0-20.2 9-20.2 20.2v64.6c0 11.2 9 20.2 20.2 20.2h81.6c11.2 0 20.2-9 20.2-20.2v-64.6c0-11.2-9.1-20.2-20.2-20.2zm-55.5 72.5c-8.3 0-15-6.7-15-15s6.7-15 15-15 15 6.7 15 15-6.7 15-15 15zm43.7 0c-8.3 0-15-6.7-15-15s6.7-15 15-15 15 6.7 15 15-6.7 15-15 15zm-37 32.5h17v14.8h-17zm52-47.5c0 8.3-6.7 15-15 15s-15-6.7-15-15 6.7-15 15-15 15 6.7 15 15zm-43.7 0c0 8.3-6.7 15-15 15s-15-6.7-15-15 6.7-15 15-15 15 6.7 15 15zm119.2 182.2c0 1.1.1 2.2.3 3.3l-32.8-41.6v-50.2l53.1 67.5c-11.4.2-20.6 9.5-20.6 21zm-166 127.2l-6.8-17.2c-1.3-3.2.3-6.9 3.5-8.1l106.1-42c3.2-1.3 6.9.3 8.1 3.5l6.8 17.2c1.3 3.2-.3 6.9-3.5 8.1l-106.1 42c-3.2 1.3-6.8-.3-8.1-3.5zm133.5-225.7v121.9c0 11.9-9.6 21.5-21.5 21.5h-127.4c-11.9 0-21.5-9.6-21.5-21.5v-121.9c0-11.8 9.6-21.5 21.5-21.5h127.5c11.8 0 21.4 9.7 21.4 21.5zm73.7 104.3c.5-1.8.8-3.8.8-5.8 0-10.8-8.2-19.7-18.7-20.9l39.5-45.7c-.4 1.5-.7 3.1-.7 4.7 0 9.5 7.7 17.1 17.1 17.1 2.4 0 4.8-.5 6.9-1.4l-44.9 52zm.8-5.8c0 2-.3 4-.8 5.8-2.5 8.8-10.6 15.2-20.2 15.2-10.5 0-19.1-7.7-20.7-17.7-.2-1.1-.3-2.2-.3-3.3 0-11.5 9.2-20.8 20.6-21l2.7.1c10.5 1.1 18.7 10.1 18.7 20.9zm-18.7-20.9l-2.7-.1h.4c.8 0 1.5 0 2.3.1z" fill="none"/><path fill="#F33933" d="M-316.5 44.6h-19.5c-1.5 0-2.7-1.2-2.7-2.7v-3.4c0-1.5 1.2-2.7 2.7-2.7h19.5c1.5 0 2.7 1.2 2.7 2.7v3.4c0 1.4-1.2 2.7-2.7 2.7z"/><path stroke="#fff" stroke-width="2" stroke-linecap="round" stroke-linejoin="round" stroke-miterlimit="10" d="M404.7 165.3l-17.2 7.2 6.2 14.7h-1c-5.2 0-9.9 2.3-13 6l-10.9-26c-.1-.2-.2-.4-.2-.7-.4-1.3.2-2.7 1.4-3.2l28.8-12.1c1.3-.5 2.8.1 3.4 1.4l3.9 9.4c.5 1.2-.1 2.7-1.4 3.3zm35.6 13.7l-.1 30.7c0 .5-.2 1-.4 1.4l-.1.1c-.5.9-1.4 1.4-2.5 1.4l-29.5-.1c1.4-2.5 2.2-5.3 2.2-8.3 0-2.5-.5-4.8-1.5-6.9l16.5.1.1-18.4c0-1.5 1.3-2.8 2.8-2.8h9.6c1.6 0 2.9 1.3 2.9 2.8zm-30.4 25.3c0 3-.8 5.9-2.2 8.3-1.8 3.2-4.7 5.8-8.1 7.3-2.1.9-4.4 1.4-6.9 1.4-9.5 0-17.1-7.7-17.1-17.1 0-1.6.2-3.2.7-4.7.7-2.4 1.9-4.5 3.4-6.4 3.1-3.7 7.8-6 13-6h1c6.6.4 12.2 4.5 14.7 10.2.9 2.2 1.5 4.5 1.5 7zm44-144.2l-1.9 14.3-5 8.2-15.7 50.3-5.5-1.8 15.8-50.7.4-9 6.4-13zm-19.6 82.3c-.1 31.6-14.2 44.7-14.2 44.7-9.7-.1-15.1-4.7-15.1-4.7-4.5-18.2 10.5-40.5 13.6-44.9l15.7 4.9zm5.2-5.5l-1.5 5.1c-.2.8-1.1 1.2-1.8 1l-1.8-.6-15.7-4.9-1.9-.6c-.8-.2-1.2-1.1-1-1.8l1.6-5c.2-.8 1.1-1.2 1.8-1l6.6 2 5.6 1.7 7.2 2.2c.8.3 1.2 1.2.9 1.9z" fill="none"/><path fill="#fff" stroke="#fff" stroke-width=".7" stroke-miterlimit="10" d="M414.5 179.8l-1-.3c-.1 0-.2-.2-.2-.3l10.3-33.1c0-.1.2-.2.3-.2l1 .3c.1 0 .2.2.2.3l-10.3 33.1c0 .2-.2.3-.3.2zm5.1 1.6l-1-.3c-.1 0-.2-.2-.2-.3l10.3-33.1c0-.1.2-.2.3-.2l1 .3c.1 0 .2.2.2.3l-10.2 33.1c-.1.2-.2.3-.4.2zm-10.5-3.5l-1-.3c-.1 0-.2-.2-.2-.3l10.3-33.1c0-.1.2-.2.3-.2l1 .3c.1 0 .2.2.2.3l-10.3 33.1c0 .1-.1.2-.3.2z"/><circle stroke="#fff" stroke-width="2" stroke-linecap="round" stroke-linejoin="round" stroke-miterlimit="10" cx="148.1" cy="279.7" r="9.2" fill="none"/><circle stroke="#fff" stroke-width="2" stroke-linecap="round" stroke-linejoin="round" stroke-miterlimit="10" cx="179" cy="279.9" r="9.2" fill="none"/><circle stroke="#fff" stroke-width="2" stroke-linecap="round" stroke-linejoin="round" stroke-miterlimit="10" cx="210.5" cy="279.9" r="9.2" fill="none"/><circle stroke="#fff" stroke-width="2" stroke-linecap="round" stroke-linejoin="round" stroke-miterlimit="10" cx="243.2" cy="279.9" r="9.2" fill="none"/><path stroke="#fff" stroke-width="2" stroke-linecap="round" stroke-linejoin="round" stroke-miterlimit="10" d="M249.2 241.8h-107.1c-1.8 0-3.2 1.4-3.2 3.2v4.6c0 1.8 1.4 3.2 3.2 3.2h107.1c1.8 0 3.2-1.4 3.2-3.2v-4.6c0-1.8-1.4-3.2-3.2-3.2zm0-26.4h-107.1c-1.8 0-3.2 1.4-3.2 3.2v4.6c0 1.8 1.4 3.2 3.2 3.2h107.1c1.8 0 3.2-1.4 3.2-3.2v-4.6c0-1.7-1.4-3.2-3.2-3.2zm1.5-25h-107.1c-1.8 0-3.2 1.4-3.2 3.2v4.6c0 1.8 1.4 3.2 3.2 3.2h107.1c1.8 0 3.2-1.4 3.2-3.2v-4.6c0-1.8-1.4-3.2-3.2-3.2zm-163.2 162l-10.7 26.1c-.1.2-.2.5-.4.7-.6 1.1-2 1.7-3.2 1.2l-28.9-11.8c-1.3-.5-1.9-2-1.4-3.3l3.8-9.4c.5-1.3 2-1.9 3.3-1.4l17.2 7 6-14.7c.2.2.4.5.7.7 3.9 3.6 8.8 5.3 13.6 4.9zm-6-33.6c-2.7.8-5.3 2.2-7.4 4.4-1.7 1.7-3 3.8-3.8 5.9l-11.7-11.7-13.1 13c-1.1 1.1-2.9 1.1-4 0l-6.8-6.9c-1.1-1.1-1.1-2.9 0-4l21.8-21.6c.4-.4.8-.6 1.3-.7 1-.3 2.1-.1 2.9.7l20.8 20.9zm16.8 28.6c-3 3-6.8 4.7-10.7 5-4.8.4-9.8-1.3-13.5-5l-.7-.7c-4.4-4.9-5.5-11.8-3.2-17.6.8-2.2 2.1-4.2 3.8-5.9 2.1-2.1 4.7-3.6 7.4-4.4 5.8-1.7 12.2-.2 16.8 4.4 6.8 6.7 6.8 17.5.1 24.2zm276.2.8v-15.8h-6.1c-.6-1.9-1.3-3.8-2.3-5.6l4.7-4.7-11.2-11.2-4.7 4.7c-1.7-1-3.6-1.7-5.5-2.3v-6.4h-15.8v6.4c-2.2.6-4.3 1.5-6.2 2.7l-5-5-11.2 11.2 5.3 5.3c-.8 1.6-1.5 3.2-2 4.9h-6.1v15.8h6.1c.4 1.5 1 2.9 1.6 4.2l-4.9 4.9 11.2 11.2 4.4-4.4c2.1 1.3 4.4 2.4 6.9 3.1v5.1h15.8v-5.2c2-.6 3.8-1.3 5.5-2.3l4.6 4.6 11.2-11.2-4.7-4.7c1-1.7 1.7-3.6 2.3-5.6h6.1zm-33.1 2.9c-6 0-10.8-4.8-10.8-10.8 0-6 4.9-10.8 10.8-10.8 6 0 10.8 4.9 10.8 10.8s-4.8 10.8-10.8 10.8z" fill="none"/></svg>