<?xml version="1.0" encoding="utf-8"?>
<!-- Generator: Adobe Illustrator 19.2.1, SVG Export Plug-In . SVG Version: 6.00 Build 0)  -->
<svg version="1.1" id="Layer_1" xmlns="http://www.w3.org/2000/svg" xmlns:xlink="http://www.w3.org/1999/xlink" x="0px" y="0px"
	 viewBox="0 0 463.5 443.5" style="enable-background:new 0 0 463.5 443.5;" xml:space="preserve">
<style type="text/css">
	.st0{fill:#333333;}
	.st1{fill:#E6E6E6;}
	.st2{fill:#D1D2D3;}
	.st3{fill:#BCBDBF;}
	.st4{fill:#6D6E71;}
	.st5{fill:#808184;}
	.st6{fill:#E5B6D4;}
	.st7{fill:#FFFFFF;}
	.st8{fill:#FDE46C;}
	.st9{fill:#7FCDC9;}
	.st10{fill:#424143;}
	.st11{fill:#FFFFFF;stroke:#FFFFFF;stroke-miterlimit:10;}
	.st12{fill:#FDE46C;stroke:#FDE46C;stroke-miterlimit:10;}
	.st13{fill:#E9E9E9;}
	.st14{fill:#E9E9E9;stroke:#FFFFFF;stroke-width:0.1;stroke-miterlimit:10;}
	.st15{fill:#A7A8AB;}
</style>
<path class="st0" d="M406,89.3H230.8v0.1h-172c-3.4,0-6.2,2.8-6.2,6.2v225.3c0,3.4,2.7,6.2,6.2,6.2h172v-0.1H406
	c3.4,0,6.2-2.8,6.2-6.2V95.7C412.2,92.3,409.5,89.5,406,89.3z M230.8,95.3L230.8,95.3c1.5-0.1,2.5,1,2.5,2.4c0,1.5-1.1,2.5-2.5,2.5
	v0.1c-1.5,0-2.5-1.1-2.5-2.5C228.3,96.5,229.5,95.3,230.8,95.3z M396.5,310.2H230.8v0.1H69.1V106.5h161.8v-0.1h165.6V310.2z"/>
<path class="st1" d="M455.9,328.7v8.4H9.2v-8.3h186.1c0.3,2.4,3.2,3.2,3.2,3.2h32.5c17.5,0,35.9,0,37.3-0.1c2.6-0.2,3.3-3.2,3.3-3.2
	H455.9z"/>
<path class="st2" d="M455.4,337c-7.7,11.7-21.8,11.9-21.8,11.9s-103.3,0.7-202.6,1h-5.3c-94.2,0.2-186.3,0.2-193.8-1
	c-15.7-2.2-23.3-12-23.3-12h222.5v0.1H455.4z"/>
<path class="st2" d="M455.2,336.9L455.2,336.9L455.2,336.9C455.1,337,455.2,337,455.2,336.9z"/>
<path class="st3" d="M271.7,328.8c0,0-0.6,2.9-3.3,3.2c-1.5,0.1-19.7,0.1-37.3,0.1V332h-32.6c0,0-2.8-0.7-3.2-3.2h35.8v0.1
	L271.7,328.8z"/>
<path class="st4" d="M230.9,95.3L230.9,95.3L230.9,95.3c-1.5,0.1-2.5,1.2-2.5,2.5s1.1,2.4,2.4,2.5h0.1c1.4-0.1,2.4-1.2,2.4-2.5
	C233.3,96.5,232.3,95.4,230.9,95.3z M230.8,99c-0.6,0-1.2-0.6-1.2-1.2c0-0.7,0.4-1.2,1.2-1.2c0.6,0,1.2,0.6,1.2,1.2
	S231.5,98.9,230.8,99z"/>
<path class="st4" d="M230.9,95.3L230.9,95.3L230.9,95.3L230.9,95.3z"/>
<path class="st5" d="M230.8,96.6V99c-0.7,0-1.2-0.6-1.2-1.2C229.7,97.1,230.1,96.6,230.8,96.6L230.8,96.6z"/>
<path class="st5" d="M232,97.8c0,0.7-0.6,1.2-1.2,1.2v-2.4C231.5,96.6,232,97.1,232,97.8L232,97.8z"/>
<path class="st6" d="M69.1,106.5v203.7h327.4V106.5H69.1z M330,162.9H136.2v-9.7h193.9L330,162.9L330,162.9z"/>
<path class="st7" d="M136.2,162.9v114.5h193.7V162.9H136.2z M288.4,240.4H173.3v-3.6h115.1V240.4z M288.4,219.5H173.3V216h115.1
	V219.5z M288.4,200.1H173.3v-3.6h115.1V200.1z"/>
<rect x="136.2" y="153.2" class="st5" width="193.9" height="9.7"/>
<circle class="st6" cx="141" cy="158.3" r="2"/>
<circle class="st8" cx="147.8" cy="158.3" r="2"/>
<circle class="st9" cx="154.6" cy="158.3" r="2"/>
<rect x="173.3" y="196.5" class="st10" width="115.1" height="3.5"/>
<path class="st10" d="M230.9,236.8h57.5v3.6h-57.5L230.9,236.8L230.9,236.8z"/>
<path class="st10" d="M173.3,236.8h57.6v3.6h-57.6V236.8z"/>
<path class="st10" d="M230.9,216h57.5v3.5h-57.5L230.9,216L230.9,216z"/>
<path class="st10" d="M173.3,216h57.6v3.5h-57.6V216z"/>
<path class="st2" d="M413.9,95.1v226c0,4.2-3.4,7.6-7.6,7.6l-175.6,0.2v-1.7H406c3.4,0,6.2-2.8,6.2-6.2V95.7c0-3.4-2.8-6.2-6.2-6.2
	H230.9v0.1h-172c-3.6-0.1-6.5,2.7-6.5,6.1v225.2c0,3.4,2.8,6.2,6.2,6.2H231l-0.1,1.7l-172.5-0.2c-4.2,0-7.6-3.4-7.6-7.6v-226
	c0-4.3,3.4-7.6,7.6-7.6h172.4v-0.1h175.5C410.5,87.5,413.9,90.8,413.9,95.1z"/>
<g>
	<path class="st11" d="M90.6,177.2H32.2c-5.6,0-10.3,4.8-10.3,10.4v145.7c0,5.7,4.6,10.3,10.3,10.3h29v-0.1h29.4
		c5.7,0,10.3-4.7,10.3-10.3V187.6C100.9,181.8,96.3,177.3,90.6,177.2z M54.3,191.4c0-0.1,0-0.1,0.1-0.2c0,0,0,0,0-0.1
		c0-0.1,0-0.1,0.1-0.2s0.1-0.1,0.2-0.2c0.1-0.1,0.1-0.1,0.2-0.2c0.1,0,0.1-0.1,0.2-0.1c0.2-0.1,0.3-0.1,0.5-0.1H67
		c0.7,0,1.2,0.6,1.2,1.2c0,0.7-0.6,1.2-1.2,1.2H55.5c-0.2,0-0.3,0-0.5-0.1c-0.1-0.1-0.3-0.2-0.4-0.3c-0.1-0.1-0.2-0.2-0.3-0.4
		S54.2,191.6,54.3,191.4C54.2,191.6,54.2,191.5,54.3,191.4z M95.4,319.6H61.1v0.1H28.3V200.9h67V319.6z"/>
	<path class="st2" d="M68,191.7c0,0.7-0.6,1.2-1.2,1.2H55.5c-0.2,0-0.3,0-0.5-0.1c-0.1-0.1-0.3-0.2-0.4-0.3
		c-0.1-0.1-0.2-0.2-0.3-0.4s-0.1-0.3-0.1-0.5c0-0.1,0-0.2,0-0.2c0-0.1,0-0.1,0.1-0.2c0,0,0,0,0-0.1c0-0.1,0-0.1,0.1-0.2
		s0.1-0.1,0.2-0.2c0.1-0.1,0.1-0.1,0.2-0.2c0.1,0,0.1-0.1,0.2-0.1c0.2-0.1,0.3-0.1,0.5-0.1h11.4C67.6,190.5,68,191,68,191.7z"/>
	<path class="st12" d="M28.3,200.9v118.8h67V200.9H28.3z M40.6,229.3c0.1-0.4,0.2-0.7,0.2-1.1c0.3-1.1,0.6-2,1-3
		c2.2-5.4,6.6-9.8,12-12c0.7-0.3,1.3-0.5,1.9-0.7s1.4-0.4,2-0.5c0.7-0.1,1.4-0.2,2.1-0.3c0.4,0,0.7-0.1,1.1-0.1h1
		c2.2,0,4.5,0.4,6.5,1c0.7,0.2,1.4,0.5,2,0.8c1,0.4,1.9,0.9,2.8,1.5c1.5,0.9,2.9,2,4.2,3.2c4,4,6.4,9.4,6.4,15.4
		c0,12-9.8,22-21.9,22h-1c-9.4-0.5-17.3-6.9-20-15.5l0,0c-0.3-0.9-0.5-1.7-0.6-2.6c0-0.2,0-0.3-0.1-0.4c-0.2-1.1-0.3-2.1-0.3-3.3
		C40.2,232.1,40.3,230.7,40.6,229.3z"/>
	<path class="st13" d="M68.6,332.1c0,4-3.3,7.2-7.2,7.2h-0.2v-4.9h1.7c0.6,0,1-0.5,1-1v-3.2c0-0.6-0.5-1-1-1h-1.7v-4.5h0.2
		C65.4,324.8,68.6,328,68.6,332.1L68.6,332.1z"/>
	<path class="st13" d="M58.9,330.4v3.2c0,0.6,0.5,1,1,1h1.4v4.9c-3.8-0.1-7-3.3-7-7.2c0-3.9,3.1-7.1,7-7.2v4.5h-1.4
		C59.2,329.4,58.9,329.8,58.9,330.4L58.9,330.4z"/>
	<path class="st14" d="M63.6,330.2v3.2c0,0.6-0.5,1-1,1h-3.2c-0.6,0-1-0.5-1-1v-3.2c0-0.6,0.5-1,1-1h3.2
		C63.3,329.1,63.6,329.6,63.6,330.2z"/>
	<path class="st2" d="M61.1,184.1L61.1,184.1c-0.9,0-1.7,0.8-1.7,1.7c0,0.9,0.8,1.5,1.7,1.5c0.9,0,1.7-0.8,1.7-1.7
		C62.7,184.5,62,184,61.1,184.1z M61.1,186.2c-0.3,0-0.5-0.5-0.5-0.5s0.1-0.6,0.5-0.8l0,0c0.3,0,0.3,0.3,0.3,0.7
		S61.5,186.2,61.1,186.2z"/>
	<path class="st2" d="M84,233.6c0,12-9.8,22-21.9,22h-1c-9.4-0.5-17.3-6.9-20-15.5l0,0c-0.3-0.9-0.5-1.7-0.6-2.6
		c0-0.2,0-0.3-0.1-0.4c-0.2-1.1-0.2-2.1-0.2-3.3c0-1.5,0.2-2.9,0.4-4.3c0.1-0.4,0.2-0.7,0.2-1.1c0.3-1.1,0.6-2,1-3
		c2.2-5.4,6.6-9.8,12-12c0.7-0.3,1.3-0.5,1.9-0.7c0.7-0.2,1.4-0.4,2-0.5c0.7-0.1,1.4-0.2,2.1-0.3c0.4,0,0.7-0.1,1.1-0.1h1
		c2.2,0,4.5,0.4,6.5,1c0.7,0.2,1.4,0.5,2,0.8c1,0.4,1.9,0.9,2.8,1.5c1.5,0.9,2.9,2,4.2,3.2C81.6,222.1,84,227.6,84,233.6z"/>
	<path class="st15" d="M61.8,185.5c0,0.3-0.3,0.6-0.6,0.7l0,0l0,0c-0.3,0-0.6-0.3-0.6-0.7c0-0.3,0.3-0.7,0.6-0.8l0,0l0,0
		C61.4,184.9,61.8,185.2,61.8,185.5z"/>
	<rect x="40" y="288" class="st10" width="43.7" height="2.9"/>
	<rect x="40" y="276.8" class="st10" width="43.7" height="2.9"/>
	<rect x="40" y="265.5" class="st10" width="43.7" height="2.9"/>
</g>
</svg>
