<svg xmlns="http://www.w3.org/2000/svg" viewBox="0 0 463.5 443.5" enable-background="new 0 0 463.5 443.5"><style type="text/css">.st0{fill:#333333;} .st1{fill:#E6E6E6;} .st2{fill:#D1D2D3;} .st3{fill:#BCBDBF;} .st4{fill:#6D6E71;} .st5{fill:#808184;} .st6{fill:#E5B6D4;} .st7{fill:#FFFFFF;} .st8{fill:#FDE46C;} .st9{fill:#7FCDC9;} .st10{fill:#424143;} .st11{fill:#FFFFFF;stroke:#FFFFFF;stroke-miterlimit:10;} .st12{fill:#FDE46C;stroke:#FDE46C;stroke-miterlimit:10;} .st13{fill:#E9E9E9;} .st14{fill:#E9E9E9;stroke:#FFFFFF;stroke-width:0.1;stroke-miterlimit:10;} .st15{fill:#A7A8AB;}</style><path class="st0" d="M406 89.3h-175.2v.1h-172c-3.4 0-6.2 2.8-6.2 6.2v225.3c0 3.4 2.7 6.2 6.2 6.2h172v-.1h175.2c3.4 0 6.2-2.8 6.2-6.2v-225.1c0-3.4-2.7-6.2-6.2-6.4zm-175.2 6c1.5-.1 2.5 1 2.5 2.4 0 1.5-1.1 2.5-2.5 2.5v.1c-1.5 0-2.5-1.1-2.5-2.5 0-1.3 1.2-2.5 2.5-2.5zm165.7 214.9h-165.7v.1h-161.7v-203.8h161.8v-.1h165.6v203.8z"/><path class="st1" d="M455.9 328.7v8.4h-446.7v-8.3h186.1c.3 2.4 3.2 3.2 3.2 3.2h32.5c17.5 0 35.9 0 37.3-.1 2.6-.2 3.3-3.2 3.3-3.2h184.3z"/><path class="st2" d="M455.4 337c-7.7 11.7-21.8 11.9-21.8 11.9s-103.3.7-202.6 1h-5.3c-94.2.2-186.3.2-193.8-1-15.7-2.2-23.3-12-23.3-12h222.5v.1h224.3zM455.2 336.9c-.1.1 0 .1 0 0z"/><path class="st3" d="M271.7 328.8s-.6 2.9-3.3 3.2c-1.5.1-19.7.1-37.3.1v-.1h-32.6s-2.8-.7-3.2-3.2h35.8v.1l40.6-.1z"/><path class="st4" d="M230.9 95.3c-1.5.1-2.5 1.2-2.5 2.5s1.1 2.4 2.4 2.5h.1c1.4-.1 2.4-1.2 2.4-2.5s-1-2.4-2.4-2.5zm-.1 3.7c-.6 0-1.2-.6-1.2-1.2 0-.7.4-1.2 1.2-1.2.6 0 1.2.6 1.2 1.2s-.5 1.1-1.2 1.2zM230.9 95.3z"/><path class="st5" d="M230.8 96.6v2.4c-.7 0-1.2-.6-1.2-1.2.1-.7.5-1.2 1.2-1.2zM232 97.8c0 .7-.6 1.2-1.2 1.2v-2.4c.7 0 1.2.5 1.2 1.2z"/><path class="st6" d="M69.1 106.5v203.7h327.4v-203.7h-327.4zm260.9 56.4h-193.8v-9.7h193.9l-.1 9.7z"/><path class="st7" d="M136.2 162.9v114.5h193.7v-114.5h-193.7zm152.2 77.5h-115.1v-3.6h115.1v3.6zm0-20.9h-115.1v-3.5h115.1v3.5zm0-19.4h-115.1v-3.6h115.1v3.6z"/><path class="st5" d="M136.2 153.2h193.9v9.7h-193.9z"/><circle class="st6" cx="141" cy="158.3" r="2"/><circle class="st8" cx="147.8" cy="158.3" r="2"/><circle class="st9" cx="154.6" cy="158.3" r="2"/><path class="st10" d="M173.3 196.5h115.1v3.5h-115.1zM230.9 236.8h57.5v3.6h-57.5v-3.6zM173.3 236.8h57.6v3.6h-57.6v-3.6zM230.9 216h57.5v3.5h-57.5v-3.5zM173.3 216h57.6v3.5h-57.6v-3.5z"/><path class="st2" d="M413.9 95.1v226c0 4.2-3.4 7.6-7.6 7.6l-175.6.2v-1.7h175.3c3.4 0 6.2-2.8 6.2-6.2v-225.3c0-3.4-2.8-6.2-6.2-6.2h-175.1v.1h-172c-3.6-.1-6.5 2.7-6.5 6.1v225.2c0 3.4 2.8 6.2 6.2 6.2h172.4l-.1 1.7-172.5-.2c-4.2 0-7.6-3.4-7.6-7.6v-226c0-4.3 3.4-7.6 7.6-7.6h172.4v-.1h175.5c4.2.2 7.6 3.5 7.6 7.8z"/><path class="st11" d="M90.6 177.2h-58.4c-5.6 0-10.3 4.8-10.3 10.4v145.7c0 5.7 4.6 10.3 10.3 10.3h29v-.1h29.4c5.7 0 10.3-4.7 10.3-10.3v-145.6c0-5.8-4.6-10.3-10.3-10.4zm-36.3 14.2c0-.1 0-.1.1-.2v-.1c0-.1 0-.1.1-.2l.2-.2.2-.2.2-.1c.2-.1.3-.1.5-.1h11.4c.7 0 1.2.6 1.2 1.2 0 .7-.6 1.2-1.2 1.2h-11.5c-.2 0-.3 0-.5-.1l-.4-.3c-.1-.1-.2-.2-.3-.4s-.1-.3 0-.5c-.1.2-.1.1 0 0zm41.1 128.2h-34.3v.1h-32.8v-118.8h67v118.7z"/><path class="st2" d="M68 191.7c0 .7-.6 1.2-1.2 1.2h-11.3c-.2 0-.3 0-.5-.1l-.4-.3c-.1-.1-.2-.2-.3-.4s-.1-.3-.1-.5v-.2c0-.1 0-.1.1-.2v-.1c0-.1 0-.1.1-.2l.2-.2.2-.2.2-.1c.2-.1.3-.1.5-.1h11.4c.7.2 1.1.7 1.1 1.4z"/><path class="st12" d="M28.3 200.9v118.8h67v-118.8h-67zm12.3 28.4c.1-.4.2-.7.2-1.1.3-1.1.6-2 1-3 2.2-5.4 6.6-9.8 12-12 .7-.3 1.3-.5 1.9-.7s1.4-.4 2-.5l2.1-.3 1.1-.1h1c2.2 0 4.5.4 6.5 1 .7.2 1.4.5 2 .8 1 .4 1.9.9 2.8 1.5 1.5.9 2.9 2 4.2 3.2 4 4 6.4 9.4 6.4 15.4 0 12-9.8 22-21.9 22h-1c-9.4-.5-17.3-6.9-20-15.5-.3-.9-.5-1.7-.6-2.6 0-.2 0-.3-.1-.4-.2-1.1-.3-2.1-.3-3.3.3-1.6.4-3 .7-4.4z"/><path class="st13" d="M68.6 332.1c0 4-3.3 7.2-7.2 7.2h-.2v-4.9h1.7c.6 0 1-.5 1-1v-3.2c0-.6-.5-1-1-1h-1.7v-4.5h.2c4 .1 7.2 3.3 7.2 7.4zM58.9 330.4v3.2c0 .6.5 1 1 1h1.4v4.9c-3.8-.1-7-3.3-7-7.2 0-3.9 3.1-7.1 7-7.2v4.5h-1.4c-.7-.2-1 .2-1 .8z"/><path class="st14" d="M63.6 330.2v3.2c0 .6-.5 1-1 1h-3.2c-.6 0-1-.5-1-1v-3.2c0-.6.5-1 1-1h3.2c.7-.1 1 .4 1 1z"/><path class="st2" d="M61.1 184.1c-.9 0-1.7.8-1.7 1.7 0 .9.8 1.5 1.7 1.5.9 0 1.7-.8 1.7-1.7-.1-1.1-.8-1.6-1.7-1.5zm0 2.1c-.3 0-.5-.5-.5-.5s.1-.6.5-.8c.3 0 .3.3.3.7s.1.6-.3.6zM84 233.6c0 12-9.8 22-21.9 22h-1c-9.4-.5-17.3-6.9-20-15.5-.3-.9-.5-1.7-.6-2.6 0-.2 0-.3-.1-.4-.2-1.1-.2-2.1-.2-3.3 0-1.5.2-2.9.4-4.3.1-.4.2-.7.2-1.1.3-1.1.6-2 1-3 2.2-5.4 6.6-9.8 12-12 .7-.3 1.3-.5 1.9-.7.7-.2 1.4-.4 2-.5l2.1-.3 1.1-.1h1c2.2 0 4.5.4 6.5 1 .7.2 1.4.5 2 .8 1 .4 1.9.9 2.8 1.5 1.5.9 2.9 2 4.2 3.2 4.2 3.8 6.6 9.3 6.6 15.3z"/><path class="st15" d="M61.8 185.5c0 .3-.3.6-.6.7-.3 0-.6-.3-.6-.7 0-.3.3-.7.6-.8.2.2.6.5.6.8z"/><path class="st10" d="M40 288h43.7v2.9h-43.7zM40 276.8h43.7v2.9h-43.7zM40 265.5h43.7v2.9h-43.7z"/></svg>